<?xml version="1.0" standalone="no"?>
<!DOCTYPE svg PUBLIC "-//W3C//DTD SVG 1.1//EN" "http://www.w3.org/Graphics/SVG/1.1/DTD/svg11.dtd" >
<svg xmlns="http://www.w3.org/2000/svg" xmlns:xlink="http://www.w3.org/1999/xlink" version="1.1">
<metadata>
Created by FontForge 20161116 at Tue Nov 19 20:51:40 2013
 By Jimmy Wärting
Copyright (c) 2011 by typedepot. All rights reserved.
</metadata>
<defs>
<font id="CentraleSansBold" horiz-adv-x="713" >
  <font-face 
    font-family="CentraleSans Book"
    font-weight="800"
    font-stretch="normal"
    units-per-em="1000"
    panose-1="0 0 0 0 0 0 0 0 0 0"
    ascent="750"
    descent="-250"
    x-height="520"
    cap-height="700"
    bbox="-210 -215 1363 956"
    underline-thickness="50"
    underline-position="-100"
    stemv="131"
    unicode-range="U+000D-FB04"
  />
<missing-glyph horiz-adv-x="650" 
d="M568 732v-854h-486v854h486zM466 656h-282l141 -268zM466 -46l-141 268l-141 -268h282zM494 544l-126 -239l126 -239v478zM156 544v-478l125 239z" />
    <glyph glyph-name="f_f" unicode="ff" horiz-adv-x="681" 
d="M557 741c50 0 93 -8 117 -13l-12 -94c-21 4 -47 8 -73 8c-43 0 -67 -22 -67 -72v-50h137v-93h-137v-427h-131v427h-162v-427h-131v427h-85v93h85v45c0 112 38 176 165 176c17 0 55 -4 76 -10l-14 -93c-15 2 -26 4 -40 4c-39 0 -56 -19 -56 -67v-55h162v45
c0 113 38 176 166 176z" />
    <glyph glyph-name="f_f_i" unicode="ffi" horiz-adv-x="889" 
d="M603 748c54 0 114 -10 172 -41l-33 -83c-34 15 -72 25 -121 25c-75 0 -98 -47 -98 -91v-38h297v-520h-131v427h-166v-427h-131v427h-163v-427h-131v427h-85v93h85v45c0 112 38 176 165 176c17 0 55 -4 76 -9l-13 -95c-16 2 -27 4 -41 4c-39 0 -56 -19 -56 -67v-54h163v36
c0 133 98 192 211 192z" />
    <glyph glyph-name="f_f_l" unicode="ffl" horiz-adv-x="944" 
d="M918 94l4 -94c-27 -6 -52 -9 -93 -9c-88 0 -125 34 -125 128v433c0 74 -50 97 -92 97c-40 0 -89 -24 -89 -97v-32h96v-93h-96v-427h-131v427h-163v-427h-131v427h-85v93h85v45c0 112 37 176 164 176c18 0 55 -4 76 -9l-13 -94c-16 2 -26 4 -41 4c-38 0 -55 -19 -55 -67
v-55h163v31c0 117 86 197 220 197c118 0 223 -58 223 -195v-424c0 -31 18 -37 40 -37c16 0 31 1 43 2z" />
    <glyph glyph-name="f_i" unicode="fi" horiz-adv-x="602" 
d="M314 741c63 0 119 -16 171 -44l-36 -78c-44 20 -76 28 -119 28c-74 0 -101 -50 -101 -96v-31h304v-520h-131v427h-173v-427h-131v427h-85v93h85v40c4 119 102 181 216 181z" />
    <glyph glyph-name="f_l" unicode="fl" horiz-adv-x="649" 
d="M623 94l4 -94c-27 -6 -52 -9 -93 -9c-88 0 -125 34 -125 128v426c0 74 -51 97 -91 97s-89 -22 -89 -93v-29h96v-93h-96v-427h-131v427h-85v93h85v24c0 117 86 197 220 197c117 0 222 -58 222 -195v-417c0 -31 18 -37 40 -37c17 0 32 1 43 2z" />
    <glyph glyph-name=".notdef" horiz-adv-x="650" 
d="M568 732v-854h-486v854h486zM466 656h-282l141 -268zM466 -46l-141 268l-141 -268h282zM494 544l-126 -239l126 -239v478zM156 544v-478l125 239z" />
    <glyph glyph-name="Aacute" unicode="&#xc1;" horiz-adv-x="727" 
d="M454 701l270 -701h-145l-60 161h-316l-60 -161h-140l271 701h180zM360 581l-116 -310h234l-116 310h-2zM514 866l-101 -116h-97l76 116h122z" />
    <glyph glyph-name="Abreve" unicode="&#x102;" horiz-adv-x="727" 
d="M454 701l270 -701h-145l-60 161h-316l-60 -161h-140l271 701h180zM360 581l-116 -310h234l-116 310h-2zM432 873l76 -5c-9 -88 -64 -113 -148 -113s-139 25 -148 113l75 5c7 -43 39 -55 73 -55c33 0 65 12 72 55z" />
    <glyph glyph-name="Acircumflex" unicode="&#xc2;" horiz-adv-x="727" 
d="M454 701l270 -701h-145l-60 161h-316l-60 -161h-140l271 701h180zM360 581l-116 -310h234l-116 310h-2zM427 866l113 -116h-103l-70 74l-69 -74h-104l114 116h119z" />
    <glyph glyph-name="Adieresis" unicode="&#xc4;" horiz-adv-x="727" 
d="M454 701l270 -701h-145l-60 161h-316l-60 -161h-140l271 701h180zM360 581l-116 -310h234l-116 310h-2zM242 873c43 0 63 -22 63 -58c0 -37 -20 -59 -63 -59c-41 0 -62 22 -62 59c0 36 21 58 62 58zM476 873c43 0 63 -22 63 -58c0 -37 -20 -59 -63 -59
c-40 0 -61 22 -61 59c0 36 21 58 61 58z" />
    <glyph glyph-name="Agrave" unicode="&#xc0;" horiz-adv-x="727" 
d="M454 701l270 -701h-145l-60 161h-316l-60 -161h-140l271 701h180zM360 581l-116 -310h234l-116 310h-2zM370 866l73 -116h-97l-98 116h122z" />
    <glyph glyph-name="Amacron" unicode="&#x100;" horiz-adv-x="727" 
d="M454 701l270 -701h-145l-60 161h-316l-60 -161h-140l271 701h180zM360 581l-116 -310h234l-116 310h-2zM516 852v-75h-312v75h312z" />
    <glyph glyph-name="Aogonek" unicode="&#x104;" horiz-adv-x="727" 
d="M454 701l270 -701c-37 -22 -49 -51 -49 -73c0 -26 15 -37 34 -37c13 0 23 2 38 6l7 -66c-24 -10 -46 -13 -64 -13c-53 0 -95 25 -95 84c0 44 24 77 51 99h-67l-60 161h-316l-60 -161h-140l271 701h180zM360 581l-116 -310h234l-116 310h-2z" />
    <glyph glyph-name="Aring" unicode="&#xc5;" horiz-adv-x="727" 
d="M454 701l270 -701h-145l-60 161h-316l-60 -161h-140l271 701h180zM360 581l-116 -310h234l-116 310h-2zM360 956c62 0 115 -33 115 -105c0 -73 -53 -107 -115 -107s-115 34 -115 107c0 72 53 105 115 105zM359 903c-22 0 -47 -12 -47 -53c0 -40 25 -53 47 -53
s49 13 49 53c0 41 -27 53 -49 53z" />
    <glyph glyph-name="Atilde" unicode="&#xc3;" horiz-adv-x="727" 
d="M454 701l270 -701h-145l-60 161h-316l-60 -161h-140l271 701h180zM360 581l-116 -310h234l-116 310h-2zM482 873l44 -20c-20 -63 -55 -96 -105 -96c-22 0 -45 10 -68 21c-21 10 -43 24 -64 24c-29 0 -39 -20 -48 -37l-43 19c19 63 54 96 105 96c20 0 44 -9 68 -21
c19 -10 43 -24 64 -24c28 0 38 21 47 38z" />
    <glyph glyph-name="AE" unicode="&#xc6;" horiz-adv-x="1046" 
d="M149 0h-146l384 700h604v-110h-371v-194h321v-110h-321v-176h380v-110h-520v177h-236zM468 591l-164 -304h176v304h-12z" />
    <glyph glyph-name="AEacute" unicode="&#x1fc;" horiz-adv-x="1046" 
d="M149 0h-146l384 700h604v-110h-371v-194h321v-110h-321v-176h380v-110h-520v177h-236zM468 591l-164 -304h176v304h-12zM804 866l-101 -116h-97l76 116h122z" />
    <glyph glyph-name="B" unicode="B" horiz-adv-x="698" 
d="M86 700h327c142 0 222 -65 222 -184c0 -124 -104 -153 -116 -158c58 -9 142 -57 142 -167c0 -125 -92 -191 -213 -191h-362v700zM420 304h-194v-194h198c60 0 101 42 101 96c0 52 -36 98 -105 98zM406 590h-180v-183h181c60 0 94 38 94 90c0 53 -40 93 -95 93z" />
    <glyph glyph-name="C" unicode="C" horiz-adv-x="686" 
d="M427 712c82 0 160 -17 213 -42l-35 -103c-47 21 -106 33 -152 33c-179 0 -262 -107 -262 -251c0 -145 85 -249 257 -249c63 0 125 18 169 35l28 -104c-50 -22 -131 -43 -225 -43c-218 0 -377 130 -377 360c0 236 166 364 384 364z" />
    <glyph glyph-name="Cacute" unicode="&#x106;" horiz-adv-x="686" 
d="M427 712c82 0 160 -17 213 -42l-35 -103c-47 21 -106 33 -152 33c-179 0 -262 -107 -262 -251c0 -145 85 -249 257 -249c63 0 125 18 169 35l28 -104c-50 -22 -131 -43 -225 -43c-218 0 -377 130 -377 360c0 236 166 364 384 364zM542 866l-101 -116h-97l76 116h122z" />
    <glyph glyph-name="Ccaron" unicode="&#x10c;" horiz-adv-x="686" 
d="M427 712c82 0 160 -17 213 -42l-35 -103c-47 21 -106 33 -152 33c-179 0 -262 -107 -262 -251c0 -145 85 -249 257 -249c63 0 125 18 169 35l28 -104c-50 -22 -131 -43 -225 -43c-218 0 -377 130 -377 360c0 236 166 364 384 364zM560 866l-113 -116h-119l-114 116h104
l69 -74l70 74h103z" />
    <glyph glyph-name="Ccedilla" unicode="&#xc7;" horiz-adv-x="686" 
d="M427 712c82 0 160 -17 213 -42l-35 -103c-47 21 -106 33 -152 33c-179 0 -262 -107 -262 -251c0 -145 85 -249 257 -249c63 0 125 18 169 35l28 -104c-50 -22 -131 -43 -225 -43l-14 -43c28 1 82 -6 82 -72c0 -61 -49 -80 -109 -80c-32 0 -66 7 -86 17l10 48
c12 -5 40 -12 66 -12c20 0 40 7 40 27c0 29 -35 28 -61 24l-19 27l23 69c-183 24 -309 149 -309 355c0 236 166 364 384 364z" />
    <glyph glyph-name="Ccircumflex" unicode="&#x108;" horiz-adv-x="686" 
d="M427 712c82 0 160 -17 213 -42l-35 -103c-47 21 -106 33 -152 33c-179 0 -262 -107 -262 -251c0 -145 85 -249 257 -249c63 0 125 18 169 35l28 -104c-50 -22 -131 -43 -225 -43c-218 0 -377 130 -377 360c0 236 166 364 384 364zM455 866l113 -116h-103l-70 74l-69 -74
h-104l114 116h119z" />
    <glyph glyph-name="Cdotaccent" unicode="&#x10a;" horiz-adv-x="686" 
d="M427 712c82 0 160 -17 213 -42l-35 -103c-47 21 -106 33 -152 33c-179 0 -262 -107 -262 -251c0 -145 85 -249 257 -249c63 0 125 18 169 35l28 -104c-50 -22 -131 -43 -225 -43c-218 0 -377 130 -377 360c0 236 166 364 384 364zM417 874c43 0 64 -22 64 -59
s-21 -58 -64 -58c-40 0 -62 21 -62 58s22 59 62 59z" />
    <glyph glyph-name="D" unicode="D" horiz-adv-x="757" 
d="M86 700h302c74 0 127 -21 167 -44c111 -66 158 -181 159 -303c0 -124 -49 -247 -159 -309c-42 -25 -102 -44 -167 -44h-302v700zM355 590h-129v-480h129c57 0 114 21 151 58c40 40 60 105 60 185c0 92 -28 159 -80 197c-38 29 -87 40 -131 40z" />
    <glyph glyph-name="Eth" unicode="&#xd0;" horiz-adv-x="757" 
d="M86 700h302c74 0 127 -21 167 -44c111 -66 158 -181 159 -303c0 -124 -49 -247 -159 -309c-42 -25 -102 -44 -167 -44h-302v307h-85v75h85v318zM355 590h-129v-208h125v-75h-125v-197h129c57 0 114 21 151 58c40 40 60 105 60 185c0 92 -28 159 -80 197
c-38 29 -87 40 -131 40z" />
    <glyph glyph-name="Dcaron" unicode="&#x10e;" horiz-adv-x="757" 
d="M86 700h302c74 0 127 -21 167 -44c111 -66 158 -181 159 -303c0 -124 -49 -247 -159 -309c-42 -25 -102 -44 -167 -44h-302v700zM355 590h-129v-480h129c57 0 114 21 151 58c40 40 60 105 60 185c0 92 -28 159 -80 197c-38 29 -87 40 -131 40zM542 866l-113 -116h-119
l-114 116h104l69 -74l70 74h103z" />
    <glyph glyph-name="Dcroat" unicode="&#x110;" horiz-adv-x="757" 
d="M86 700h302c7 0 14 0 21 -1h6c17 -1 33 -4 48 -7l13 -3l20 -6l12 -5l7 -3c9 -3 17 -7 24 -11l16 -8c3 -2 5 -4 8 -5c21 -14 41 -30 57 -47l12 -13c6 -6 12 -14 17 -21c10 -14 19 -29 27 -45c13 -26 22 -54 28 -83l2 -8l4 -27c1 -6 2 -12 2 -18c1 -9 2 -18 2 -27v-9v-10
c0 -9 -1 -18 -2 -27c0 -3 0 -7 -1 -10c0 -6 -1 -12 -2 -18c-3 -21 -7 -42 -14 -63c-2 -8 -5 -17 -9 -25l-3 -9c-3 -5 -5 -10 -7 -16l-9 -16l-4 -8c-11 -18 -23 -35 -37 -50l-12 -13l-14 -12l-7 -6c-7 -6 -14 -11 -22 -16c-5 -4 -11 -7 -16 -10l-10 -6l-21 -10l-4 -2
c-14 -6 -28 -11 -44 -15c-15 -4 -30 -7 -45 -9h-5c-3 -1 -6 -1 -9 -1c-7 -1 -13 -1 -20 -1h-9h-302v307h-85v75h85v318zM355 590h-129v-208h125v-75h-125v-197h129h8c5 0 9 0 13 1l25 3c2 1 3 1 5 1c9 2 19 5 28 8l19 8l11 6c3 1 5 2 7 4l14 9l9 7l6 5l6 6l6 6l5 6l8 11l5 7
l2 4c6 11 11 22 16 34l6 19c2 8 4 16 5 25c1 3 2 7 2 10c2 11 3 22 4 33v6c1 8 1 16 1 24c0 7 0 14 -1 20c0 5 0 9 -1 13c0 5 0 9 -1 13c-1 12 -3 24 -6 35l-4 17c-2 7 -5 14 -8 21c-4 11 -10 22 -16 32c-7 10 -13 19 -21 27l-11 10l-11 9c-38 29 -87 40 -131 40z" />
    <glyph glyph-name="E" unicode="E" horiz-adv-x="654" 
d="M597 700v-110h-371v-193h321v-110h-321v-177h380v-110h-520v700h511z" />
    <glyph glyph-name="Eacute" unicode="&#xc9;" horiz-adv-x="654" 
d="M597 700v-110h-371v-193h321v-110h-321v-177h380v-110h-520v700h511zM491 866l-101 -116h-97l76 116h122z" />
    <glyph glyph-name="Ebreve" unicode="&#x114;" horiz-adv-x="654" 
d="M597 700v-110h-371v-193h321v-110h-321v-177h380v-110h-520v700h511zM409 873l76 -5c-9 -88 -64 -113 -148 -113s-139 25 -148 113l75 5c7 -43 39 -55 73 -55c33 0 65 12 72 55z" />
    <glyph glyph-name="Ecaron" unicode="&#x11a;" horiz-adv-x="654" 
d="M597 700v-110h-371v-193h321v-110h-321v-177h380v-110h-520v700h511zM509 866l-113 -116h-119l-114 116h104l69 -74l70 74h103z" />
    <glyph glyph-name="Ecircumflex" unicode="&#xca;" horiz-adv-x="654" 
d="M597 700v-110h-371v-193h321v-110h-321v-177h380v-110h-520v700h511zM404 866l113 -116h-103l-70 74l-69 -74h-104l114 116h119z" />
    <glyph glyph-name="Edieresis" unicode="&#xcb;" horiz-adv-x="653" 
d="M597 700v-110h-371v-193h321v-110h-321v-177h380v-110h-520v700h511zM225 871c43 0 63 -22 63 -58c0 -37 -20 -59 -63 -59c-41 0 -62 22 -62 59c0 36 21 58 62 58zM459 871c43 0 63 -22 63 -58c0 -37 -20 -59 -63 -59c-40 0 -61 22 -61 59c0 36 21 58 61 58z" />
    <glyph glyph-name="Edotaccent" unicode="&#x116;" horiz-adv-x="653" 
d="M597 700v-110h-371v-193h321v-110h-321v-177h380v-110h-520v700h511zM343 874c43 0 64 -22 64 -59s-21 -58 -64 -58c-40 0 -62 21 -62 58s22 59 62 59z" />
    <glyph glyph-name="Egrave" unicode="&#xc8;" horiz-adv-x="654" 
d="M597 700v-110h-371v-193h321v-110h-321v-177h380v-110h-520v700h511zM347 866l73 -116h-97l-98 116h122z" />
    <glyph glyph-name="Emacron" unicode="&#x112;" horiz-adv-x="655" 
d="M597 700v-110h-371v-193h321v-110h-321v-177h380v-110h-520v700h511zM504 852v-75h-312v75h312z" />
    <glyph glyph-name="Eogonek" unicode="&#x118;" horiz-adv-x="654" 
d="M597 700v-110h-371v-193h321v-110h-321v-177h380v-110h-18c-37 -22 -49 -51 -49 -73c0 -26 15 -37 34 -37c13 0 23 2 38 6l7 -66c-24 -10 -46 -13 -64 -13c-53 0 -95 25 -95 84c0 44 24 77 51 99h-424v700h511z" />
    <glyph glyph-name="F" unicode="F" horiz-adv-x="612" 
d="M585 700v-110h-360v-204h309v-110h-309v-276h-140v700h500z" />
    <glyph glyph-name="G" unicode="G" horiz-adv-x="745" 
d="M424 712c83 0 172 -17 237 -53l-38 -103c-57 25 -105 44 -177 44c-174 0 -255 -104 -255 -247s85 -253 235 -253c66 0 119 20 154 47v120h-173v103h286v-278c-74 -71 -166 -104 -279 -104c-206 0 -371 127 -371 364c0 230 156 360 381 360z" />
    <glyph glyph-name="Gbreve" unicode="&#x11e;" horiz-adv-x="745" 
d="M424 712c83 0 172 -17 237 -53l-38 -103c-57 25 -105 44 -177 44c-174 0 -255 -104 -255 -247s85 -253 235 -253c66 0 119 20 154 47v120h-173v103h286v-278c-74 -71 -166 -104 -279 -104c-206 0 -371 127 -371 364c0 230 156 360 381 360zM460 873l76 -5
c-9 -88 -64 -113 -148 -113s-139 25 -148 113l75 5c7 -43 39 -55 73 -55c33 0 65 12 72 55z" />
    <glyph glyph-name="Gcircumflex" unicode="&#x11c;" horiz-adv-x="745" 
d="M424 712c83 0 172 -17 237 -53l-38 -103c-57 25 -105 44 -177 44c-174 0 -255 -104 -255 -247s85 -253 235 -253c66 0 119 20 154 47v120h-173v103h286v-278c-74 -71 -166 -104 -279 -104c-206 0 -371 127 -371 364c0 230 156 360 381 360zM455 866l113 -116h-103l-70 74
l-69 -74h-104l114 116h119z" />
    <glyph glyph-name="Gcommaaccent" unicode="&#x122;" horiz-adv-x="745" 
d="M424 712c83 0 172 -17 237 -53l-38 -103c-57 25 -105 44 -177 44c-174 0 -255 -104 -255 -247s85 -253 235 -253c66 0 119 20 154 47v120h-173v103h286v-278c-74 -71 -166 -104 -279 -104c-206 0 -371 127 -371 364c0 230 156 360 381 360zM359 -46h92
c-1 -65 -17 -97 -35 -138h-80c10 34 23 68 23 138z" />
    <glyph glyph-name="Gdotaccent" unicode="&#x120;" horiz-adv-x="745" 
d="M424 712c83 0 172 -17 237 -53l-38 -103c-57 25 -105 44 -177 44c-174 0 -255 -104 -255 -247s85 -253 235 -253c66 0 119 20 154 47v120h-173v103h286v-278c-74 -71 -166 -104 -279 -104c-206 0 -371 127 -371 364c0 230 156 360 381 360zM406 874c43 0 64 -22 64 -59
s-21 -58 -64 -58c-40 0 -62 21 -62 58s22 59 62 59z" />
    <glyph glyph-name="H" unicode="H" horiz-adv-x="783" 
d="M697 700v-700h-140v290h-331v-290h-140v700h140v-300h331v300h140z" />
    <glyph glyph-name="Hbar" unicode="&#x126;" horiz-adv-x="777" 
d="M697 700v-114h47v-63h-47v-523h-140v290h-331v-290h-140v523h-53v63h53v114h140v-114h331v114h140zM226 400h331v123h-331v-123z" />
    <glyph glyph-name="Hcircumflex" unicode="&#x124;" horiz-adv-x="783" 
d="M697 700v-700h-140v290h-331v-290h-140v700h140v-300h331v300h140zM453 866l113 -116h-103l-70 74l-69 -74h-104l114 116h119z" />
    <glyph glyph-name="I" unicode="I" horiz-adv-x="312" 
d="M226 700v-700h-140v700h140z" />
    <glyph glyph-name="Iacute" unicode="&#xcd;" horiz-adv-x="312" 
d="M226 700v-700h-140v700h140zM310 866l-101 -116h-97l76 116h122z" />
    <glyph glyph-name="Ibreve" unicode="&#x12c;" horiz-adv-x="312" 
d="M226 700v-700h-140v700h140zM228 873l76 -5c-9 -88 -64 -113 -148 -113s-139 25 -148 113l75 5c7 -43 39 -55 73 -55c33 0 65 12 72 55z" />
    <glyph glyph-name="Icircumflex" unicode="&#xce;" horiz-adv-x="312" 
d="M226 700v-700h-140v700h140zM223 866l113 -116h-103l-70 74l-69 -74h-104l114 116h119z" />
    <glyph glyph-name="Idieresis" unicode="&#xcf;" horiz-adv-x="312" 
d="M226 700v-700h-140v700h140zM38 873c43 0 63 -22 63 -58c0 -37 -20 -59 -63 -59c-41 0 -62 22 -62 59c0 36 21 58 62 58zM272 873c43 0 63 -22 63 -58c0 -37 -20 -59 -63 -59c-40 0 -61 22 -61 59c0 36 21 58 61 58z" />
    <glyph glyph-name="Idotaccent" unicode="&#x130;" horiz-adv-x="312" 
d="M226 700v-700h-140v700h140zM154 874c43 0 64 -22 64 -59s-21 -58 -64 -58c-40 0 -62 21 -62 58s22 59 62 59z" />
    <glyph glyph-name="Igrave" unicode="&#xcc;" horiz-adv-x="312" 
d="M226 700v-700h-140v700h140zM166 866l73 -116h-97l-98 116h122z" />
    <glyph glyph-name="Imacron" unicode="&#x12a;" horiz-adv-x="312" 
d="M226 700v-700h-140v700h140zM312 852v-75h-312v75h312z" />
    <glyph glyph-name="Iogonek" unicode="&#x12e;" horiz-adv-x="312" 
d="M226 700v-700h-21c-37 -22 -49 -51 -49 -73c0 -26 15 -37 34 -37c13 0 23 2 38 6l7 -66c-24 -10 -46 -13 -64 -13c-53 0 -95 25 -95 84c0 44 24 77 51 99h-41v700h140z" />
    <glyph glyph-name="Itilde" unicode="&#x128;" horiz-adv-x="312" 
d="M226 700v-700h-140v700h140zM278 873l44 -20c-20 -63 -55 -96 -105 -96c-22 0 -45 10 -68 21c-21 10 -43 24 -64 24c-29 0 -39 -20 -48 -37l-43 19c19 63 54 96 105 96c20 0 44 -9 68 -21c19 -10 43 -24 64 -24c28 0 38 21 47 38z" />
    <glyph glyph-name="J" unicode="J" horiz-adv-x="546" 
d="M472 700v-465c0 -164 -97 -247 -246 -247c-145 0 -215 108 -222 124l80 76c27 -42 67 -88 136 -88c72 0 112 45 112 133v467h140z" />
    <glyph glyph-name="Jcircumflex" unicode="&#x134;" horiz-adv-x="546" 
d="M472 700v-465c0 -164 -97 -247 -246 -247c-145 0 -215 108 -222 124l80 76c27 -42 67 -88 136 -88c72 0 112 45 112 133v467h140zM462 866l113 -116h-103l-70 74l-69 -74h-104l114 116h119z" />
    <glyph glyph-name="K" unicode="K" 
d="M693 700l-248 -271l259 -429h-172l-188 318l-119 -131v-187h-140v700h140v-337l303 337h165z" />
    <glyph glyph-name="Kcommaaccent" unicode="&#x136;" 
d="M693 700l-248 -271l259 -429h-172l-188 318l-119 -131v-187h-140v700h140v-337l303 337h165zM334 -45h92c-1 -65 -17 -97 -35 -138h-80c10 34 23 68 23 138z" />
    <glyph glyph-name="L" unicode="L" horiz-adv-x="587" 
d="M225 700v-588h344v-112h-484v700h140z" />
    <glyph glyph-name="Lacute" unicode="&#x139;" horiz-adv-x="587" 
d="M225 700v-588h344v-112h-484v700h140zM309 866l-101 -116h-97l76 116h122z" />
    <glyph glyph-name="Lcaron" unicode="&#x13d;" horiz-adv-x="587" 
d="M366 700h91c0 -65 -12 -98 -26 -145h-65v145zM225 700v-588h344v-112h-484v700h140z" />
    <glyph glyph-name="Lcommaaccent" unicode="&#x13b;" horiz-adv-x="587" 
d="M225 700v-588h344v-112h-484v700h140zM271 -45h92c-1 -65 -17 -97 -35 -138h-80c10 34 23 68 23 138z" />
    <glyph glyph-name="Lslash" unicode="&#x141;" horiz-adv-x="587" 
d="M225 700v-306l174 107v-66l-174 -106v-217h344v-112h-484v243l-73 -44v65l73 44v392h140z" />
    <glyph glyph-name="M" unicode="M" horiz-adv-x="954" 
d="M868 700v-700h-140v352l9 187h-2l-195 -476h-126l-195 476h-2l9 -187v-352h-140v700h202l194 -486l187 486h199z" />
    <glyph glyph-name="N" unicode="N" horiz-adv-x="773" 
d="M687 700v-700h-147l-314 485v-485h-140v700h147l314 -474v474h140z" />
    <glyph glyph-name="Nacute" unicode="&#x143;" horiz-adv-x="773" 
d="M687 700v-700h-147l-314 485v-485h-140v700h147l314 -474v474h140zM528 866l-101 -116h-97l76 116h122z" />
    <glyph glyph-name="Ncaron" unicode="&#x147;" horiz-adv-x="773" 
d="M687 700v-700h-147l-314 485v-485h-140v700h147l314 -474v474h140zM561 866l-113 -116h-119l-114 116h104l69 -74l70 74h103z" />
    <glyph glyph-name="Ncommaaccent" unicode="&#x145;" horiz-adv-x="773" 
d="M687 700v-700h-147l-314 485v-485h-140v700h147l314 -474v474h140zM343 -45h92c-1 -65 -17 -97 -35 -138h-80c10 34 23 68 23 138z" />
    <glyph glyph-name="Eng" unicode="&#x14a;" horiz-adv-x="773" 
d="M687 700v-681c0 -134 -109 -184 -214 -197l-28 96c41 8 96 24 96 76v6l-315 484v-484h-140v700h147l314 -473v473h140z" />
    <glyph glyph-name="Ntilde" unicode="&#xd1;" horiz-adv-x="773" 
d="M687 700v-700h-147l-314 485v-485h-140v700h147l314 -474v474h140zM511 873l44 -20c-20 -63 -55 -96 -105 -96c-22 0 -45 10 -68 21c-21 10 -43 24 -64 24c-29 0 -39 -20 -48 -37l-43 19c19 63 54 96 105 96c20 0 44 -9 68 -21c19 -10 43 -24 64 -24c28 0 38 21 47 38z
" />
    <glyph glyph-name="O" unicode="O" horiz-adv-x="805" 
d="M403 712c226 0 362 -149 362 -362c0 -215 -136 -362 -362 -362s-363 147 -363 362c0 213 137 362 363 362zM402 600c-130 0 -214 -92 -214 -251c0 -160 84 -249 214 -249c132 0 215 89 215 249c0 159 -83 251 -215 251z" />
    <glyph glyph-name="Oacute" unicode="&#xd3;" horiz-adv-x="805" 
d="M403 712c226 0 362 -149 362 -362c0 -215 -136 -362 -362 -362s-363 147 -363 362c0 213 137 362 363 362zM402 600c-130 0 -214 -92 -214 -251c0 -160 84 -249 214 -249c132 0 215 89 215 249c0 159 -83 251 -215 251zM530 866l-101 -116h-97l76 116h122z" />
    <glyph glyph-name="Obreve" unicode="&#x14e;" horiz-adv-x="805" 
d="M403 712c226 0 362 -149 362 -362c0 -215 -136 -362 -362 -362s-363 147 -363 362c0 213 137 362 363 362zM402 600c-130 0 -214 -92 -214 -251c0 -160 84 -249 214 -249c132 0 215 89 215 249c0 159 -83 251 -215 251zM474 873l76 -5c-9 -88 -64 -113 -148 -113
s-139 25 -148 113l75 5c7 -43 39 -55 73 -55c33 0 65 12 72 55z" />
    <glyph glyph-name="Ocircumflex" unicode="&#xd4;" horiz-adv-x="805" 
d="M403 712c226 0 362 -149 362 -362c0 -215 -136 -362 -362 -362s-363 147 -363 362c0 213 137 362 363 362zM402 600c-130 0 -214 -92 -214 -251c0 -160 84 -249 214 -249c132 0 215 89 215 249c0 159 -83 251 -215 251zM469 866l113 -116h-103l-70 74l-69 -74h-104
l114 116h119z" />
    <glyph glyph-name="Odieresis" unicode="&#xd6;" horiz-adv-x="805" 
d="M403 712c226 0 362 -149 362 -362c0 -215 -136 -362 -362 -362s-363 147 -363 362c0 213 137 362 363 362zM402 600c-130 0 -214 -92 -214 -251c0 -160 84 -249 214 -249c132 0 215 89 215 249c0 159 -83 251 -215 251zM284 873c43 0 63 -22 63 -58
c0 -37 -20 -59 -63 -59c-41 0 -62 22 -62 59c0 36 21 58 62 58zM518 873c43 0 63 -22 63 -58c0 -37 -20 -59 -63 -59c-40 0 -61 22 -61 59c0 36 21 58 61 58z" />
    <glyph glyph-name="Ograve" unicode="&#xd2;" horiz-adv-x="805" 
d="M403 712c226 0 362 -149 362 -362c0 -215 -136 -362 -362 -362s-363 147 -363 362c0 213 137 362 363 362zM402 600c-130 0 -214 -92 -214 -251c0 -160 84 -249 214 -249c132 0 215 89 215 249c0 159 -83 251 -215 251zM412 866l73 -116h-97l-98 116h122z" />
    <glyph glyph-name="Ohungarumlaut" unicode="&#x150;" horiz-adv-x="805" 
d="M403 712c226 0 362 -149 362 -362c0 -215 -136 -362 -362 -362s-363 147 -363 362c0 213 137 362 363 362zM402 600c-130 0 -214 -92 -214 -251c0 -160 84 -249 214 -249c132 0 215 89 215 249c0 159 -83 251 -215 251zM624 866l-98 -116h-97l72 116h123zM446 866
l-98 -116h-97l72 116h123z" />
    <glyph glyph-name="Omacron" unicode="&#x14c;" horiz-adv-x="805" 
d="M403 712c226 0 362 -149 362 -362c0 -215 -136 -362 -362 -362s-363 147 -363 362c0 213 137 362 363 362zM402 600c-130 0 -214 -92 -214 -251c0 -160 84 -249 214 -249c132 0 215 89 215 249c0 159 -83 251 -215 251zM558 852v-75h-312v75h312z" />
    <glyph glyph-name="Oslash" unicode="&#xd8;" horiz-adv-x="805" 
d="M403 712c65 0 123 -13 172 -35l37 57h86l-62 -94c83 -64 129 -167 129 -290c0 -215 -136 -362 -362 -362c-64 0 -122 12 -170 33l-36 -55h-85l60 92c-85 63 -132 166 -132 292c0 213 137 362 363 362zM402 600c-130 0 -214 -92 -214 -251c0 -78 20 -139 55 -181l265 407
c-30 16 -66 25 -106 25zM617 349c0 76 -19 137 -53 179l-265 -405c30 -15 64 -23 103 -23c132 0 215 89 215 249z" />
    <glyph glyph-name="Oslashacute" unicode="&#x1fe;" horiz-adv-x="805" 
d="M403 712c65 0 123 -13 172 -35l37 57h86l-62 -94c83 -64 129 -167 129 -290c0 -215 -136 -362 -362 -362c-64 0 -122 12 -170 33l-36 -55h-85l60 92c-85 63 -132 166 -132 292c0 213 137 362 363 362zM402 600c-130 0 -214 -92 -214 -251c0 -78 20 -139 55 -181l265 407
c-30 16 -66 25 -106 25zM617 349c0 76 -19 137 -53 179l-265 -405c30 -15 64 -23 103 -23c132 0 215 89 215 249zM532 866l-101 -116h-97l76 116h122z" />
    <glyph glyph-name="Otilde" unicode="&#xd5;" horiz-adv-x="805" 
d="M403 712c226 0 362 -149 362 -362c0 -215 -136 -362 -362 -362s-363 147 -363 362c0 213 137 362 363 362zM402 600c-130 0 -214 -92 -214 -251c0 -160 84 -249 214 -249c132 0 215 89 215 249c0 159 -83 251 -215 251zM524 873l44 -20c-20 -63 -55 -96 -105 -96
c-22 0 -45 10 -68 21c-21 10 -43 24 -64 24c-29 0 -39 -20 -48 -37l-43 19c19 63 54 96 105 96c20 0 44 -9 68 -21c19 -10 43 -24 64 -24c28 0 38 21 47 38z" />
    <glyph glyph-name="OE" unicode="&#x152;" horiz-adv-x="1201" 
d="M1145 700v-110h-370v-193h320v-110h-320v-177h379v-110h-520v71c-58 -51 -136 -83 -230 -83c-226 0 -363 147 -363 362c0 213 137 362 363 362c94 0 172 -32 230 -82v70h511zM404 600c-130 0 -215 -92 -215 -251c0 -160 85 -249 215 -249c131 0 213 89 213 249
c0 159 -82 251 -213 251z" />
    <glyph glyph-name="P" unicode="P" horiz-adv-x="695" 
d="M85 700h348c151 0 236 -115 236 -233c0 -128 -86 -233 -235 -233h-209v-234h-140v700zM395 590h-170v-246h170c76 0 126 49 126 122c0 68 -50 124 -126 124z" />
    <glyph glyph-name="Thorn" unicode="&#xde;" horiz-adv-x="697" 
d="M225 579h220c147 0 224 -107 224 -223c0 -120 -77 -224 -222 -224h-222v-132h-140v700h140v-121zM225 242h190c63 0 105 44 106 113c0 66 -43 114 -106 114h-190v-227z" />
    <glyph glyph-name="Q" unicode="Q" horiz-adv-x="819" 
d="M411 712c226 0 362 -149 362 -362c0 -158 -74 -278 -202 -331c46 -20 114 -42 194 -58l-35 -110c-158 35 -252 106 -310 137h-18c-220 4 -354 150 -354 362c0 213 137 362 363 362zM411 600c-130 0 -215 -92 -215 -251c0 -152 85 -241 215 -241c132 0 214 89 214 241
c0 159 -82 251 -214 251z" />
    <glyph glyph-name="R" unicode="R" horiz-adv-x="705" 
d="M85 700h357c147 0 228 -99 228 -219c0 -94 -52 -169 -143 -201l132 -280h-149l-115 268h-170v-268h-140v700zM415 590h-190v-212h190c66 0 107 46 107 105c0 58 -40 107 -107 107z" />
    <glyph glyph-name="Racute" unicode="&#x154;" horiz-adv-x="705" 
d="M85 700h357c147 0 228 -99 228 -219c0 -94 -52 -169 -143 -201l132 -280h-149l-115 268h-170v-268h-140v700zM415 590h-190v-212h190c66 0 107 46 107 105c0 58 -40 107 -107 107zM470 866l-101 -116h-97l76 116h122z" />
    <glyph glyph-name="Rcaron" unicode="&#x158;" horiz-adv-x="705" 
d="M85 700h357c147 0 228 -99 228 -219c0 -94 -52 -169 -143 -201l132 -280h-149l-115 268h-170v-268h-140v700zM415 590h-190v-212h190c66 0 107 46 107 105c0 58 -40 107 -107 107zM507 866l-113 -116h-119l-114 116h104l69 -74l70 74h103z" />
    <glyph glyph-name="Rcommaaccent" unicode="&#x156;" horiz-adv-x="705" 
d="M85 700h357c147 0 228 -99 228 -219c0 -94 -52 -169 -143 -201l132 -280h-149l-115 268h-170v-268h-140v700zM415 590h-190v-212h190c66 0 107 46 107 105c0 58 -40 107 -107 107zM313 -45h92c-1 -65 -17 -97 -35 -138h-80c10 34 23 68 23 138z" />
    <glyph glyph-name="S" unicode="S" horiz-adv-x="630" 
d="M312 712c94 0 194 -27 258 -58l-40 -107c-18 9 -98 53 -208 53c-92 0 -127 -36 -127 -82c0 -67 73 -83 150 -102c139 -34 247 -74 247 -214c0 -148 -117 -214 -279 -214c-102 0 -211 28 -274 63l37 109c48 -22 128 -58 234 -58c109 0 137 39 137 82c0 64 -64 81 -152 103
c-119 30 -247 64 -247 216c0 148 120 209 264 209z" />
    <glyph glyph-name="Sacute" unicode="&#x15a;" horiz-adv-x="630" 
d="M312 712c94 0 194 -27 258 -58l-40 -107c-18 9 -98 53 -208 53c-92 0 -127 -36 -127 -82c0 -67 73 -83 150 -102c139 -34 247 -74 247 -214c0 -148 -117 -214 -279 -214c-102 0 -211 28 -274 63l37 109c48 -22 128 -58 234 -58c109 0 137 39 137 82c0 64 -64 81 -152 103
c-119 30 -247 64 -247 216c0 148 120 209 264 209zM450 866l-101 -116h-97l76 116h122z" />
    <glyph glyph-name="Scaron" unicode="&#x160;" horiz-adv-x="630" 
d="M312 712c94 0 194 -27 258 -58l-40 -107c-18 9 -98 53 -208 53c-92 0 -127 -36 -127 -82c0 -67 73 -83 150 -102c139 -34 247 -74 247 -214c0 -148 -117 -214 -279 -214c-102 0 -211 28 -274 63l37 109c48 -22 128 -58 234 -58c109 0 137 39 137 82c0 64 -64 81 -152 103
c-119 30 -247 64 -247 216c0 148 120 209 264 209zM492 866l-113 -116h-119l-114 116h104l69 -74l70 74h103z" />
    <glyph glyph-name="Scedilla" unicode="&#x15e;" horiz-adv-x="630" 
d="M312 712c94 0 194 -27 258 -58l-40 -107c-18 9 -98 53 -208 53c-92 0 -127 -36 -127 -82c0 -67 73 -83 150 -102c139 -34 247 -74 247 -214c0 -137 -100 -203 -243 -213l-14 -44c28 1 82 -6 82 -72c0 -61 -49 -80 -109 -80c-32 0 -66 7 -86 17l10 48c12 -5 40 -12 66 -12
c20 0 40 7 40 27c0 29 -35 28 -61 24l-19 27l22 65c-92 5 -185 30 -241 62l37 109c48 -22 128 -58 234 -58c109 0 137 39 137 82c0 64 -64 81 -152 103c-119 30 -247 64 -247 216c0 148 120 209 264 209z" />
    <glyph glyph-name="Scircumflex" unicode="&#x15c;" horiz-adv-x="630" 
d="M312 712c94 0 194 -27 258 -58l-40 -107c-18 9 -98 53 -208 53c-92 0 -127 -36 -127 -82c0 -67 73 -83 150 -102c139 -34 247 -74 247 -214c0 -148 -117 -214 -279 -214c-102 0 -211 28 -274 63l37 109c48 -22 128 -58 234 -58c109 0 137 39 137 82c0 64 -64 81 -152 103
c-119 30 -247 64 -247 216c0 148 120 209 264 209zM382 866l113 -116h-103l-70 74l-69 -74h-104l114 116h119z" />
    <glyph glyph-name="Scommaaccent" unicode="&#x218;" horiz-adv-x="630" 
d="M312 712c94 0 194 -27 258 -58l-40 -107c-18 9 -98 53 -208 53c-92 0 -127 -36 -127 -82c0 -67 73 -83 150 -102c139 -34 247 -74 247 -214c0 -148 -117 -214 -279 -214c-102 0 -211 28 -274 63l37 109c48 -22 128 -58 234 -58c109 0 137 39 137 82c0 64 -64 81 -152 103
c-119 30 -247 64 -247 216c0 148 120 209 264 209zM285 -45h92c-1 -65 -17 -97 -35 -138h-80c10 34 23 68 23 138z" />
    <glyph glyph-name="T" unicode="T" horiz-adv-x="627" 
d="M611 700v-110h-227v-590h-140v590h-228v110h595z" />
    <glyph glyph-name="Tbar" unicode="&#x166;" horiz-adv-x="627" 
d="M611 700v-110h-227v-208h141v-63h-141v-319h-140v319h-141v63h141v208h-228v110h595z" />
    <glyph glyph-name="Tcaron" unicode="&#x164;" horiz-adv-x="627" 
d="M611 700v-110h-227v-590h-140v590h-228v110h595zM486 866l-113 -116h-119l-114 116h104l69 -74l70 74h103z" />
    <glyph glyph-name="Tcommaaccent" unicode="&#x162;" horiz-adv-x="627" 
d="M611 700v-110h-227v-590h-140v590h-228v110h595zM271 -45h92c-1 -65 -17 -97 -35 -138h-80c10 34 23 68 23 138z" />
    <glyph glyph-name="U" unicode="U" horiz-adv-x="725" 
d="M658 700v-440c0 -175 -119 -272 -295 -272c-186 0 -296 108 -296 272v440h140v-445c0 -101 70 -155 157 -155s154 55 154 155v445h140z" />
    <glyph glyph-name="Uacute" unicode="&#xda;" horiz-adv-x="725" 
d="M658 700v-440c0 -175 -119 -272 -295 -272c-186 0 -296 108 -296 272v440h140v-445c0 -101 70 -155 157 -155s154 55 154 155v445h140zM498 866l-101 -116h-97l76 116h122z" />
    <glyph glyph-name="Ubreve" unicode="&#x16c;" horiz-adv-x="725" 
d="M658 700v-440c0 -175 -119 -272 -295 -272c-186 0 -296 108 -296 272v440h140v-445c0 -101 70 -155 157 -155s154 55 154 155v445h140zM435 873l76 -5c-9 -88 -64 -113 -148 -113s-139 25 -148 113l75 5c7 -43 39 -55 73 -55c33 0 65 12 72 55z" />
    <glyph glyph-name="Ucircumflex" unicode="&#xdb;" horiz-adv-x="725" 
d="M658 700v-440c0 -175 -119 -272 -295 -272c-186 0 -296 108 -296 272v440h140v-445c0 -101 70 -155 157 -155s154 55 154 155v445h140zM430 866l113 -116h-103l-70 74l-69 -74h-104l114 116h119z" />
    <glyph glyph-name="Udieresis" unicode="&#xdc;" horiz-adv-x="725" 
d="M658 700v-440c0 -175 -119 -272 -295 -272c-186 0 -296 108 -296 272v440h140v-445c0 -101 70 -155 157 -155s154 55 154 155v445h140zM245 873c43 0 63 -22 63 -58c0 -37 -20 -59 -63 -59c-41 0 -62 22 -62 59c0 36 21 58 62 58zM479 873c43 0 63 -22 63 -58
c0 -37 -20 -59 -63 -59c-40 0 -61 22 -61 59c0 36 21 58 61 58z" />
    <glyph glyph-name="Ugrave" unicode="&#xd9;" horiz-adv-x="725" 
d="M658 700v-440c0 -175 -119 -272 -295 -272c-186 0 -296 108 -296 272v440h140v-445c0 -101 70 -155 157 -155s154 55 154 155v445h140zM373 866l73 -116h-97l-98 116h122z" />
    <glyph glyph-name="Uhungarumlaut" unicode="&#x170;" horiz-adv-x="725" 
d="M658 700v-440c0 -175 -119 -272 -295 -272c-186 0 -296 108 -296 272v440h140v-445c0 -101 70 -155 157 -155s154 55 154 155v445h140zM585 866l-98 -116h-97l72 116h123zM407 866l-98 -116h-97l72 116h123z" />
    <glyph glyph-name="Umacron" unicode="&#x16a;" horiz-adv-x="725" 
d="M658 700v-440c0 -175 -119 -272 -295 -272c-186 0 -296 108 -296 272v440h140v-445c0 -101 70 -155 157 -155s154 55 154 155v445h140zM519 852v-75h-312v75h312z" />
    <glyph glyph-name="Uogonek" unicode="&#x172;" horiz-adv-x="725" 
d="M658 700v-440c0 -131 -67 -219 -174 -254c-45 -26 -61 -54 -61 -79c0 -26 16 -37 34 -37c13 0 23 2 38 6l7 -66c-24 -10 -46 -13 -64 -13c-54 0 -95 25 -95 84c0 39 18 67 42 88c-7 -1 -15 -1 -22 -1c-186 0 -296 108 -296 272v440h140v-445c0 -101 70 -155 157 -155
s154 55 154 155v445h140z" />
    <glyph glyph-name="Uring" unicode="&#x16e;" horiz-adv-x="725" 
d="M658 700v-440c0 -175 -119 -272 -295 -272c-186 0 -296 108 -296 272v440h140v-445c0 -101 70 -155 157 -155s154 55 154 155v445h140zM363 956c62 0 115 -33 115 -105c0 -73 -53 -107 -115 -107s-115 34 -115 107c0 72 53 105 115 105zM362 903c-22 0 -47 -12 -47 -53
c0 -40 25 -53 47 -53s49 13 49 53c0 41 -27 53 -49 53z" />
    <glyph glyph-name="Utilde" unicode="&#x168;" horiz-adv-x="725" 
d="M658 700v-440c0 -175 -119 -272 -295 -272c-186 0 -296 108 -296 272v440h140v-445c0 -101 70 -155 157 -155s154 55 154 155v445h140zM485 873l44 -20c-20 -63 -55 -96 -105 -96c-22 0 -45 10 -68 21c-21 10 -43 24 -64 24c-29 0 -39 -20 -48 -37l-43 19
c19 63 54 96 105 96c20 0 44 -9 68 -21c19 -10 43 -24 64 -24c28 0 38 21 47 38z" />
    <glyph glyph-name="V" unicode="V" horiz-adv-x="689" 
d="M681 700l-256 -700h-161l-256 700h153l184 -540l185 540h151z" />
    <glyph glyph-name="W" unicode="W" horiz-adv-x="1004" 
d="M988 700l-193 -700h-174l-120 489l-118 -489h-173l-194 700h153l82 -318c21 -80 43 -201 49 -222h1l128 536h146l128 -536h2c6 22 27 143 48 223l83 317h152z" />
    <glyph glyph-name="Wacute" unicode="&#x1e82;" horiz-adv-x="1004" 
d="M988 700l-193 -700h-174l-120 489l-118 -489h-173l-194 700h153l82 -318c21 -80 43 -201 49 -222h1l128 536h146l128 -536h2c6 22 27 143 48 223l83 317h152zM657 866l-101 -116h-97l76 116h122z" />
    <glyph glyph-name="Wcircumflex" unicode="&#x174;" horiz-adv-x="1004" 
d="M988 700l-193 -700h-174l-120 489l-118 -489h-173l-194 700h153l82 -318c21 -80 43 -201 49 -222h1l128 536h146l128 -536h2c6 22 27 143 48 223l83 317h152zM570 866l113 -116h-103l-70 74l-69 -74h-104l114 116h119z" />
    <glyph glyph-name="Wdieresis" unicode="&#x1e84;" horiz-adv-x="1004" 
d="M988 700l-193 -700h-174l-120 489l-118 -489h-173l-194 700h153l82 -318c21 -80 43 -201 49 -222h1l128 536h146l128 -536h2c6 22 27 143 48 223l83 317h152zM385 873c43 0 63 -22 63 -58c0 -37 -20 -59 -63 -59c-41 0 -62 22 -62 59c0 36 21 58 62 58zM619 873
c43 0 63 -22 63 -58c0 -37 -20 -59 -63 -59c-40 0 -61 22 -61 59c0 36 21 58 61 58z" />
    <glyph glyph-name="Wgrave" unicode="&#x1e80;" horiz-adv-x="1004" 
d="M988 700l-193 -700h-174l-120 489l-118 -489h-173l-194 700h153l82 -318c21 -80 43 -201 49 -222h1l128 536h146l128 -536h2c6 22 27 143 48 223l83 317h152zM508 866l73 -116h-97l-98 116h122z" />
    <glyph glyph-name="X" unicode="X" horiz-adv-x="699" 
d="M683 700l-244 -338l252 -362h-181l-162 245l-167 -245h-168l247 338l-252 362h176l166 -247l173 247h160z" />
    <glyph glyph-name="Y" unicode="Y" horiz-adv-x="656" 
d="M398 0h-140v271l-253 429h147l176 -312l176 312h147l-253 -429v-271z" />
    <glyph glyph-name="Yacute" unicode="&#xdd;" horiz-adv-x="656" 
d="M398 0h-140v271l-253 429h147l176 -312l176 312h147l-253 -429v-271zM462 866l-101 -116h-97l76 116h122z" />
    <glyph glyph-name="Ycircumflex" unicode="&#x176;" horiz-adv-x="656" 
d="M398 0h-140v271l-253 429h147l176 -312l176 312h147l-253 -429v-271zM395 866l113 -116h-103l-70 74l-69 -74h-104l114 116h119z" />
    <glyph glyph-name="Ydieresis" unicode="&#x178;" horiz-adv-x="656" 
d="M398 0h-140v271l-253 429h147l176 -312l176 312h147l-253 -429v-271zM210 873c43 0 63 -22 63 -58c0 -37 -20 -59 -63 -59c-41 0 -62 22 -62 59c0 36 21 58 62 58zM444 873c43 0 63 -22 63 -58c0 -37 -20 -59 -63 -59c-40 0 -61 22 -61 59c0 36 21 58 61 58z" />
    <glyph glyph-name="Ygrave" unicode="&#x1ef2;" horiz-adv-x="656" 
d="M398 0h-140v271l-253 429h147l176 -312l176 312h147l-253 -429v-271zM338 866l73 -116h-97l-98 116h122z" />
    <glyph glyph-name="Z" unicode="Z" horiz-adv-x="631" 
d="M588 700v-92l-382 -502l185 4h197v-110h-554v91l380 501l-189 -2h-174v110h537z" />
    <glyph glyph-name="Zacute" unicode="&#x179;" horiz-adv-x="631" 
d="M588 700v-92l-382 -502l185 4h197v-110h-554v91l380 501l-189 -2h-174v110h537zM466 866l-101 -116h-97l76 116h122z" />
    <glyph glyph-name="Zcaron" unicode="&#x17d;" horiz-adv-x="631" 
d="M588 700v-92l-382 -502l185 4h197v-110h-554v91l380 501l-189 -2h-174v110h537zM484 866l-113 -116h-119l-114 116h104l69 -74l70 74h103z" />
    <glyph glyph-name="Zdotaccent" unicode="&#x17b;" horiz-adv-x="631" 
d="M588 700v-92l-382 -502l185 4h197v-110h-554v91l380 501l-189 -2h-174v110h537zM310 874c43 0 64 -22 64 -59s-21 -58 -64 -58c-40 0 -62 21 -62 58s22 59 62 59z" />
    <glyph glyph-name="J.alt" horiz-adv-x="348" 
d="M270 700v-596c0 -127 -112 -211 -222 -244l-44 92c25 11 126 56 126 168v471h-74v109h214z" />
    <glyph glyph-name="Jcircumflex.alt" horiz-adv-x="348" 
d="M270 700v-596c0 -127 -112 -211 -222 -244l-44 92c25 11 126 56 126 168v471h-74v109h214zM245 866l113 -116h-103l-70 74l-69 -74h-104l114 116h119z" />
    <glyph glyph-name="a" unicode="a" horiz-adv-x="598" 
d="M294 529c137 0 223 -37 223 -177v-218c0 -28 15 -34 31 -34c7 0 15 1 28 3l7 -91c-16 -6 -56 -16 -92 -16c-57 0 -88 27 -100 65c-24 -36 -75 -70 -173 -70c-117 0 -188 51 -188 158c0 129 99 165 245 165c36 0 75 -3 111 -6v40c0 65 -48 80 -115 80
c-62 0 -132 -13 -185 -28l-19 98c69 21 155 31 227 31zM256 86c71 0 130 36 130 103v36c-38 3 -76 5 -100 5c-90 0 -122 -28 -122 -75c0 -55 43 -69 92 -69z" />
    <glyph glyph-name="aacute" unicode="&#xe1;" horiz-adv-x="598" 
d="M294 529c137 0 223 -37 223 -177v-218c0 -28 15 -34 31 -34c7 0 15 1 28 3l7 -91c-16 -6 -56 -16 -92 -16c-57 0 -88 27 -100 65c-24 -36 -75 -70 -173 -70c-117 0 -188 51 -188 158c0 129 99 165 245 165c36 0 75 -3 111 -6v40c0 65 -48 80 -115 80
c-62 0 -132 -13 -185 -28l-19 98c69 21 155 31 227 31zM256 86c71 0 130 36 130 103v36c-38 3 -76 5 -100 5c-90 0 -122 -28 -122 -75c0 -55 43 -69 92 -69zM446 731l-101 -148h-97l76 148h122z" />
    <glyph glyph-name="abreve" unicode="&#x103;" horiz-adv-x="591" 
d="M294 529c137 0 223 -37 223 -177v-218c0 -28 15 -34 31 -34c7 0 15 1 28 3l7 -91c-16 -6 -56 -16 -92 -16c-57 0 -88 27 -100 65c-24 -36 -75 -70 -173 -70c-117 0 -188 51 -188 158c0 129 99 165 245 165c36 0 75 -3 111 -6v40c0 65 -48 80 -115 80
c-62 0 -132 -13 -185 -28l-19 98c69 21 155 31 227 31zM256 86c71 0 130 36 130 103v36c-38 3 -76 5 -100 5c-90 0 -122 -28 -122 -75c0 -55 43 -69 92 -69zM369 721l75 -8c-12 -89 -57 -125 -148 -125s-137 36 -148 125l74 8c11 -43 28 -69 74 -69s63 26 73 69z" />
    <glyph glyph-name="acircumflex" unicode="&#xe2;" horiz-adv-x="591" 
d="M294 529c137 0 223 -37 223 -177v-218c0 -28 15 -34 31 -34c7 0 15 1 28 3l7 -91c-16 -6 -56 -16 -92 -16c-57 0 -88 27 -100 65c-24 -36 -75 -70 -173 -70c-117 0 -188 51 -188 158c0 129 99 165 245 165c36 0 75 -3 111 -6v40c0 65 -48 80 -115 80
c-62 0 -132 -13 -185 -28l-19 98c69 21 155 31 227 31zM256 86c71 0 130 36 130 103v36c-38 3 -76 5 -100 5c-90 0 -122 -28 -122 -75c0 -55 43 -69 92 -69zM359 732l113 -149h-102l-71 101l-70 -101h-103l114 149h119z" />
    <glyph glyph-name="adieresis" unicode="&#xe4;" horiz-adv-x="591" 
d="M294 529c137 0 223 -37 223 -177v-218c0 -28 15 -34 31 -34c7 0 15 1 28 3l7 -91c-16 -6 -56 -16 -92 -16c-57 0 -88 27 -100 65c-24 -36 -75 -70 -173 -70c-117 0 -188 51 -188 158c0 129 99 165 245 165c36 0 75 -3 111 -6v40c0 65 -48 80 -115 80
c-62 0 -132 -13 -185 -28l-19 98c69 21 155 31 227 31zM256 86c71 0 130 36 130 103v36c-38 3 -76 5 -100 5c-90 0 -122 -28 -122 -75c0 -55 43 -69 92 -69zM173 712c46 0 69 -22 69 -61c0 -38 -23 -61 -69 -61c-42 0 -65 23 -65 61c0 39 23 61 65 61zM408 712
c46 0 68 -22 68 -61c0 -38 -22 -61 -68 -61c-43 0 -65 23 -65 61c0 39 22 61 65 61z" />
    <glyph glyph-name="agrave" unicode="&#xe0;" horiz-adv-x="591" 
d="M294 529c137 0 223 -37 223 -177v-218c0 -28 15 -34 31 -34c7 0 15 1 28 3l7 -91c-16 -6 -56 -16 -92 -16c-57 0 -88 27 -100 65c-24 -36 -75 -70 -173 -70c-117 0 -188 51 -188 158c0 129 99 165 245 165c36 0 75 -3 111 -6v40c0 65 -48 80 -115 80
c-62 0 -132 -13 -185 -28l-19 98c69 21 155 31 227 31zM256 86c71 0 130 36 130 103v36c-38 3 -76 5 -100 5c-90 0 -122 -28 -122 -75c0 -55 43 -69 92 -69zM173 731h122l73 -148h-97z" />
    <glyph glyph-name="amacron" unicode="&#x101;" horiz-adv-x="591" 
d="M294 529c137 0 223 -37 223 -177v-218c0 -28 15 -34 31 -34c7 0 15 1 28 3l7 -91c-16 -6 -56 -16 -92 -16c-57 0 -88 27 -100 65c-24 -36 -75 -70 -173 -70c-117 0 -188 51 -188 158c0 129 99 165 245 165c36 0 75 -3 111 -6v40c0 65 -48 80 -115 80
c-62 0 -132 -13 -185 -28l-19 98c69 21 155 31 227 31zM256 86c71 0 130 36 130 103v36c-38 3 -76 5 -100 5c-90 0 -122 -28 -122 -75c0 -55 43 -69 92 -69zM452 685v-75h-312v75h312z" />
    <glyph glyph-name="aogonek" unicode="&#x105;" horiz-adv-x="598" 
d="M294 529c137 0 223 -37 223 -177v-218c0 -28 15 -34 31 -34c7 0 15 1 28 3l7 -91c-10 -4 -27 -9 -47 -12c-37 -22 -49 -51 -49 -73c0 -26 15 -37 34 -37c13 0 23 2 38 6l7 -66c-24 -10 -46 -13 -64 -13c-53 0 -95 25 -95 84c0 44 23 76 50 99c-36 8 -57 31 -66 61
c-24 -36 -75 -70 -173 -70c-117 0 -188 51 -188 158c0 129 99 165 245 165c36 0 75 -3 111 -6v40c0 65 -48 80 -115 80c-62 0 -132 -13 -185 -28l-19 98c69 21 155 31 227 31zM256 86c71 0 130 36 130 103v36c-38 3 -76 5 -100 5c-90 0 -122 -28 -122 -75
c0 -55 43 -69 92 -69z" />
    <glyph glyph-name="aring" unicode="&#xe5;" horiz-adv-x="591" 
d="M294 529c137 0 223 -37 223 -177v-218c0 -28 15 -34 31 -34c7 0 15 1 28 3l7 -91c-16 -6 -56 -16 -92 -16c-57 0 -88 27 -100 65c-24 -36 -75 -70 -173 -70c-117 0 -188 51 -188 158c0 129 99 165 245 165c36 0 75 -3 111 -6v40c0 65 -48 80 -115 80
c-62 0 -132 -13 -185 -28l-19 98c69 21 155 31 227 31zM256 86c71 0 130 36 130 103v36c-38 3 -76 5 -100 5c-90 0 -122 -28 -122 -75c0 -55 43 -69 92 -69zM294 789c62 0 115 -33 115 -105c0 -73 -53 -107 -115 -107s-115 34 -115 107c0 72 53 105 115 105zM293 736
c-22 0 -47 -12 -47 -53c0 -40 25 -53 47 -53s49 13 49 53c0 41 -27 53 -49 53z" />
    <glyph glyph-name="atilde" unicode="&#xe3;" horiz-adv-x="591" 
d="M294 529c137 0 223 -37 223 -177v-218c0 -28 15 -34 31 -34c7 0 15 1 28 3l7 -91c-16 -6 -56 -16 -92 -16c-57 0 -88 27 -100 65c-24 -36 -75 -70 -173 -70c-117 0 -188 51 -188 158c0 129 99 165 245 165c36 0 75 -3 111 -6v40c0 65 -48 80 -115 80
c-62 0 -132 -13 -185 -28l-19 98c69 21 155 31 227 31zM256 86c71 0 130 36 130 103v36c-38 3 -76 5 -100 5c-90 0 -122 -28 -122 -75c0 -55 43 -69 92 -69zM414 706l44 -20c-20 -63 -55 -96 -105 -96c-22 0 -45 10 -68 21c-21 10 -43 24 -64 24c-29 0 -39 -20 -48 -37
l-43 19c19 63 54 96 105 96c20 0 44 -9 68 -21c19 -10 43 -24 64 -24c28 0 38 21 47 38z" />
    <glyph glyph-name="ae" unicode="&#xe6;" horiz-adv-x="919" 
d="M638 529c153 0 246 -95 246 -251c0 -32 -3 -59 -4 -60h-379c0 -83 63 -126 168 -126c63 0 127 17 174 37l23 -91c-61 -29 -131 -47 -211 -47c-105 0 -184 33 -232 92c-30 -46 -86 -92 -200 -92c-121 0 -195 51 -195 158c0 127 98 165 242 165c35 0 69 -2 101 -5
c1 16 6 34 12 49c-4 57 -50 70 -115 70c-60 0 -131 -13 -184 -28l-19 98c69 21 155 31 228 31c79 0 138 -13 175 -52c42 33 102 52 170 52zM285 231c-91 0 -123 -27 -123 -76c0 -58 42 -74 95 -74c59 0 114 27 123 86c-5 19 -10 35 -10 61c-24 2 -54 3 -85 3zM643 428
c-74 0 -126 -35 -138 -125h255c0 71 -33 125 -117 125z" />
    <glyph glyph-name="aeacute" unicode="&#x1fd;" horiz-adv-x="919" 
d="M638 529c153 0 246 -95 246 -251c0 -32 -3 -59 -4 -60h-379c0 -83 63 -126 168 -126c63 0 127 17 174 37l23 -91c-61 -29 -131 -47 -211 -47c-105 0 -184 33 -232 92c-30 -46 -86 -92 -200 -92c-121 0 -195 51 -195 158c0 127 98 165 242 165c35 0 69 -2 101 -5
c1 16 6 34 12 49c-4 57 -50 70 -115 70c-60 0 -131 -13 -184 -28l-19 98c69 21 155 31 228 31c79 0 138 -13 175 -52c42 33 102 52 170 52zM285 231c-91 0 -123 -27 -123 -76c0 -58 42 -74 95 -74c59 0 114 27 123 86c-5 19 -10 35 -10 61c-24 2 -54 3 -85 3zM643 428
c-74 0 -126 -35 -138 -125h255c0 71 -33 125 -117 125zM617 724l-101 -148h-97l76 148h122z" />
    <glyph glyph-name="b" unicode="b" horiz-adv-x="640" 
d="M197 732v-280c28 39 80 77 173 77c159 0 237 -123 237 -271c0 -142 -74 -267 -237 -267c-77 0 -143 28 -179 84l-12 -75h-113v732h131zM334 428c-77 0 -139 -57 -139 -170c0 -109 62 -166 138 -166c89 0 140 61 140 166c0 109 -50 170 -139 170z" />
    <glyph glyph-name="c" unicode="c" horiz-adv-x="518" 
d="M322 529c70 0 128 -15 166 -35l-31 -90c-25 10 -62 24 -115 24c-123 0 -174 -76 -174 -169c0 -91 49 -167 179 -167c50 0 89 15 118 26l22 -93c-53 -25 -110 -34 -164 -34c-169 0 -289 96 -289 269s120 269 288 269z" />
    <glyph glyph-name="cacute" unicode="&#x107;" horiz-adv-x="518" 
d="M322 529c70 0 128 -15 166 -35l-31 -90c-25 10 -62 24 -115 24c-123 0 -174 -76 -174 -169c0 -91 49 -167 179 -167c50 0 89 15 118 26l22 -93c-53 -25 -110 -34 -164 -34c-169 0 -289 96 -289 269s120 269 288 269zM419 725l-101 -148h-97l76 148h122z" />
    <glyph glyph-name="ccaron" unicode="&#x10d;" horiz-adv-x="509" 
d="M322 529c70 0 128 -15 166 -35l-31 -90c-25 10 -62 24 -115 24c-123 0 -174 -76 -174 -169c0 -91 49 -167 179 -167c50 0 89 15 118 26l22 -93c-53 -25 -110 -34 -164 -34c-169 0 -289 96 -289 269s120 269 288 269zM471 732l-113 -149h-119l-114 149h103l70 -101l71 101
h102z" />
    <glyph glyph-name="ccedilla" unicode="&#xe7;" horiz-adv-x="512" 
d="M322 529c70 0 128 -15 166 -35l-31 -90c-25 10 -62 24 -115 24c-123 0 -174 -76 -174 -169c0 -91 49 -167 179 -167c50 0 89 15 118 26l22 -93c-53 -25 -110 -34 -164 -34h-3l-15 -46c28 1 82 -6 82 -72c0 -61 -49 -80 -109 -80c-32 0 -66 7 -86 17l10 48
c12 -5 40 -12 66 -12c20 0 40 7 40 27c0 29 -35 28 -61 24l-19 27l24 73c-131 23 -218 115 -218 263c0 173 120 269 288 269z" />
    <glyph glyph-name="ccircumflex" unicode="&#x109;" horiz-adv-x="509" 
d="M322 529c70 0 128 -15 166 -35l-31 -90c-25 10 -62 24 -115 24c-123 0 -174 -76 -174 -169c0 -91 49 -167 179 -167c50 0 89 15 118 26l22 -93c-53 -25 -110 -34 -164 -34c-169 0 -289 96 -289 269s120 269 288 269zM352 732l113 -149h-102l-71 101l-70 -101h-103
l114 149h119z" />
    <glyph glyph-name="cdotaccent" unicode="&#x10b;" horiz-adv-x="509" 
d="M322 529c70 0 128 -15 166 -35l-31 -90c-25 10 -62 24 -115 24c-123 0 -174 -76 -174 -169c0 -91 49 -167 179 -167c50 0 89 15 118 26l22 -93c-53 -25 -110 -34 -164 -34c-169 0 -289 96 -289 269s120 269 288 269zM300 713c45 0 72 -20 72 -61c0 -42 -27 -62 -72 -62
c-42 0 -69 20 -69 62c0 41 27 61 69 61z" />
    <glyph glyph-name="d" unicode="d" horiz-adv-x="638" 
d="M574 732v-732h-113l-12 75c-37 -56 -102 -84 -179 -84c-163 0 -237 125 -237 267c0 148 78 271 237 271c93 0 145 -38 173 -78v281h131zM307 428c-90 0 -140 -61 -140 -170c0 -105 51 -166 140 -166c77 0 139 57 139 166c0 113 -62 170 -139 170z" />
    <glyph glyph-name="eth" unicode="&#xf0;" horiz-adv-x="604" 
d="M448 770l28 -42l-70 -48c95 -98 161 -227 161 -388c0 -203 -102 -301 -268 -301c-167 0 -263 101 -263 250c0 157 105 247 238 247c75 0 127 -28 158 -60c-10 42 -26 80 -48 116c-18 28 -39 54 -62 79l-88 -61l-29 40l81 56c-35 33 -74 61 -112 86l81 53
c40 -24 78 -51 113 -82zM300 390c-91 0 -129 -66 -129 -149c0 -80 35 -152 129 -152c91 0 130 64 130 153c0 91 -42 148 -130 148z" />
    <glyph glyph-name="dcaron" unicode="&#x10f;" horiz-adv-x="629" 
d="M614 732h91c0 -65 -12 -98 -26 -145h-65v145zM574 732v-732h-113l-12 75c-37 -56 -102 -84 -179 -84c-163 0 -237 125 -237 267c0 148 78 271 237 271c93 0 145 -38 173 -78v281h131zM307 428c-90 0 -140 -61 -140 -170c0 -105 51 -166 140 -166c77 0 139 57 139 166
c0 113 -62 170 -139 170z" />
    <glyph glyph-name="dcroat" unicode="&#x111;" horiz-adv-x="635" 
d="M574 732v-89h60v-46h-60v-597h-113l-12 75c-37 -56 -102 -84 -179 -84c-163 0 -237 125 -237 267c0 148 78 271 237 271c93 0 145 -38 173 -78v146h-136v46h136v89h131zM307 428c-90 0 -140 -61 -140 -170c0 -105 51 -166 140 -166c77 0 139 57 139 166
c0 113 -62 170 -139 170z" />
    <glyph glyph-name="e" unicode="e" horiz-adv-x="587" 
d="M547 218h-378c1 -89 69 -126 165 -126c65 0 129 20 175 40l23 -94c-60 -29 -130 -47 -211 -47c-187 0 -287 99 -287 266c0 162 100 272 270 272c154 0 247 -94 247 -251c0 -29 -4 -59 -4 -60zM307 428c-70 0 -121 -30 -135 -125h255c0 70 -33 125 -120 125z" />
    <glyph glyph-name="eacute" unicode="&#xe9;" horiz-adv-x="577" 
d="M547 218h-378c1 -89 69 -126 165 -126c65 0 129 20 175 40l23 -94c-60 -29 -130 -47 -211 -47c-187 0 -287 99 -287 266c0 162 100 272 270 272c154 0 247 -94 247 -251c0 -29 -4 -59 -4 -60zM307 428c-70 0 -121 -30 -135 -125h255c0 70 -33 125 -120 125zM416 731
l-101 -148h-97l76 148h122z" />
    <glyph glyph-name="ebreve" unicode="&#x115;" horiz-adv-x="587" 
d="M547 218h-378c1 -89 69 -126 165 -126c65 0 129 20 175 40l23 -94c-60 -29 -130 -47 -211 -47c-187 0 -287 99 -287 266c0 162 100 272 270 272c154 0 247 -94 247 -251c0 -29 -4 -59 -4 -60zM307 428c-70 0 -121 -30 -135 -125h255c0 70 -33 125 -120 125zM372 717
l75 -8c-12 -89 -57 -125 -148 -125s-137 36 -148 125l74 8c11 -43 28 -69 74 -69s63 26 73 69z" />
    <glyph glyph-name="ecaron" unicode="&#x11b;" horiz-adv-x="587" 
d="M547 218h-378c1 -89 69 -126 165 -126c65 0 129 20 175 40l23 -94c-60 -29 -130 -47 -211 -47c-187 0 -287 99 -287 266c0 162 100 272 270 272c154 0 247 -94 247 -251c0 -29 -4 -59 -4 -60zM307 428c-70 0 -121 -30 -135 -125h255c0 70 -33 125 -120 125zM471 728
l-113 -149h-119l-114 149h103l70 -101l71 101h102z" />
    <glyph glyph-name="ecircumflex" unicode="&#xea;" horiz-adv-x="587" 
d="M547 218h-378c1 -89 69 -126 165 -126c65 0 129 20 175 40l23 -94c-60 -29 -130 -47 -211 -47c-187 0 -287 99 -287 266c0 162 100 272 270 272c154 0 247 -94 247 -251c0 -29 -4 -59 -4 -60zM307 428c-70 0 -121 -30 -135 -125h255c0 70 -33 125 -120 125zM366 728
l113 -149h-102l-71 101l-70 -101h-103l114 149h119z" />
    <glyph glyph-name="edieresis" unicode="&#xeb;" horiz-adv-x="587" 
d="M547 218h-378c1 -89 69 -126 165 -126c65 0 129 20 175 40l23 -94c-60 -29 -130 -47 -211 -47c-187 0 -287 99 -287 266c0 162 100 272 270 272c154 0 247 -94 247 -251c0 -29 -4 -59 -4 -60zM307 428c-70 0 -121 -30 -135 -125h255c0 70 -33 125 -120 125zM180 708
c46 0 69 -22 69 -61c0 -38 -23 -61 -69 -61c-42 0 -65 23 -65 61c0 39 23 61 65 61zM415 708c46 0 68 -22 68 -61c0 -38 -22 -61 -68 -61c-43 0 -65 23 -65 61c0 39 22 61 65 61z" />
    <glyph glyph-name="edotaccent" unicode="&#x117;" horiz-adv-x="587" 
d="M547 218h-378c1 -89 69 -126 165 -126c65 0 129 20 175 40l23 -94c-60 -29 -130 -47 -211 -47c-187 0 -287 99 -287 266c0 162 100 272 270 272c154 0 247 -94 247 -251c0 -29 -4 -59 -4 -60zM307 428c-70 0 -121 -30 -135 -125h255c0 70 -33 125 -120 125zM298 709
c45 0 72 -20 72 -61c0 -42 -27 -62 -72 -62c-42 0 -69 20 -69 62c0 41 27 61 69 61z" />
    <glyph glyph-name="egrave" unicode="&#xe8;" horiz-adv-x="587" 
d="M547 218h-378c1 -89 69 -126 165 -126c65 0 129 20 175 40l23 -94c-60 -29 -130 -47 -211 -47c-187 0 -287 99 -287 266c0 162 100 272 270 272c154 0 247 -94 247 -251c0 -29 -4 -59 -4 -60zM307 428c-70 0 -121 -30 -135 -125h255c0 70 -33 125 -120 125zM187 727h122
l73 -148h-97z" />
    <glyph glyph-name="emacron" unicode="&#x113;" horiz-adv-x="587" 
d="M547 218h-378c1 -89 69 -126 165 -126c65 0 129 20 175 40l23 -94c-60 -29 -130 -47 -211 -47c-187 0 -287 99 -287 266c0 162 100 272 270 272c154 0 247 -94 247 -251c0 -29 -4 -59 -4 -60zM307 428c-70 0 -121 -30 -135 -125h255c0 70 -33 125 -120 125zM455 681v-75
h-312v75h312z" />
    <glyph glyph-name="eogonek" unicode="&#x119;" horiz-adv-x="581" 
d="M547 218h-378c1 -89 69 -126 165 -126c65 0 129 20 175 40l23 -94c-19 -9 -39 -17 -60 -24c-50 -27 -59 -59 -59 -87c0 -26 17 -37 36 -37c13 0 23 2 37 6l8 -66c-25 -10 -47 -13 -65 -13c-53 0 -94 25 -94 84c0 42 19 71 44 93c-19 -2 -38 -3 -58 -3
c-187 0 -287 99 -287 266c0 162 100 272 270 272c154 0 247 -94 247 -251c0 -29 -4 -59 -4 -60zM307 428c-70 0 -121 -30 -135 -125h255c0 70 -33 125 -120 125z" />
    <glyph glyph-name="f" unicode="f" horiz-adv-x="388" 
d="M264 741c49 0 93 -8 117 -13l-12 -94c-21 4 -47 8 -74 8c-42 0 -66 -22 -66 -72v-50h137v-93h-137v-427h-131v427h-85v93h85v45c0 113 37 176 166 176z" />
    <glyph glyph-name="g" unicode="g" horiz-adv-x="590" 
d="M292 529c31 0 59 -2 88 -9h186v-89h-77c18 -18 39 -49 39 -97c0 -95 -82 -162 -236 -162c-42 0 -80 4 -112 14c-11 -9 -19 -19 -18 -34c1 -37 52 -44 127 -44h81c97 0 180 -31 180 -128c0 -128 -126 -158 -259 -158c-120 0 -252 22 -252 128c0 48 29 78 62 96
c-31 18 -51 45 -51 85c0 42 22 74 55 95c-32 28 -50 69 -50 124c0 120 91 179 237 179zM293 433c-62 0 -107 -26 -107 -83c0 -60 46 -82 107 -82c62 0 103 26 103 82c0 57 -43 83 -103 83zM302 11c-31 0 -72 0 -111 7c-19 -11 -32 -24 -32 -44c0 -47 53 -55 135 -55
c70 0 131 7 131 52c0 32 -22 40 -70 40h-53z" />
    <glyph glyph-name="gbreve" unicode="&#x11f;" horiz-adv-x="590" 
d="M365 721l75 -8c-12 -89 -57 -125 -148 -125s-137 36 -148 125l74 8c11 -43 28 -69 74 -69s63 26 73 69zM292 529c31 0 59 -2 88 -9h186v-89h-77c18 -18 39 -49 39 -97c0 -95 -82 -162 -236 -162c-42 0 -80 4 -112 14c-11 -9 -19 -19 -18 -34c1 -37 52 -44 127 -44h81
c97 0 180 -31 180 -128c0 -128 -126 -158 -259 -158c-120 0 -252 22 -252 128c0 48 29 78 62 96c-31 18 -51 45 -51 85c0 42 22 74 55 95c-32 28 -50 69 -50 124c0 120 91 179 237 179zM293 433c-62 0 -107 -26 -107 -83c0 -60 46 -82 107 -82c62 0 103 26 103 82
c0 57 -43 83 -103 83zM302 11c-31 0 -72 0 -111 7c-19 -11 -32 -24 -32 -44c0 -47 53 -55 135 -55c70 0 131 7 131 52c0 32 -22 40 -70 40h-53z" />
    <glyph glyph-name="gcircumflex" unicode="&#x11d;" horiz-adv-x="590" 
d="M292 529c31 0 59 -2 88 -9h186v-89h-77c18 -18 39 -49 39 -97c0 -95 -82 -162 -236 -162c-42 0 -80 4 -112 14c-11 -9 -19 -19 -18 -34c1 -37 52 -44 127 -44h81c97 0 180 -31 180 -128c0 -128 -126 -158 -259 -158c-120 0 -252 22 -252 128c0 48 29 78 62 96
c-31 18 -51 45 -51 85c0 42 22 74 55 95c-32 28 -50 69 -50 124c0 120 91 179 237 179zM293 433c-62 0 -107 -26 -107 -83c0 -60 46 -82 107 -82c62 0 103 26 103 82c0 57 -43 83 -103 83zM302 11c-31 0 -72 0 -111 7c-19 -11 -32 -24 -32 -44c0 -47 53 -55 135 -55
c70 0 131 7 131 52c0 32 -22 40 -70 40h-53zM358 732l113 -149h-102l-71 101l-70 -101h-103l114 149h119z" />
    <glyph glyph-name="gcommaaccent" unicode="&#x123;" horiz-adv-x="590" 
d="M327 584h-92c1 65 17 97 35 138h80c-10 -34 -23 -68 -23 -138zM292 529c31 0 59 -2 88 -9h186v-89h-77c18 -18 39 -49 39 -97c0 -95 -82 -162 -236 -162c-42 0 -80 4 -112 14c-11 -9 -19 -19 -18 -34c1 -37 52 -44 127 -44h81c97 0 180 -31 180 -128
c0 -128 -126 -158 -259 -158c-120 0 -252 22 -252 128c0 48 29 78 62 96c-31 18 -51 45 -51 85c0 42 22 74 55 95c-32 28 -50 69 -50 124c0 120 91 179 237 179zM293 433c-62 0 -107 -26 -107 -83c0 -60 46 -82 107 -82c62 0 103 26 103 82c0 57 -43 83 -103 83zM302 11
c-31 0 -72 0 -111 7c-19 -11 -32 -24 -32 -44c0 -47 53 -55 135 -55c70 0 131 7 131 52c0 32 -22 40 -70 40h-53z" />
    <glyph glyph-name="gdotaccent" unicode="&#x121;" horiz-adv-x="590" 
d="M292 529c31 0 59 -2 88 -9h186v-89h-77c18 -18 39 -49 39 -97c0 -95 -82 -162 -236 -162c-42 0 -80 4 -112 14c-11 -9 -19 -19 -18 -34c1 -37 52 -44 127 -44h81c97 0 180 -31 180 -128c0 -128 -126 -158 -259 -158c-120 0 -252 22 -252 128c0 48 29 78 62 96
c-31 18 -51 45 -51 85c0 42 22 74 55 95c-32 28 -50 69 -50 124c0 120 91 179 237 179zM293 433c-62 0 -107 -26 -107 -83c0 -60 46 -82 107 -82c62 0 103 26 103 82c0 57 -43 83 -103 83zM302 11c-31 0 -72 0 -111 7c-19 -11 -32 -24 -32 -44c0 -47 53 -55 135 -55
c70 0 131 7 131 52c0 32 -22 40 -70 40h-53zM288 713c45 0 72 -20 72 -61c0 -42 -27 -62 -72 -62c-42 0 -69 20 -69 62c0 41 27 61 69 61z" />
    <glyph glyph-name="h" unicode="h" horiz-adv-x="613" 
d="M196 732v-286c36 52 87 83 167 83c101 0 189 -39 189 -198v-331h-131v317c0 77 -39 111 -99 111c-87 0 -125 -74 -125 -151v-277h-131v732h130z" />
    <glyph glyph-name="hbar" unicode="&#x127;" horiz-adv-x="602" 
d="M195 732v-89h135v-46h-135v-151c36 52 87 83 167 83c101 0 189 -39 189 -198v-331h-131v317c0 77 -39 111 -99 111c-87 0 -125 -74 -125 -151v-277h-131v597h-66v46h66v89h130z" />
    <glyph glyph-name="hcircumflex" unicode="&#x125;" horiz-adv-x="613" 
d="M196 732v-286c36 52 87 83 167 83c101 0 189 -39 189 -198v-331h-131v317c0 77 -39 111 -99 111c-87 0 -125 -74 -125 -151v-277h-131v732h130zM188 874l113 -116h-103l-70 74l-69 -74h-104l114 116h119z" />
    <glyph glyph-name="i" unicode="i" horiz-adv-x="288" 
d="M144 716c46 0 73 -20 73 -62s-27 -62 -73 -62c-43 0 -70 20 -70 62s27 62 70 62zM219 520v-520h-131v427h-64v93h195z" />
    <glyph glyph-name="dotlessi" unicode="&#x131;" horiz-adv-x="294" 
d="M225 520v-520h-131v427h-64v93h195z" />
    <glyph glyph-name="iacute" unicode="&#xed;" horiz-adv-x="294" 
d="M225 520v-520h-131v427h-64v93h195zM299 731l-101 -148h-97l76 148h122z" />
    <glyph glyph-name="ibreve" unicode="&#x12d;" horiz-adv-x="294" 
d="M225 520v-520h-131v427h-64v93h195zM218 721l75 -8c-12 -89 -57 -125 -148 -125s-137 36 -148 125l74 8c11 -43 28 -69 74 -69s63 26 73 69z" />
    <glyph glyph-name="icircumflex" unicode="&#xee;" horiz-adv-x="294" 
d="M225 520v-520h-131v427h-64v93h195zM212 732l113 -149h-102l-71 101l-70 -101h-103l114 149h119z" />
    <glyph glyph-name="idieresis" unicode="&#xef;" horiz-adv-x="294" 
d="M225 520v-520h-131v427h-64v93h195zM26 712c46 0 69 -22 69 -61c0 -38 -23 -61 -69 -61c-42 0 -65 23 -65 61c0 39 23 61 65 61zM261 712c46 0 68 -22 68 -61c0 -38 -22 -61 -68 -61c-43 0 -65 23 -65 61c0 39 22 61 65 61z" />
    <glyph glyph-name="igrave" unicode="&#xec;" horiz-adv-x="294" 
d="M225 520v-520h-131v427h-64v93h195zM25 731h122l73 -148h-97z" />
    <glyph glyph-name="imacron" unicode="&#x12b;" horiz-adv-x="294" 
d="M225 520v-520h-131v427h-64v93h195zM301 685v-75h-312v75h312z" />
    <glyph glyph-name="iogonek" unicode="&#x12f;" horiz-adv-x="294" 
d="M225 520v-520h-19c-37 -22 -49 -51 -49 -73c0 -26 15 -37 34 -37c13 0 23 2 38 6l7 -66c-24 -10 -46 -13 -64 -13c-53 0 -95 25 -95 84c0 44 24 77 51 99h-34v427h-64v93h195zM148 726c46 0 73 -19 73 -65c0 -47 -28 -66 -73 -66c-42 0 -70 19 -70 66c0 46 27 65 70 65z
" />
    <glyph glyph-name="itilde" unicode="&#x129;" horiz-adv-x="294" 
d="M225 520v-520h-131v427h-64v93h195zM267 706l44 -20c-20 -63 -55 -96 -105 -96c-22 0 -45 10 -68 21c-21 10 -43 24 -64 24c-29 0 -39 -20 -48 -37l-43 19c19 63 54 96 105 96c20 0 44 -9 68 -21c19 -10 43 -24 64 -24c28 0 38 21 47 38z" />
    <glyph glyph-name="j" unicode="j" horiz-adv-x="293" 
d="M224 520v-551c0 -125 -64 -147 -158 -147h-56l1 105h27c42 0 55 14 55 59v441h-71v93h202zM147 716c46 0 73 -20 73 -62s-27 -62 -73 -62c-43 0 -70 20 -70 62s27 62 70 62z" />
    <glyph glyph-name="jcircumflex" unicode="&#x135;" horiz-adv-x="293" 
d="M224 520v-551c0 -125 -64 -147 -158 -147h-56l1 105h27c42 0 55 14 55 59v441h-71v93h202zM203 732l113 -149h-102l-71 101l-70 -101h-103l114 149h119z" />
    <glyph glyph-name="k" unicode="k" horiz-adv-x="561" 
d="M197 732v-441l214 229h144l-191 -203l189 -317h-147l-129 225l-80 -84v-141h-131v732h131z" />
    <glyph glyph-name="kcommaaccent" unicode="&#x137;" horiz-adv-x="561" 
d="M197 732v-441l214 229h144l-191 -203l189 -317h-147l-129 225l-80 -84v-141h-131v732h131zM249 -45h92c-1 -65 -17 -97 -35 -138h-80c10 34 23 68 23 138z" />
    <glyph glyph-name="kgreenlandic" unicode="&#x138;" horiz-adv-x="558" 
d="M560 520l-188 -199l184 -321h-145l-126 229l-84 -88v-141h-131v520h131v-229l215 229h144z" />
    <glyph glyph-name="l" unicode="l" horiz-adv-x="302" 
d="M193 732v-603c0 -31 18 -37 40 -37c16 0 31 1 43 2l4 -94c-27 -6 -52 -9 -93 -9c-88 0 -125 39 -125 114v627h131z" />
    <glyph glyph-name="lacute" unicode="&#x13a;" horiz-adv-x="302" 
d="M193 732v-603c0 -31 18 -37 40 -37c16 0 31 1 43 2l4 -94c-27 -6 -52 -9 -93 -9c-88 0 -125 39 -125 114v627h131zM279 870l-101 -116h-97l76 116h122z" />
    <glyph glyph-name="lcaron" unicode="&#x13e;" horiz-adv-x="321" 
d="M244 732h91c0 -65 -12 -98 -26 -145h-65v145zM193 732v-603c0 -31 18 -37 40 -37c16 0 31 1 43 2l4 -94c-27 -6 -52 -9 -93 -9c-88 0 -125 39 -125 114v627h131z" />
    <glyph glyph-name="lcommaaccent" unicode="&#x13c;" horiz-adv-x="302" 
d="M193 732v-603c0 -31 18 -37 40 -37c16 0 31 1 43 2l4 -94c-27 -6 -52 -9 -93 -9c-88 0 -125 39 -125 114v627h131zM116 -45h92c-1 -65 -17 -97 -35 -138h-80c10 34 23 68 23 138z" />
    <glyph glyph-name="lslash" unicode="&#x142;" horiz-adv-x="347" 
d="M220 732v-330l123 73v-67l-123 -73v-206c0 -31 18 -37 40 -37c16 0 31 1 43 2l4 -94c-27 -6 -52 -9 -93 -9c-88 0 -125 39 -125 114v153l-76 -45v66l76 45v408h131z" />
    <glyph glyph-name="m" unicode="m" horiz-adv-x="906" 
d="M664 529c96 0 180 -47 180 -201v-328h-131v325c0 62 -28 103 -90 103c-81 0 -102 -73 -102 -127v-301h-131v327c0 57 -30 101 -91 101c-68 0 -102 -53 -102 -119v-309h-131v520h114l6 -64c30 42 82 73 152 73c62 0 119 -26 146 -101c32 56 85 101 180 101z" />
    <glyph glyph-name="n" unicode="n" horiz-adv-x="614" 
d="M362 529c101 0 189 -39 189 -198v-331h-131v317c0 77 -39 111 -99 111c-87 0 -125 -74 -125 -151v-277h-131v520h115l8 -81c38 57 90 90 174 90z" />
    <glyph glyph-name="nacute" unicode="&#x144;" horiz-adv-x="614" 
d="M453 731l-101 -148h-97l76 148h122zM362 529c101 0 189 -39 189 -198v-331h-131v317c0 77 -39 111 -99 111c-87 0 -125 -74 -125 -151v-277h-131v520h115l8 -81c38 57 90 90 174 90z" />
    <glyph glyph-name="ncaron" unicode="&#x148;" horiz-adv-x="614" 
d="M362 529c101 0 189 -39 189 -198v-331h-131v317c0 77 -39 111 -99 111c-87 0 -125 -74 -125 -151v-277h-131v520h115l8 -81c38 57 90 90 174 90zM476 732l-113 -149h-119l-114 149h103l70 -101l71 101h102z" />
    <glyph glyph-name="ncommaaccent" unicode="&#x146;" horiz-adv-x="614" 
d="M362 529c101 0 189 -39 189 -198v-331h-131v317c0 77 -39 111 -99 111c-87 0 -125 -74 -125 -151v-277h-131v520h115l8 -81c38 57 90 90 174 90zM264 -45h92c-1 -65 -17 -97 -35 -138h-80c10 34 23 68 23 138z" />
    <glyph glyph-name="eng" unicode="&#x14b;" horiz-adv-x="614" 
d="M362 529c101 0 189 -39 189 -198v-335c0 -115 -97 -168 -194 -187l-24 85c36 12 87 36 87 91v332c0 77 -39 111 -99 111c-87 0 -125 -74 -125 -151v-277h-131v520h115l8 -82c38 58 90 91 174 91z" />
    <glyph glyph-name="ntilde" unicode="&#xf1;" horiz-adv-x="614" 
d="M362 529c101 0 189 -39 189 -198v-331h-131v317c0 77 -39 111 -99 111c-87 0 -125 -74 -125 -151v-277h-131v520h115l8 -81c38 57 90 90 174 90zM426 706l44 -20c-20 -63 -55 -96 -105 -96c-22 0 -45 10 -68 21c-21 10 -43 24 -64 24c-29 0 -39 -20 -48 -37l-43 19
c19 63 54 96 105 96c20 0 44 -9 68 -21c19 -10 43 -24 64 -24c28 0 38 21 47 38z" />
    <glyph glyph-name="o" unicode="o" horiz-adv-x="620" 
d="M310 529c167 0 276 -99 276 -268c0 -170 -110 -270 -276 -270s-276 100 -276 270c0 169 109 268 276 268zM310 428c-90 0 -142 -59 -142 -169c0 -107 52 -167 142 -167s142 60 142 167c0 110 -52 169 -142 169z" />
    <glyph glyph-name="oacute" unicode="&#xf3;" horiz-adv-x="620" 
d="M310 529c167 0 276 -99 276 -268c0 -170 -110 -270 -276 -270s-276 100 -276 270c0 169 109 268 276 268zM310 428c-90 0 -142 -59 -142 -169c0 -107 52 -167 142 -167s142 60 142 167c0 110 -52 169 -142 169zM418 731l-101 -148h-97l76 148h122z" />
    <glyph glyph-name="obreve" unicode="&#x14f;" horiz-adv-x="620" 
d="M310 529c167 0 276 -99 276 -268c0 -170 -110 -270 -276 -270s-276 100 -276 270c0 169 109 268 276 268zM310 428c-90 0 -142 -59 -142 -169c0 -107 52 -167 142 -167s142 60 142 167c0 110 -52 169 -142 169zM383 721l75 -8c-12 -89 -57 -125 -148 -125
s-137 36 -148 125l74 8c11 -43 28 -69 74 -69s63 26 73 69z" />
    <glyph glyph-name="ocircumflex" unicode="&#xf4;" horiz-adv-x="620" 
d="M310 529c167 0 276 -99 276 -268c0 -170 -110 -270 -276 -270s-276 100 -276 270c0 169 109 268 276 268zM310 428c-90 0 -142 -59 -142 -169c0 -107 52 -167 142 -167s142 60 142 167c0 110 -52 169 -142 169zM377 732l113 -149h-102l-71 101l-70 -101h-103l114 149h119
z" />
    <glyph glyph-name="odieresis" unicode="&#xf6;" horiz-adv-x="620" 
d="M310 529c167 0 276 -99 276 -268c0 -170 -110 -270 -276 -270s-276 100 -276 270c0 169 109 268 276 268zM310 428c-90 0 -142 -59 -142 -169c0 -107 52 -167 142 -167s142 60 142 167c0 110 -52 169 -142 169zM191 712c46 0 69 -22 69 -61c0 -38 -23 -61 -69 -61
c-42 0 -65 23 -65 61c0 39 23 61 65 61zM426 712c46 0 68 -22 68 -61c0 -38 -22 -61 -68 -61c-43 0 -65 23 -65 61c0 39 22 61 65 61z" />
    <glyph glyph-name="ograve" unicode="&#xf2;" horiz-adv-x="620" 
d="M310 529c167 0 276 -99 276 -268c0 -170 -110 -270 -276 -270s-276 100 -276 270c0 169 109 268 276 268zM310 428c-90 0 -142 -59 -142 -169c0 -107 52 -167 142 -167s142 60 142 167c0 110 -52 169 -142 169zM198 731h122l73 -148h-97z" />
    <glyph glyph-name="ohungarumlaut" unicode="&#x151;" horiz-adv-x="620" 
d="M310 529c167 0 276 -99 276 -268c0 -170 -110 -270 -276 -270s-276 100 -276 270c0 169 109 268 276 268zM310 428c-90 0 -142 -59 -142 -169c0 -107 52 -167 142 -167s142 60 142 167c0 110 -52 169 -142 169zM344 731l-98 -148h-97l72 148h123zM522 731l-98 -148h-97
l72 148h123z" />
    <glyph glyph-name="omacron" unicode="&#x14d;" horiz-adv-x="620" 
d="M310 529c167 0 276 -99 276 -268c0 -170 -110 -270 -276 -270s-276 100 -276 270c0 169 109 268 276 268zM310 428c-90 0 -142 -59 -142 -169c0 -107 52 -167 142 -167s142 60 142 167c0 110 -52 169 -142 169zM466 685v-75h-312v75h312z" />
    <glyph glyph-name="oslash" unicode="&#xf8;" horiz-adv-x="620" 
d="M310 529c44 0 84 -7 119 -21l30 46h63l-45 -69c69 -45 109 -122 109 -224c0 -170 -110 -270 -276 -270c-52 0 -99 9 -138 28l-34 -53h-62l52 80c-59 46 -94 119 -94 215c0 169 109 268 276 268zM452 259c0 56 -14 99 -39 128l-180 -276c21 -13 47 -19 77 -19
c90 0 142 60 142 167zM310 428c-90 0 -142 -59 -142 -169c0 -46 9 -83 27 -110l175 268c-18 7 -38 11 -60 11z" />
    <glyph glyph-name="oslashacute" unicode="&#x1ff;" horiz-adv-x="620" 
d="M310 529c44 0 84 -7 119 -21l30 46h63l-45 -69c69 -45 109 -122 109 -224c0 -170 -110 -270 -276 -270c-52 0 -99 9 -138 28l-34 -53h-62l52 80c-59 46 -94 119 -94 215c0 169 109 268 276 268zM452 259c0 56 -14 99 -39 128l-180 -276c21 -13 47 -19 77 -19
c90 0 142 60 142 167zM310 428c-90 0 -142 -59 -142 -169c0 -46 9 -83 27 -110l175 268c-18 7 -38 11 -60 11zM438 731l-101 -148h-97l76 148h122z" />
    <glyph glyph-name="otilde" unicode="&#xf5;" horiz-adv-x="620" 
d="M310 529c167 0 276 -99 276 -268c0 -170 -110 -270 -276 -270s-276 100 -276 270c0 169 109 268 276 268zM310 428c-90 0 -142 -59 -142 -169c0 -107 52 -167 142 -167s142 60 142 167c0 110 -52 169 -142 169zM432 706l44 -20c-20 -63 -55 -96 -105 -96
c-22 0 -45 10 -68 21c-21 10 -43 24 -64 24c-29 0 -39 -20 -48 -37l-43 19c19 63 54 96 105 96c20 0 44 -9 68 -21c19 -10 43 -24 64 -24c28 0 38 21 47 38z" />
    <glyph glyph-name="oe" unicode="&#x153;" horiz-adv-x="1010" 
d="M970 218h-378c1 -89 69 -126 165 -126c65 0 129 20 175 40l23 -94c-60 -29 -130 -47 -211 -47c-101 0 -176 28 -224 81c-49 -53 -122 -81 -210 -81c-166 0 -276 100 -276 270c0 169 109 268 276 268c90 0 163 -29 212 -82c46 52 116 82 205 82c154 0 247 -94 247 -251
c0 -29 -4 -59 -4 -60zM310 428c-90 0 -142 -59 -142 -169c0 -107 52 -167 142 -167s142 60 142 167c0 110 -52 169 -142 169zM730 428c-70 0 -121 -30 -135 -125h255c0 70 -33 125 -120 125z" />
    <glyph glyph-name="p" unicode="p" horiz-adv-x="640" 
d="M369 529c163 0 237 -125 237 -267c0 -148 -78 -271 -237 -271c-93 0 -145 37 -173 77v-238h-131v690h113l12 -76c36 56 102 85 179 85zM332 428c-76 0 -138 -57 -138 -166c0 -113 62 -170 139 -170c89 0 139 61 139 170c0 105 -51 166 -140 166z" />
    <glyph glyph-name="thorn" unicode="&#xfe;" horiz-adv-x="641" 
d="M370 529c163 0 237 -125 237 -267c0 -148 -78 -271 -237 -271c-93 0 -144 38 -173 77v-239h-131v871h131v-246c37 50 100 75 173 75zM334 92c89 0 139 61 139 170c0 105 -51 166 -140 166c-76 0 -138 -57 -138 -166c0 -113 62 -170 139 -170z" />
    <glyph glyph-name="q" unicode="q" horiz-adv-x="639" 
d="M271 529c77 0 142 -29 179 -86l12 77h113v-690h-131v239c-28 -40 -80 -78 -173 -78c-159 0 -237 123 -237 271c0 142 74 267 237 267zM308 428c-89 0 -140 -61 -140 -166c0 -109 50 -170 140 -170c77 0 139 57 139 170c0 109 -62 166 -139 166z" />
    <glyph glyph-name="r" unicode="r" horiz-adv-x="389" 
d="M367 520l-5 -129c-115 17 -166 -72 -166 -177v-214h-131v520h108l11 -113c21 56 80 128 183 113z" />
    <glyph glyph-name="racute" unicode="&#x155;" horiz-adv-x="389" 
d="M367 520l-5 -129c-115 17 -166 -72 -166 -177v-214h-131v520h108l11 -113c21 56 80 128 183 113zM340 731l-101 -148h-97l76 148h122z" />
    <glyph glyph-name="rcaron" unicode="&#x159;" horiz-adv-x="389" 
d="M367 520l-5 -129c-115 17 -166 -72 -166 -177v-214h-131v520h108l11 -113c21 56 80 128 183 113zM366 732l-113 -149h-119l-114 149h103l70 -101l71 101h102z" />
    <glyph glyph-name="rcommaaccent" unicode="&#x157;" horiz-adv-x="389" 
d="M367 520l-5 -129c-115 17 -166 -72 -166 -177v-214h-131v520h108l11 -113c21 56 80 128 183 113zM87 -45h92c-1 -65 -17 -97 -35 -138h-80c10 34 23 68 23 138z" />
    <glyph glyph-name="s" unicode="s" horiz-adv-x="492" 
d="M245 529c73 0 147 -17 199 -38l-23 -90c-25 9 -85 32 -156 32c-74 0 -94 -26 -94 -51c0 -47 44 -51 121 -72c84 -23 174 -51 174 -160c0 -114 -101 -159 -216 -159c-88 0 -165 25 -216 46l28 92c27 -12 94 -41 173 -41c76 0 95 26 95 52c0 49 -56 52 -126 71
c-78 21 -169 47 -169 159c0 113 94 159 210 159z" />
    <glyph glyph-name="sacute" unicode="&#x15b;" horiz-adv-x="492" 
d="M245 529c73 0 147 -17 199 -38l-23 -90c-25 9 -85 32 -156 32c-74 0 -94 -26 -94 -51c0 -47 44 -51 121 -72c84 -23 174 -51 174 -160c0 -114 -101 -159 -216 -159c-88 0 -165 25 -216 46l28 92c27 -12 94 -41 173 -41c76 0 95 26 95 52c0 49 -56 52 -126 71
c-78 21 -169 47 -169 159c0 113 94 159 210 159zM371 731l-101 -148h-97l76 148h122z" />
    <glyph glyph-name="scaron" unicode="&#x161;" horiz-adv-x="492" 
d="M245 529c73 0 147 -17 199 -38l-23 -90c-25 9 -85 32 -156 32c-74 0 -94 -26 -94 -51c0 -47 44 -51 121 -72c84 -23 174 -51 174 -160c0 -114 -101 -159 -216 -159c-88 0 -165 25 -216 46l28 92c27 -12 94 -41 173 -41c76 0 95 26 95 52c0 49 -56 52 -126 71
c-78 21 -169 47 -169 159c0 113 94 159 210 159zM425 732l-113 -149h-119l-114 149h103l70 -101l71 101h102z" />
    <glyph glyph-name="scedilla" unicode="&#x15f;" horiz-adv-x="492" 
d="M245 529c73 0 147 -17 199 -38l-23 -90c-25 9 -85 32 -156 32c-74 0 -94 -26 -94 -51c0 -47 44 -51 121 -72c84 -23 174 -51 174 -160c0 -104 -85 -150 -187 -158l-15 -47c28 1 82 -6 82 -72c0 -61 -49 -80 -109 -80c-32 0 -66 7 -86 17l10 48c12 -5 40 -12 66 -12
c20 0 40 7 40 27c0 29 -35 28 -61 24l-19 27l23 69c-72 6 -133 26 -176 44l28 92c27 -12 94 -41 173 -41c76 0 95 26 95 52c0 49 -56 52 -126 71c-78 21 -169 47 -169 159c0 113 94 159 210 159z" />
    <glyph glyph-name="scircumflex" unicode="&#x15d;" horiz-adv-x="492" 
d="M245 529c73 0 147 -17 199 -38l-23 -90c-25 9 -85 32 -156 32c-74 0 -94 -26 -94 -51c0 -47 44 -51 121 -72c84 -23 174 -51 174 -160c0 -114 -101 -159 -216 -159c-88 0 -165 25 -216 46l28 92c27 -12 94 -41 173 -41c76 0 95 26 95 52c0 49 -56 52 -126 71
c-78 21 -169 47 -169 159c0 113 94 159 210 159zM320 732l113 -149h-102l-71 101l-70 -101h-103l114 149h119z" />
    <glyph glyph-name="scommaaccent" unicode="&#x219;" horiz-adv-x="492" 
d="M245 529c73 0 147 -17 199 -38l-23 -90c-25 9 -85 32 -156 32c-74 0 -94 -26 -94 -51c0 -47 44 -51 121 -72c84 -23 174 -51 174 -160c0 -114 -101 -159 -216 -159c-88 0 -165 25 -216 46l28 92c27 -12 94 -41 173 -41c76 0 95 26 95 52c0 49 -56 52 -126 71
c-78 21 -169 47 -169 159c0 113 94 159 210 159zM203 -45h92c-1 -65 -17 -97 -35 -138h-80c10 34 23 68 23 138z" />
    <glyph glyph-name="germandbls" unicode="&#xdf;" horiz-adv-x="611" 
d="M301 712c147 0 213 -74 213 -168c0 -91 -58 -106 -58 -163c0 -91 140 -100 140 -247c0 -96 -61 -161 -188 -161c-57 0 -112 13 -144 26l16 100c14 -6 62 -23 104 -23c51 0 80 26 80 71c0 93 -129 103 -129 216c0 72 62 92 62 161c0 50 -30 85 -90 85
c-73 0 -110 -65 -110 -134v-475h-131v480c0 136 81 232 235 232z" />
    <glyph glyph-name="t" unicode="t" horiz-adv-x="387" 
d="M217 670v-150h141v-93h-141v-267c0 -58 24 -74 61 -74c25 0 64 9 78 14l6 -89c-35 -14 -81 -20 -119 -20c-94 0 -157 35 -157 166v270h-71v93h71l20 150h111z" />
    <glyph glyph-name="tbar" unicode="&#x167;" horiz-adv-x="387" 
d="M217 670v-150h141v-93h-141v-93h141v-46h-141v-128c0 -58 24 -74 61 -74c25 0 64 9 78 14l6 -89c-35 -14 -81 -20 -119 -20c-94 0 -157 35 -157 166v131h-71v46h71v93h-71v93h71l20 150h111z" />
    <glyph glyph-name="tcaron" unicode="&#x165;" horiz-adv-x="387" 
d="M270 725h91c0 -66 -12 -99 -26 -146h-65v146zM217 670v-150h141v-93h-141v-267c0 -58 24 -74 61 -74c25 0 64 9 78 14l6 -89c-35 -14 -81 -20 -119 -20c-94 0 -157 35 -157 166v270h-71v93h71l20 150h111z" />
    <glyph glyph-name="tcommaaccent" unicode="&#x163;" horiz-adv-x="387" 
d="M217 670v-150h141v-93h-141v-267c0 -58 24 -74 61 -74c25 0 64 9 78 14l6 -89c-35 -14 -81 -20 -119 -20c-94 0 -157 35 -157 166v270h-71v93h71l20 150h111zM174 -45h92c-1 -65 -17 -97 -35 -138h-80c10 34 23 68 23 138z" />
    <glyph glyph-name="u" unicode="u" horiz-adv-x="605" 
d="M541 520v-520h-115l-9 81c-37 -57 -89 -90 -173 -90c-101 0 -189 39 -189 198v331h131v-317c0 -77 39 -111 98 -111c88 0 126 74 126 151v277h131z" />
    <glyph glyph-name="uacute" unicode="&#xfa;" horiz-adv-x="605" 
d="M541 520v-520h-115l-9 81c-37 -57 -89 -90 -173 -90c-101 0 -189 39 -189 198v331h131v-317c0 -77 39 -111 98 -111c88 0 126 74 126 151v277h131zM422 731l-101 -148h-97l76 148h122z" />
    <glyph glyph-name="ubreve" unicode="&#x16d;" horiz-adv-x="605" 
d="M541 520v-520h-115l-9 81c-37 -57 -89 -90 -173 -90c-101 0 -189 39 -189 198v331h131v-317c0 -77 39 -111 98 -111c88 0 126 74 126 151v277h131zM370 721l75 -8c-12 -89 -57 -125 -148 -125s-137 36 -148 125l74 8c11 -43 28 -69 74 -69s63 26 73 69z" />
    <glyph glyph-name="ucircumflex" unicode="&#xfb;" horiz-adv-x="605" 
d="M541 520v-520h-115l-9 81c-37 -57 -89 -90 -173 -90c-101 0 -189 39 -189 198v331h131v-317c0 -77 39 -111 98 -111c88 0 126 74 126 151v277h131zM364 732l113 -149h-102l-71 101l-70 -101h-103l114 149h119z" />
    <glyph glyph-name="udieresis" unicode="&#xfc;" horiz-adv-x="605" 
d="M541 520v-520h-115l-9 81c-37 -57 -89 -90 -173 -90c-101 0 -189 39 -189 198v331h131v-317c0 -77 39 -111 98 -111c88 0 126 74 126 151v277h131zM178 712c46 0 69 -22 69 -61c0 -38 -23 -61 -69 -61c-42 0 -65 23 -65 61c0 39 23 61 65 61zM413 712c46 0 68 -22 68 -61
c0 -38 -22 -61 -68 -61c-43 0 -65 23 -65 61c0 39 22 61 65 61z" />
    <glyph glyph-name="ugrave" unicode="&#xf9;" horiz-adv-x="605" 
d="M541 520v-520h-115l-9 81c-37 -57 -89 -90 -173 -90c-101 0 -189 39 -189 198v331h131v-317c0 -77 39 -111 98 -111c88 0 126 74 126 151v277h131zM185 731h122l73 -148h-97z" />
    <glyph glyph-name="uhungarumlaut" unicode="&#x171;" horiz-adv-x="605" 
d="M541 520v-520h-115l-9 81c-37 -57 -89 -90 -173 -90c-101 0 -189 39 -189 198v331h131v-317c0 -77 39 -111 98 -111c88 0 126 74 126 151v277h131zM341 731l-98 -148h-97l72 148h123zM519 731l-98 -148h-97l72 148h123z" />
    <glyph glyph-name="umacron" unicode="&#x16b;" horiz-adv-x="605" 
d="M541 520v-520h-115l-9 81c-37 -57 -89 -90 -173 -90c-101 0 -189 39 -189 198v331h131v-317c0 -77 39 -111 98 -111c88 0 126 74 126 151v277h131zM453 685v-75h-312v75h312z" />
    <glyph glyph-name="uogonek" unicode="&#x173;" horiz-adv-x="605" 
d="M541 520v-520c-37 -22 -49 -51 -49 -73c0 -26 15 -37 34 -37c13 0 23 2 38 6l7 -66c-24 -10 -46 -13 -64 -13c-53 0 -95 25 -95 84c0 44 24 77 51 99h-37l-9 81c-37 -57 -89 -90 -173 -90c-101 0 -189 39 -189 198v331h131v-317c0 -77 39 -111 98 -111
c88 0 126 74 126 151v277h131z" />
    <glyph glyph-name="uring" unicode="&#x16f;" horiz-adv-x="605" 
d="M541 520v-520h-115l-9 81c-37 -57 -89 -90 -173 -90c-101 0 -189 39 -189 198v331h131v-317c0 -77 39 -111 98 -111c88 0 126 74 126 151v277h131zM297 789c62 0 115 -33 115 -105c0 -73 -53 -107 -115 -107s-115 34 -115 107c0 72 53 105 115 105zM296 736
c-22 0 -47 -12 -47 -53c0 -40 25 -53 47 -53s49 13 49 53c0 41 -27 53 -49 53z" />
    <glyph glyph-name="utilde" unicode="&#x169;" horiz-adv-x="605" 
d="M541 520v-520h-115l-9 81c-37 -57 -89 -90 -173 -90c-101 0 -189 39 -189 198v331h131v-317c0 -77 39 -111 98 -111c88 0 126 74 126 151v277h131zM419 706l44 -20c-20 -63 -55 -96 -105 -96c-22 0 -45 10 -68 21c-21 10 -43 24 -64 24c-29 0 -39 -20 -48 -37l-43 19
c19 63 54 96 105 96c20 0 44 -9 68 -21c19 -10 43 -24 64 -24c28 0 38 21 47 38z" />
    <glyph glyph-name="v" unicode="v" horiz-adv-x="551" 
d="M542 520l-191 -520h-152l-190 520h134l134 -399l134 399h131z" />
    <glyph glyph-name="w" unicode="w" horiz-adv-x="839" 
d="M817 520l-144 -520h-148l-106 338l-106 -338h-148l-143 520h136l90 -376l113 371h117l112 -372l92 377h135z" />
    <glyph glyph-name="wacute" unicode="&#x1e83;" horiz-adv-x="839" 
d="M817 520l-144 -520h-148l-106 338l-106 -338h-148l-143 520h136l90 -376l113 371h117l112 -372l92 377h135zM573 731l-101 -148h-97l76 148h122z" />
    <glyph glyph-name="wcircumflex" unicode="&#x175;" horiz-adv-x="839" 
d="M817 520l-144 -520h-148l-106 338l-106 -338h-148l-143 520h136l90 -376l113 371h117l112 -372l92 377h135zM486 732l113 -149h-102l-71 101l-70 -101h-103l114 149h119z" />
    <glyph glyph-name="wdieresis" unicode="&#x1e85;" horiz-adv-x="839" 
d="M817 520l-144 -520h-148l-106 338l-106 -338h-148l-143 520h136l90 -376l113 371h117l112 -372l92 377h135zM300 712c46 0 69 -22 69 -61c0 -38 -23 -61 -69 -61c-42 0 -65 23 -65 61c0 39 23 61 65 61zM535 712c46 0 68 -22 68 -61c0 -38 -22 -61 -68 -61
c-43 0 -65 23 -65 61c0 39 22 61 65 61z" />
    <glyph glyph-name="wgrave" unicode="&#x1e81;" horiz-adv-x="839" 
d="M817 520l-144 -520h-148l-106 338l-106 -338h-148l-143 520h136l90 -376l113 371h117l112 -372l92 377h135zM286 731h122l73 -148h-97z" />
    <glyph glyph-name="x" unicode="x" horiz-adv-x="574" 
d="M546 520l-179 -249l185 -271h-146l-122 183l-126 -183h-136l183 256l-181 264h147l118 -170l123 170h134z" />
    <glyph glyph-name="y" unicode="y" horiz-adv-x="598" 
d="M576 520l-206 -549c-45 -123 -102 -146 -182 -146c-50 0 -78 3 -118 11l5 99c32 -5 57 -8 81 -8c40 0 64 19 78 56l7 18l-219 519h146l142 -371l130 371h136z" />
    <glyph glyph-name="yacute" unicode="&#xfd;" horiz-adv-x="598" 
d="M576 520l-206 -549c-45 -123 -102 -146 -182 -146c-50 0 -78 3 -118 11l5 99c32 -5 57 -8 81 -8c40 0 64 19 78 56l7 18l-219 519h146l142 -371l130 371h136zM439 731l-101 -148h-97l76 148h122z" />
    <glyph glyph-name="ycircumflex" unicode="&#x177;" horiz-adv-x="598" 
d="M576 520l-206 -549c-45 -123 -102 -146 -182 -146c-50 0 -78 3 -118 11l5 99c32 -5 57 -8 81 -8c40 0 64 19 78 56l7 18l-219 519h146l142 -371l130 371h136zM367 732l113 -149h-102l-71 101l-70 -101h-103l114 149h119z" />
    <glyph glyph-name="ydieresis" unicode="&#xff;" horiz-adv-x="598" 
d="M576 520l-206 -549c-45 -123 -102 -146 -182 -146c-50 0 -78 3 -118 11l5 99c32 -5 57 -8 81 -8c40 0 64 19 78 56l7 18l-219 519h146l142 -371l130 371h136zM174 712c46 0 69 -22 69 -61c0 -38 -23 -61 -69 -61c-42 0 -65 23 -65 61c0 39 23 61 65 61zM409 712
c46 0 68 -22 68 -61c0 -38 -22 -61 -68 -61c-43 0 -65 23 -65 61c0 39 22 61 65 61z" />
    <glyph glyph-name="ygrave" unicode="&#x1ef3;" horiz-adv-x="598" 
d="M576 520l-206 -549c-45 -123 -102 -146 -182 -146c-50 0 -78 3 -118 11l5 99c32 -5 57 -8 81 -8c40 0 64 19 78 56l7 18l-219 519h146l142 -371l130 371h136zM182 731h122l73 -148h-97z" />
    <glyph glyph-name="z" unicode="z" horiz-adv-x="525" 
d="M485 520v-103l-300 -328l179 4h121v-93h-445v101l302 329l-196 -3h-99v93h438z" />
    <glyph glyph-name="zacute" unicode="&#x17a;" horiz-adv-x="525" 
d="M485 520v-103l-300 -328l179 4h121v-93h-445v101l302 329l-196 -3h-99v93h438zM380 731l-101 -148h-97l76 148h122z" />
    <glyph glyph-name="zcaron" unicode="&#x17e;" horiz-adv-x="525" 
d="M485 520v-103l-300 -328l179 4h121v-93h-445v101l302 329l-196 -3h-99v93h438zM428 732l-113 -149h-119l-114 149h103l70 -101l71 101h102z" />
    <glyph glyph-name="zdotaccent" unicode="&#x17c;" horiz-adv-x="525" 
d="M485 520v-103l-300 -328l179 4h121v-93h-445v101l302 329l-196 -3h-99v93h438zM255 713c45 0 72 -20 72 -61c0 -42 -27 -62 -72 -62c-42 0 -69 20 -69 62c0 41 27 61 69 61z" />
    <glyph glyph-name="a.alt" horiz-adv-x="639" 
d="M278 529c70 0 136 -26 173 -84l11 75h113v-520h-131v69c-31 -45 -85 -78 -170 -78c-160 0 -240 123 -240 270c0 142 79 268 244 268zM306 428c-86 0 -138 -61 -138 -167c0 -109 52 -169 138 -169c80 0 141 57 141 170c0 109 -61 166 -141 166z" />
    <glyph glyph-name="aacute.alt" horiz-adv-x="639" 
d="M278 529c70 0 136 -26 173 -84l11 75h113v-520h-131v69c-31 -45 -85 -78 -170 -78c-160 0 -240 123 -240 270c0 142 79 268 244 268zM306 428c-86 0 -138 -61 -138 -167c0 -109 52 -169 138 -169c80 0 141 57 141 170c0 109 -61 166 -141 166zM443 731l-101 -148h-97
l76 148h122z" />
    <glyph glyph-name="abreve.alt" horiz-adv-x="639" 
d="M278 529c70 0 136 -26 173 -84l11 75h113v-520h-131v69c-31 -45 -85 -78 -170 -78c-160 0 -240 123 -240 270c0 142 79 268 244 268zM306 428c-86 0 -138 -61 -138 -167c0 -109 52 -169 138 -169c80 0 141 57 141 170c0 109 -61 166 -141 166zM391 721l75 -8
c-12 -89 -57 -125 -148 -125s-137 36 -148 125l74 8c11 -43 28 -69 74 -69s63 26 73 69z" />
    <glyph glyph-name="acircumflex.alt" horiz-adv-x="639" 
d="M278 529c70 0 136 -26 173 -84l11 75h113v-520h-131v69c-31 -45 -85 -78 -170 -78c-160 0 -240 123 -240 270c0 142 79 268 244 268zM306 428c-86 0 -138 -61 -138 -167c0 -109 52 -169 138 -169c80 0 141 57 141 170c0 109 -61 166 -141 166zM396 732l113 -149h-102
l-71 101l-70 -101h-103l114 149h119z" />
    <glyph glyph-name="adieresis.alt" horiz-adv-x="639" 
d="M278 529c70 0 136 -26 173 -84l11 75h113v-520h-131v69c-31 -45 -85 -78 -170 -78c-160 0 -240 123 -240 270c0 142 79 268 244 268zM306 428c-86 0 -138 -61 -138 -167c0 -109 52 -169 138 -169c80 0 141 57 141 170c0 109 -61 166 -141 166zM210 712
c46 0 69 -22 69 -61c0 -38 -23 -61 -69 -61c-42 0 -65 23 -65 61c0 39 23 61 65 61zM445 712c46 0 68 -22 68 -61c0 -38 -22 -61 -68 -61c-43 0 -65 23 -65 61c0 39 22 61 65 61z" />
    <glyph glyph-name="agrave.alt" horiz-adv-x="639" 
d="M278 529c70 0 136 -26 173 -84l11 75h113v-520h-131v69c-31 -45 -85 -78 -170 -78c-160 0 -240 123 -240 270c0 142 79 268 244 268zM306 428c-86 0 -138 -61 -138 -167c0 -109 52 -169 138 -169c80 0 141 57 141 170c0 109 -61 166 -141 166zM217 731h122l73 -148h-97z
" />
    <glyph glyph-name="amacron.alt" horiz-adv-x="639" 
d="M278 529c70 0 136 -26 173 -84l11 75h113v-520h-131v69c-31 -45 -85 -78 -170 -78c-160 0 -240 123 -240 270c0 142 79 268 244 268zM306 428c-86 0 -138 -61 -138 -167c0 -109 52 -169 138 -169c80 0 141 57 141 170c0 109 -61 166 -141 166zM485 685v-75h-312v75h312z
" />
    <glyph glyph-name="aogonek.alt" horiz-adv-x="639" 
d="M278 529c70 0 136 -26 173 -84l11 75h113v-520c-37 -22 -49 -51 -49 -73c0 -26 15 -37 34 -37c13 0 23 2 38 6l7 -66c-24 -10 -46 -13 -64 -13c-53 0 -95 25 -95 84c0 44 24 77 51 99h-53v69c-31 -45 -85 -78 -170 -78c-160 0 -240 123 -240 270c0 142 79 268 244 268z
M306 428c-86 0 -138 -61 -138 -167c0 -109 52 -169 138 -169c80 0 141 57 141 170c0 109 -61 166 -141 166z" />
    <glyph glyph-name="aring.alt" horiz-adv-x="639" 
d="M278 529c70 0 136 -26 173 -84l11 75h113v-520h-131v69c-31 -45 -85 -78 -170 -78c-160 0 -240 123 -240 270c0 142 79 268 244 268zM306 428c-86 0 -138 -61 -138 -167c0 -109 52 -169 138 -169c80 0 141 57 141 170c0 109 -61 166 -141 166zM329 789
c62 0 115 -33 115 -105c0 -73 -53 -107 -115 -107s-115 34 -115 107c0 72 53 105 115 105zM328 736c-22 0 -47 -12 -47 -53c0 -40 25 -53 47 -53s49 13 49 53c0 41 -27 53 -49 53z" />
    <glyph glyph-name="atilde.alt" horiz-adv-x="639" 
d="M278 529c70 0 136 -26 173 -84l11 75h113v-520h-131v69c-31 -45 -85 -78 -170 -78c-160 0 -240 123 -240 270c0 142 79 268 244 268zM306 428c-86 0 -138 -61 -138 -167c0 -109 52 -169 138 -169c80 0 141 57 141 170c0 109 -61 166 -141 166zM451 706l44 -20
c-20 -63 -55 -96 -105 -96c-22 0 -45 10 -68 21c-21 10 -43 24 -64 24c-29 0 -39 -20 -48 -37l-43 19c19 63 54 96 105 96c20 0 44 -9 68 -21c19 -10 43 -24 64 -24c28 0 38 21 47 38z" />
    <glyph glyph-name="g.alt" horiz-adv-x="636" 
d="M274 529c87 0 147 -43 170 -85l11 76h111v-443c0 -188 -113 -253 -271 -253c-76 0 -168 16 -238 53l37 95c65 -29 134 -47 189 -47c91 0 152 45 152 140v32c-30 -49 -95 -76 -162 -76c-114 0 -238 56 -238 253c0 192 124 255 239 255zM305 430c-91 0 -136 -59 -136 -156
c0 -99 46 -155 138 -155c89 0 131 66 131 157c0 87 -42 154 -133 154z" />
    <glyph glyph-name="gbreve.alt" horiz-adv-x="636" 
d="M274 529c87 0 147 -43 170 -85l11 76h111v-443c0 -188 -113 -253 -271 -253c-76 0 -168 16 -238 53l37 95c65 -29 134 -47 189 -47c91 0 152 45 152 140v32c-30 -49 -95 -76 -162 -76c-114 0 -238 56 -238 253c0 192 124 255 239 255zM305 430c-91 0 -136 -59 -136 -156
c0 -99 46 -155 138 -155c89 0 131 66 131 157c0 87 -42 154 -133 154zM394 721l75 -8c-12 -89 -57 -125 -148 -125s-137 36 -148 125l74 8c11 -43 28 -69 74 -69s63 26 73 69z" />
    <glyph glyph-name="gcircumflex.alt" horiz-adv-x="636" 
d="M274 529c87 0 147 -43 170 -85l11 76h111v-443c0 -188 -113 -253 -271 -253c-76 0 -168 16 -238 53l37 95c65 -29 134 -47 189 -47c91 0 152 45 152 140v32c-30 -49 -95 -76 -162 -76c-114 0 -238 56 -238 253c0 192 124 255 239 255zM305 430c-91 0 -136 -59 -136 -156
c0 -99 46 -155 138 -155c89 0 131 66 131 157c0 87 -42 154 -133 154zM388 732l113 -149h-102l-71 101l-70 -101h-103l114 149h119z" />
    <glyph glyph-name="gcommaaccent.alt" horiz-adv-x="636" 
d="M274 529c87 0 147 -43 170 -85l11 76h111v-443c0 -188 -113 -253 -271 -253c-76 0 -168 16 -238 53l37 95c65 -29 134 -47 189 -47c91 0 152 45 152 140v32c-30 -49 -95 -76 -162 -76c-114 0 -238 56 -238 253c0 192 124 255 239 255zM305 430c-91 0 -136 -59 -136 -156
c0 -99 46 -155 138 -155c89 0 131 66 131 157c0 87 -42 154 -133 154zM326 583h-92c1 65 17 97 35 138h80c-10 -34 -23 -68 -23 -138z" />
    <glyph glyph-name="gdotaccent.alt" horiz-adv-x="636" 
d="M274 529c87 0 147 -43 170 -85l11 76h111v-443c0 -188 -113 -253 -271 -253c-76 0 -168 16 -238 53l37 95c65 -29 134 -47 189 -47c91 0 152 45 152 140v32c-30 -49 -95 -76 -162 -76c-114 0 -238 56 -238 253c0 192 124 255 239 255zM305 430c-91 0 -136 -59 -136 -156
c0 -99 46 -155 138 -155c89 0 131 66 131 157c0 87 -42 154 -133 154zM320 713c45 0 72 -20 72 -61c0 -42 -27 -62 -72 -62c-42 0 -69 20 -69 62c0 41 27 61 69 61z" />
    <glyph glyph-name="j.alt" horiz-adv-x="292" 
d="M224 520v-469c0 -158 -145 -206 -191 -221l-47 87c13 8 107 42 107 124v386h-71v93h202zM143 716c46 0 73 -20 73 -62s-27 -62 -73 -62c-43 0 -70 20 -70 62s27 62 70 62z" />
    <glyph glyph-name="jcircumflex.alt" horiz-adv-x="292" 
d="M224 520v-469c0 -158 -145 -206 -191 -221l-47 87c13 8 107 42 107 124v386h-71v93h202zM196 732l113 -149h-102l-71 101l-70 -101h-103l114 149h119z" />
    <glyph glyph-name="germandbls.case" unicode="&#x1e9e;" horiz-adv-x="733" 
d="M357 713c108 0 209 -36 298 -96c-33 -43 -105 -127 -105 -202c0 -105 140 -99 140 -251c0 -137 -112 -185 -236 -185c-56 0 -114 10 -160 25l18 102c33 -13 81 -25 127 -25c68 0 112 27 112 90c0 97 -115 98 -115 229c0 83 47 146 64 170c-36 17 -79 34 -136 34
c-110 0 -152 -64 -152 -163v-441h-140v439c0 185 116 274 285 274z" />
    <glyph glyph-name="f_b" horiz-adv-x="983" 
d="M318 741c117 0 222 -58 222 -195v-96c28 40 80 79 173 79c159 0 237 -123 237 -271c0 -142 -74 -267 -236 -267c-78 0 -144 28 -180 85l-12 -76h-113v545c0 74 -51 97 -91 97s-89 -22 -89 -93v-29h96v-93h-96v-427h-131v427h-85v93h85v24c0 117 86 197 220 197zM677 428
c-77 0 -139 -57 -139 -170c0 -109 62 -166 138 -166c89 0 140 61 140 166c0 109 -50 170 -139 170z" />
    <glyph glyph-name="f_f_b" horiz-adv-x="1276" 
d="M612 748c117 0 222 -58 222 -195v-101c28 39 80 77 172 77c160 0 237 -123 237 -271c0 -142 -73 -267 -236 -267c-77 0 -144 27 -179 84l-13 -75h-112v552c0 74 -51 97 -91 97c-41 0 -90 -26 -90 -97v-32h96v-93h-96v-427h-131v427h-162v-427h-131v427h-85v93h85v45
c0 112 38 176 164 176c18 0 55 -4 76 -9l-13 -94c-16 2 -26 4 -41 4c-38 0 -55 -19 -55 -67v-55h162v31c0 117 86 197 221 197zM970 428c-77 0 -139 -57 -139 -170c0 -109 62 -166 138 -166c89 0 140 61 140 166c0 109 -50 170 -139 170z" />
    <glyph glyph-name="f_f_h" horiz-adv-x="1249" 
d="M612 748c117 0 221 -57 221 -195v-107c36 52 87 83 167 83c101 0 188 -39 188 -198v-331h-131v317c0 77 -39 111 -99 111c-86 0 -124 -74 -124 -151v-277h-131v555c0 71 -52 94 -91 94c-41 0 -90 -24 -90 -94v-35h96v-93h-96v-427h-131v427h-162v-427h-131v427h-85v93h85
v45c0 112 38 176 164 176c18 0 55 -4 76 -9l-13 -94c-16 2 -26 4 -41 4c-38 0 -55 -19 -55 -67v-55h162v31c0 117 86 197 221 197z" />
    <glyph glyph-name="f_f_k" horiz-adv-x="1198" 
d="M612 748c117 0 222 -58 222 -195v-262l214 229h144l-191 -203l188 -317h-146l-129 225l-80 -84v-141h-131v555c0 71 -51 94 -91 94c-41 0 -90 -24 -90 -94v-35h96v-93h-96v-427h-131v427h-162v-427h-131v427h-85v93h85v45c0 112 37 176 164 176c18 0 55 -4 76 -9l-13 -94
c-16 2 -26 4 -41 4c-38 0 -55 -19 -55 -67v-55h162v31c0 117 86 197 221 197z" />
    <glyph glyph-name="f_h" horiz-adv-x="958" 
d="M707 529c101 0 188 -39 188 -198v-331h-131v317c0 77 -39 111 -99 111c-86 0 -125 -74 -125 -151v-277h-131v548c0 70 -51 94 -91 94s-89 -23 -89 -94v-28h96v-93h-96v-427h-131v427h-85v93h85v24c0 117 86 197 220 197c118 0 222 -58 222 -195v-98c37 51 88 81 167 81z
" />
    <glyph glyph-name="f_k" horiz-adv-x="905" 
d="M318 741c117 0 222 -58 222 -195v-255l215 229h144l-192 -203l188 -317h-146l-129 225l-80 -84v-141h-131v548c0 72 -51 94 -91 94s-89 -23 -89 -94v-28h96v-93h-96v-427h-131v427h-85v93h85v24c0 117 86 197 220 197z" />
    <glyph glyph-name="ordfeminine" unicode="&#xaa;" horiz-adv-x="498" 
d="M249 725c96 0 141 -44 141 -124v-161c0 -13 6 -18 17 -18c5 0 18 1 19 2v-70c-12 -4 -35 -9 -58 -9c-31 0 -65 11 -65 51c-17 -28 -51 -52 -105 -52c-74 0 -126 34 -126 111c0 80 62 116 156 116c16 0 45 -1 70 -4v19c0 47 -25 62 -72 62c-43 0 -86 -8 -112 -16l-17 72
c38 11 98 21 152 21zM424 281v-79h-352v79h352zM242 517c-31 0 -83 -8 -83 -57c0 -35 26 -55 57 -55c44 0 81 26 81 77v31c-10 2 -36 4 -55 4z" />
    <glyph glyph-name="ordmasculine" unicode="&#xba;" horiz-adv-x="529" 
d="M264 725c118 0 192 -71 192 -192c0 -117 -78 -185 -192 -185c-113 0 -192 68 -192 185c0 121 75 192 192 192zM457 281v-79h-384v79h384zM265 641c-59 0 -94 -39 -94 -103c0 -63 30 -106 94 -106s92 43 92 106c0 64 -33 103 -92 103z" />
    <glyph glyph-name="mu" unicode="&#xb5;" horiz-adv-x="627" 
d="M565 520v-520h-97l-18 72c-19 -41 -63 -84 -130 -84c-50 0 -97 18 -116 55v-213h-126v690h131v-310c0 -69 38 -118 115 -118c74 0 110 56 110 115v313h131z" />
    <glyph glyph-name="zero" unicode="0" horiz-adv-x="709" 
d="M354 -12c-180 0 -302 134 -302 360c0 227 123 364 304 364c178 0 300 -134 300 -360c0 -227 -123 -364 -302 -364zM356 100c100 0 159 80 159 248c0 170 -61 252 -161 252c-99 0 -161 -82 -161 -250c0 -169 62 -250 163 -250z" />
    <glyph glyph-name="one" unicode="1" horiz-adv-x="403" 
d="M314 700v-700h-132v565l-124 -63l-47 96l201 102h102z" />
    <glyph glyph-name="two" unicode="2" horiz-adv-x="581" 
d="M286 712c146 0 249 -84 249 -221c0 -110 -64 -172 -158 -253l-142 -124h299v-114h-481v104l245 216c60 55 96 97 96 162c0 67 -41 118 -129 118c-68 0 -143 -31 -183 -54l-43 100c70 41 160 66 247 66z" />
    <glyph glyph-name="three" unicode="3" horiz-adv-x="599" 
d="M287 712c141 0 241 -68 241 -187c0 -64 -29 -130 -114 -160c80 -18 139 -83 139 -176c0 -135 -124 -201 -281 -201c-99 0 -179 26 -228 54l41 100c34 -17 96 -42 173 -42s155 27 155 108c0 86 -87 112 -166 112h-61v99h62c70 0 145 15 145 87c0 70 -71 92 -133 92
c-57 0 -123 -18 -161 -35l-36 100c28 13 122 49 224 49z" />
    <glyph glyph-name="four" unicode="4" horiz-adv-x="624" 
d="M511 700v-444h77v-103h-77v-153h-132v153h-349v97l359 450h122zM164 256h215v265z" />
    <glyph glyph-name="five" unicode="5" horiz-adv-x="599" 
d="M523 700v-110h-325l-9 -169c34 19 83 30 141 30c152 0 231 -98 231 -218c0 -142 -96 -245 -273 -245c-120 0 -200 34 -249 63l46 100c41 -22 100 -54 183 -54s149 42 149 130c0 77 -44 126 -128 126c-60 0 -101 -26 -128 -46l-86 54l24 339h424z" />
    <glyph glyph-name="six" unicode="6" horiz-adv-x="667" 
d="M371 712c98 0 183 -27 239 -62l-50 -93c-44 25 -106 45 -174 45c-67 0 -114 -24 -144 -62c-32 -38 -49 -92 -53 -156c0 -8 -1 -16 -1 -23c37 55 104 92 199 92c134 0 234 -76 234 -226c0 -155 -119 -239 -273 -239c-121 0 -203 49 -247 128c-33 58 -50 132 -50 221
c0 117 32 216 94 282c52 58 127 93 226 93zM341 353c-91 0 -137 -63 -137 -132c0 -78 55 -129 136 -129c85 0 137 52 137 132c0 76 -45 129 -136 129z" />
    <glyph glyph-name="seven" unicode="7" horiz-adv-x="541" 
d="M516 700v-108l-256 -592h-154l264 582h-341v118h487z" />
    <glyph glyph-name="eight" unicode="8" horiz-adv-x="644" 
d="M321 712c145 0 249 -68 249 -186c0 -90 -59 -137 -118 -156c76 -23 147 -74 147 -180c0 -137 -120 -202 -276 -202s-280 64 -280 203c0 102 66 155 147 180c-59 19 -117 65 -117 155c0 119 104 186 248 186zM321 314c-81 0 -142 -40 -142 -115s73 -106 142 -106
c70 0 142 31 142 106s-60 115 -142 115zM322 607c-73 0 -122 -35 -122 -95c0 -55 43 -96 122 -96s121 41 121 96c0 60 -48 95 -121 95z" />
    <glyph glyph-name="nine" unicode="9" horiz-adv-x="695" 
d="M336 712c131 0 214 -58 257 -150c25 -53 37 -122 37 -199c0 -117 -30 -216 -93 -283c-51 -57 -129 -92 -227 -92c-99 0 -184 27 -239 62l49 93c44 -24 106 -45 174 -45c67 0 116 24 147 62c32 37 47 92 51 156v22c-36 -56 -102 -91 -199 -91c-133 0 -233 76 -233 226
c0 155 122 239 276 239zM341 608c-86 0 -137 -52 -137 -132c0 -75 45 -129 136 -129c92 0 138 63 138 132c0 77 -54 129 -137 129z" />
    <glyph glyph-name="zero.tnum" 
d="M356 -12c-179 0 -303 134 -303 361c0 226 125 363 305 363c177 0 301 -136 301 -360c0 -227 -124 -364 -303 -364zM357 100c102 0 161 80 161 249c0 167 -61 251 -162 251s-162 -82 -162 -250c0 -169 61 -250 163 -250z" />
    <glyph glyph-name="one.tnum" 
d="M444 700v-599h177v-101h-500v101h188v467l-153 -65l-47 96l231 101h104z" />
    <glyph glyph-name="two.tnum" 
d="M135 544l-38 104c68 38 169 64 251 64c143 0 255 -74 255 -216c0 -119 -78 -182 -168 -254l-164 -128h334v-114h-507v104l260 221c54 50 100 94 100 158c0 63 -40 117 -138 117c-72 0 -149 -37 -185 -56z" />
    <glyph glyph-name="three.tnum" 
d="M348 712c153 0 254 -68 254 -187c0 -64 -29 -130 -130 -160c96 -19 154 -85 154 -175c0 -136 -123 -202 -293 -202c-102 0 -187 26 -238 54l41 100c34 -17 102 -42 184 -42c81 0 159 25 159 111c0 81 -79 109 -166 111h-63v94h56c80 0 154 18 154 90c0 70 -72 91 -141 91
c-59 0 -130 -17 -169 -34l-36 100c30 14 128 49 234 49z" />
    <glyph glyph-name="four.tnum" 
d="M567 700v-444h78v-103h-78v-153h-132v153h-368v96l377 451h123zM200 256h235v276z" />
    <glyph glyph-name="five.tnum" 
d="M581 700v-110h-331l-9 -169c35 20 84 30 144 30c154 0 234 -97 234 -217c0 -142 -96 -246 -277 -246c-119 0 -202 34 -251 63l46 100c41 -22 102 -54 185 -54c87 0 153 45 153 132c0 77 -49 124 -133 124c-60 0 -103 -27 -129 -46l-86 54l24 339h430z" />
    <glyph glyph-name="six.tnum" 
d="M396 712c99 0 183 -27 239 -62l-50 -93c-44 25 -105 45 -173 45c-67 0 -113 -24 -143 -62c-32 -38 -48 -92 -53 -156c0 -8 -1 -16 -1 -24c37 57 103 93 199 93c131 0 232 -76 232 -226c0 -155 -120 -239 -275 -239c-111 0 -184 42 -231 110c-41 58 -62 141 -62 239
c0 117 32 216 94 282c52 58 126 93 224 93zM366 353c-91 0 -136 -63 -136 -132c0 -78 54 -129 135 -129c85 0 137 49 137 132c0 74 -45 129 -136 129z" />
    <glyph glyph-name="seven.tnum" 
d="M632 700v-108l-301 -592h-155l310 582h-387v118h533z" />
    <glyph glyph-name="eight.tnum" 
d="M357 712c146 0 251 -67 251 -186c0 -84 -53 -135 -130 -157c96 -24 159 -84 159 -179c0 -138 -122 -202 -280 -202c-159 0 -281 64 -281 202c0 96 63 156 161 180c-78 21 -132 72 -132 156c0 119 104 186 252 186zM357 314c-79 0 -138 -39 -138 -113
c0 -78 73 -108 138 -108c66 0 138 30 138 107c0 76 -60 114 -138 114zM357 607c-70 0 -118 -36 -118 -95c0 -57 42 -96 117 -96c76 0 118 39 118 96c0 59 -47 95 -117 95z" />
    <glyph glyph-name="nine.tnum" 
d="M346 712c107 0 180 -40 225 -103c46 -58 69 -142 69 -246c0 -117 -30 -216 -92 -283c-52 -57 -129 -92 -227 -92s-183 27 -239 62l50 93c44 -25 105 -45 173 -45c67 0 116 24 146 62c32 37 47 92 51 156v21c-35 -55 -103 -90 -199 -90c-131 0 -232 77 -232 225
c0 156 121 240 275 240zM352 608c-85 0 -137 -49 -137 -133c0 -73 45 -128 136 -128c92 0 137 63 137 132c0 78 -54 129 -136 129z" />
    <glyph glyph-name="fraction" unicode="&#x2044;" horiz-adv-x="415" 
d="M409 700l-297 -700h-106l297 700h106z" />
    <glyph glyph-name="asterisk" unicode="*" horiz-adv-x="442" 
d="M261 752l-14 -121l97 74l41 -71l-112 -47l112 -48l-41 -71l-97 74l14 -120h-79l14 120l-97 -74l-41 71l111 48l-111 47l41 71l97 -74l-14 121h79z" />
    <glyph glyph-name="backslash" unicode="\" horiz-adv-x="502" 
d="M33 732h108l329 -769h-108z" />
    <glyph glyph-name="bullet" unicode="&#x2022;" horiz-adv-x="447" 
d="M224 462c67 0 121 -41 121 -118c0 -76 -54 -117 -121 -117c-69 0 -122 42 -122 117s53 118 122 118z" />
    <glyph glyph-name="colon" unicode=":" horiz-adv-x="273" 
d="M136 462c42 0 71 -25 71 -65c0 -44 -30 -66 -71 -66c-40 0 -68 21 -68 66c0 40 28 65 68 65zM136 118c42 0 71 -26 71 -66c0 -43 -30 -66 -71 -66c-40 0 -68 22 -68 66c0 40 28 66 68 66z" />
    <glyph glyph-name="comma" unicode="," horiz-adv-x="274" 
d="M134 112c47 0 81 -37 81 -99c0 -79 -57 -129 -116 -157l-27 43c39 20 78 53 79 103c-5 -8 -13 -15 -29 -15c-36 0 -58 21 -58 59s26 66 70 66z" />
    <glyph glyph-name="ellipsis" unicode="&#x2026;" horiz-adv-x="717" 
d="M588 118c42 0 71 -26 71 -66c0 -43 -30 -66 -71 -66c-40 0 -68 22 -68 66c0 40 28 66 68 66zM130 118c42 0 71 -26 71 -66c0 -43 -30 -66 -71 -66c-40 0 -68 22 -68 66c0 40 28 66 68 66zM359 118c42 0 71 -26 71 -66c0 -43 -30 -66 -71 -66c-40 0 -68 22 -68 66
c0 40 28 66 68 66z" />
    <glyph glyph-name="exclam" unicode="!" horiz-adv-x="299" 
d="M224 701l-20 -483h-107l-21 483h148zM148 122c42 0 72 -20 72 -67c0 -49 -30 -67 -72 -67c-43 0 -73 18 -73 67c0 47 30 67 73 67z" />
    <glyph glyph-name="exclamdown" unicode="&#xa1;" horiz-adv-x="298" 
d="M204 299l19 -483h-148l21 483h108zM148 529c42 0 73 -19 73 -67c0 -47 -31 -67 -73 -67c-43 0 -73 20 -73 67c0 48 30 67 73 67z" />
    <glyph glyph-name="numbersign" unicode="#" horiz-adv-x="791" 
d="M702 263l-20 -110h-119l-27 -153h-111l27 153h-172l-27 -153h-116l28 153h-120l21 110h119l30 167h-120l19 110h121l30 160h112l-29 -160h172l28 160h112l-29 -160h120l-20 -110h-119l-30 -167h120zM329 430l-30 -167h172l29 167h-171z" />
    <glyph glyph-name="period" unicode="." horiz-adv-x="263" 
d="M130 118c41 0 70 -25 70 -66c0 -43 -29 -66 -70 -66c-40 0 -68 22 -68 66c0 41 28 66 68 66z" />
    <glyph glyph-name="periodcentered" unicode="&#xb7;" horiz-adv-x="290" 
d="M144 388c55 0 86 -39 86 -85c0 -47 -31 -87 -86 -87c-52 0 -84 40 -84 87c0 46 32 85 84 85z" />
    <glyph glyph-name="question" unicode="?" horiz-adv-x="503" 
d="M239 712c105 0 219 -52 219 -181c0 -162 -182 -155 -182 -261v-52h-109v56c0 139 161 141 161 245c0 55 -44 80 -98 80c-59 0 -118 -30 -147 -47l-43 97c45 32 117 63 199 63zM225 122c42 0 73 -20 73 -67c0 -48 -31 -67 -73 -67c-43 0 -73 19 -73 67c0 47 30 67 73 67z
" />
    <glyph glyph-name="questiondown" unicode="&#xbf;" horiz-adv-x="503" 
d="M337 299v-56c0 -139 -163 -141 -163 -245c0 -54 45 -80 99 -80c59 0 118 30 148 47l42 -98c-45 -31 -117 -62 -198 -62c-106 0 -220 52 -220 181c0 162 182 155 182 261v52h110zM279 529c42 0 73 -19 73 -67c0 -47 -31 -67 -73 -67c-43 0 -73 20 -73 67c0 48 30 67 73 67
z" />
    <glyph glyph-name="quotedbl" unicode="&#x22;" horiz-adv-x="487" 
d="M419 700l-57 -290h-75v290h132zM208 700l-56 -290h-75l-1 290h132z" />
    <glyph glyph-name="quotesingle" unicode="'" horiz-adv-x="278" 
d="M208 700l-56 -290h-75l-1 290h132z" />
    <glyph glyph-name="semicolon" unicode=";" horiz-adv-x="299" 
d="M147 112c48 0 81 -37 81 -99c0 -79 -56 -129 -116 -159l-27 44c39 20 77 54 79 105c-5 -9 -13 -16 -29 -16c-36 0 -58 21 -58 59s26 66 70 66zM147 462c42 0 71 -26 71 -66c0 -43 -30 -66 -71 -66c-40 0 -68 22 -68 66c0 40 28 66 68 66z" />
    <glyph glyph-name="slash" unicode="/" horiz-adv-x="480" 
d="M470 733l-386 -903h-108l385 903h109z" />
    <glyph glyph-name="underscore" unicode="_" horiz-adv-x="597" 
d="M530 -55v-92h-464v92h464z" />
    <glyph glyph-name="exclamdown.case" horiz-adv-x="298" 
d="M204 484l19 -484h-148l21 484h108zM148 713c42 0 73 -19 73 -67c0 -46 -31 -66 -73 -66c-43 0 -73 20 -73 66c0 48 30 67 73 67z" />
    <glyph glyph-name="questiondown.case" horiz-adv-x="503" 
d="M332 483v-57c0 -139 -163 -141 -163 -244c0 -55 45 -81 99 -81c59 0 118 30 148 48l42 -98c-45 -31 -117 -62 -198 -62c-106 0 -220 52 -220 180c0 163 182 155 182 261v53h110zM274 713c42 0 73 -19 73 -68c0 -46 -31 -66 -73 -66c-43 0 -73 20 -73 66c0 49 30 68 73 68
z" />
    <glyph glyph-name="braceleft" unicode="{" horiz-adv-x="343" 
d="M300 712v-97h-48c-47 0 -54 -28 -54 -56v-216c0 -38 -18 -67 -63 -74c45 -5 63 -33 63 -72v-218c0 -28 7 -56 54 -56h48v-97h-58c-130 0 -150 75 -150 156v204c0 35 -20 43 -56 44v80c36 1 56 8 56 44v200c0 83 20 158 150 158h58z" />
    <glyph glyph-name="braceright" unicode="}" horiz-adv-x="343" 
d="M43 712h58c130 0 150 -75 150 -158v-200c0 -36 20 -43 56 -44v-80c-36 -1 -56 -9 -56 -44v-204c0 -81 -20 -156 -150 -156h-58v97h48c48 0 54 28 54 56v218c0 39 18 67 64 72c-46 7 -64 36 -64 74v216c0 28 -6 56 -54 56h-48v97z" />
    <glyph glyph-name="bracketleft" unicode="[" horiz-adv-x="325" 
d="M280 712v-101h-93v-691h93v-101h-200v893h200z" />
    <glyph glyph-name="bracketright" unicode="]" horiz-adv-x="325" 
d="M245 712v-893h-200v101h93v691h-93v101h200z" />
    <glyph glyph-name="parenleft" unicode="(" horiz-adv-x="358" 
d="M205 732h138c-67 -82 -167 -214 -167 -473c0 -260 100 -392 167 -474h-138c-64 69 -162 223 -162 474c0 250 98 405 162 473z" />
    <glyph glyph-name="parenright" unicode=")" horiz-adv-x="358" 
d="M15 732h139c63 -68 161 -223 161 -473c0 -251 -98 -405 -161 -474h-139c67 82 167 214 167 474c0 259 -100 391 -167 473z" />
    <glyph glyph-name="braceleft.case" horiz-adv-x="343" 
d="M300 794v-97h-48c-47 0 -54 -28 -54 -56v-216c0 -38 -18 -67 -64 -73c46 -5 64 -34 64 -73v-217c0 -28 7 -56 54 -56h48v-97h-58c-130 0 -150 75 -150 155v205c0 34 -20 42 -56 43v80c36 1 56 9 56 45v199c0 83 20 158 150 158h58z" />
    <glyph glyph-name="braceright.case" horiz-adv-x="343" 
d="M43 794h58c130 0 150 -75 150 -158v-199c0 -36 20 -44 56 -45v-80c-36 -1 -56 -9 -56 -43v-205c0 -80 -20 -155 -150 -155h-58v97h48c48 0 54 28 54 56v217c0 39 18 68 65 73c-47 6 -65 35 -65 73v216c0 28 -6 56 -54 56h-48v97z" />
    <glyph glyph-name="bracketleft.case" horiz-adv-x="325" 
d="M280 694h-93v-690h93v-96h-200v886h200v-100z" />
    <glyph glyph-name="bracketright.case" horiz-adv-x="326" 
d="M45 794h201v-886h-201v96h93v690h-93v100z" />
    <glyph glyph-name="parenleft.case" horiz-adv-x="358" 
d="M212 831h131c-67 -82 -167 -206 -167 -473s100 -392 167 -474h-131c-63 69 -169 223 -169 474c0 250 106 405 169 473z" />
    <glyph glyph-name="parenright.case" horiz-adv-x="358" 
d="M14 831h131c64 -68 169 -223 169 -473c0 -251 -105 -405 -169 -474h-131c67 82 167 207 167 474s-100 391 -167 473z" />
    <glyph glyph-name="emdash" unicode="&#x2014;" horiz-adv-x="974" 
d="M907 314v-98h-840v98h840z" />
    <glyph glyph-name="endash" unicode="&#x2013;" horiz-adv-x="712" 
d="M645 313v-97l-578 -1v98h578z" />
    <glyph glyph-name="hyphen" unicode="-" horiz-adv-x="503" 
d="M436 314v-98h-369v98h369z" />
    <glyph glyph-name="emdash.case" horiz-adv-x="974" 
d="M907 404v-97h-840v97h840z" />
    <glyph glyph-name="endash.case" horiz-adv-x="712" 
d="M645 404v-97h-578v97h578z" />
    <glyph glyph-name="hyphen.case" horiz-adv-x="503" 
d="M436 404v-97h-369v97h369z" />
    <glyph glyph-name="hyphen.tnum" 
d="M560 385v-97h-406v97h406z" />
    <glyph glyph-name="guillemotleft" unicode="&#xab;" horiz-adv-x="650" 
d="M531 513l68 -69l-141 -184l141 -184l-68 -69l-213 240v26zM255 513l68 -69l-141 -184l141 -184l-68 -69l-213 240v26z" />
    <glyph glyph-name="guillemotright" unicode="&#xbb;" horiz-adv-x="650" 
d="M393 513l213 -240v-26l-212 -240l-69 69l141 184l-141 184zM118 513l213 -240v-26l-212 -240l-69 69l141 184l-141 184z" />
    <glyph glyph-name="guilsinglleft" unicode="&#x2039;" horiz-adv-x="374" 
d="M323 443l-134 -184l134 -186l-67 -68l-214 239v28l214 240z" />
    <glyph glyph-name="guilsinglright" unicode="&#x203a;" horiz-adv-x="374" 
d="M118 512l213 -240v-28l-213 -239l-67 68l134 186l-135 184z" />
    <glyph glyph-name="quotedblbase" unicode="&#x201e;" horiz-adv-x="476" 
d="M335 126c48 0 81 -37 81 -100c0 -78 -55 -127 -115 -157l-27 44c39 20 77 53 78 104c-4 -10 -13 -17 -29 -17c-36 0 -58 21 -58 59s26 67 70 67zM130 126c48 0 81 -37 81 -100c0 -78 -55 -127 -115 -157l-27 44c40 20 77 53 78 104c-4 -10 -13 -17 -29 -17
c-36 0 -58 21 -58 59s26 67 70 67z" />
    <glyph glyph-name="quotedblleft" unicode="&#x201c;" horiz-adv-x="476" 
d="M381 695l27 -43c-40 -20 -79 -53 -79 -104v-1c4 10 13 18 30 18c36 0 57 -22 57 -59c0 -38 -26 -67 -69 -67c-48 0 -82 37 -82 100c0 78 56 127 116 156zM176 695l27 -43c-40 -20 -79 -53 -79 -103v-2c4 10 13 18 30 18c36 0 57 -22 57 -59c0 -38 -26 -67 -69 -67
c-48 0 -82 37 -82 100c0 78 56 127 116 156z" />
    <glyph glyph-name="quotedblright" unicode="&#x201d;" horiz-adv-x="477" 
d="M130 695c48 0 81 -37 81 -100c0 -78 -55 -127 -115 -156l-27 43c40 20 78 53 78 104c-4 -10 -13 -17 -29 -17c-36 0 -58 22 -58 59c0 38 26 67 70 67zM336 695c48 0 81 -37 81 -100c0 -78 -55 -127 -115 -156l-27 43c40 20 78 53 78 104c-4 -10 -13 -17 -29 -17
c-36 0 -58 22 -58 59c0 38 26 67 70 67z" />
    <glyph glyph-name="quoteleft" unicode="&#x2018;" horiz-adv-x="271" 
d="M142 439c-48 0 -82 37 -82 99c0 79 56 128 116 157l27 -44c-40 -20 -79 -52 -79 -104c4 10 13 18 30 18c36 0 57 -22 57 -60s-26 -66 -69 -66z" />
    <glyph glyph-name="quoteright" unicode="&#x2019;" horiz-adv-x="271" 
d="M130 694c48 0 81 -37 81 -99c0 -79 -55 -128 -115 -157l-27 44c40 20 78 52 78 104c-4 -10 -13 -17 -29 -17c-36 0 -58 21 -58 59s26 66 70 66z" />
    <glyph glyph-name="quotesinglbase" unicode="&#x201a;" horiz-adv-x="271" 
d="M130 126c48 0 81 -38 81 -100c0 -79 -55 -127 -115 -157l-27 44c40 20 78 52 78 104c-4 -10 -13 -17 -29 -17c-36 0 -58 21 -58 59s26 67 70 67z" />
    <glyph glyph-name="guillemotleft.case" horiz-adv-x="650" 
d="M531 587l68 -69l-141 -184l141 -183l-68 -70l-213 240v26zM255 587l68 -69l-141 -184l141 -183l-68 -70l-213 240v26z" />
    <glyph glyph-name="guillemotright.case" horiz-adv-x="650" 
d="M393 587l213 -240v-26l-212 -240l-69 69l141 184l-141 184zM118 587l213 -240v-26l-212 -240l-69 69l141 184l-141 184z" />
    <glyph glyph-name="guilsinglleft.case" horiz-adv-x="374" 
d="M255 587l68 -69l-141 -184l141 -183l-68 -70l-213 240v26z" />
    <glyph glyph-name="guilsinglright.case" horiz-adv-x="374" 
d="M118 588l213 -241v-25l-212 -241l-69 70l141 184l-141 183z" />
    <glyph glyph-name="space" unicode=" " horiz-adv-x="265" 
 />
    <glyph glyph-name="CR" unicode="&#xd;" horiz-adv-x="301" 
 />
    <glyph glyph-name="A" unicode="A" horiz-adv-x="727" 
d="M454 701l270 -701h-145l-60 161h-316l-60 -161h-140l271 701h180zM360 581l-116 -310h234l-116 310h-2z" />
    <glyph glyph-name=".null" horiz-adv-x="147" 
 />
    <glyph glyph-name=".null" horiz-adv-x="147" 
 />
    <glyph glyph-name="Euro" unicode="&#x20ac;" horiz-adv-x="777" 
d="M503 712c81 0 162 -21 215 -46l-38 -102c-47 23 -105 35 -156 35c-126 0 -199 -61 -227 -154h303l-22 -62h-293c-1 -12 -1 -25 -1 -37s0 -24 1 -35h266l-22 -62h-232c29 -92 102 -148 225 -148c62 0 109 16 161 35l1 -110c-49 -23 -101 -38 -188 -38
c-180 0 -314 93 -350 261h-95l22 62h64c-1 12 -1 24 -1 37c0 12 0 23 1 35h-86l22 62h72c37 174 176 267 358 267z" />
    <glyph glyph-name="cent" unicode="&#xa2;" horiz-adv-x="564" 
d="M350 690v-82c56 -3 101 -18 135 -34l-26 -90c-23 9 -62 24 -111 24c-126 0 -173 -76 -173 -168s47 -168 173 -168c51 0 90 12 118 23l22 -91c-45 -20 -94 -30 -138 -33v-80h-73v83c-143 17 -236 111 -236 266s94 249 236 266v84h73z" />
    <glyph glyph-name="dollar" unicode="$" horiz-adv-x="589" 
d="M335 802v-90c86 -6 151 -30 196 -51l-40 -106c-29 15 -103 49 -183 49c-86 0 -116 -38 -116 -84c0 -79 79 -93 170 -118c111 -31 192 -78 192 -201c0 -134 -91 -197 -219 -212v-93h-74v92c-98 8 -153 27 -208 52l35 105c30 -15 120 -50 202 -50c83 0 119 35 119 86
c0 72 -72 82 -167 111c-100 30 -195 74 -195 209c0 125 79 198 214 211v90h74z" />
    <glyph glyph-name="sterling" unicode="&#xa3;" horiz-adv-x="608" 
d="M489 369v-71h-227c2 -18 4 -36 4 -56c0 -74 -39 -126 -72 -140h355v-102h-504v95s85 17 85 133c0 25 -2 48 -6 70h-60v71h48c-6 34 -11 70 -11 114c0 135 100 229 257 229c68 0 136 -22 186 -59l-52 -91c-27 18 -72 42 -128 42c-85 0 -128 -55 -128 -117
c0 -46 6 -83 13 -118h240z" />
    <glyph glyph-name="yen" unicode="&#xa5;" horiz-adv-x="694" 
d="M664 700l-245 -418v-29h115v-58h-115v-46h115v-58h-115v-91h-140v91h-116v58h116v46h-116v58h116v29l-246 418h145l170 -301l171 301h145z" />
    <glyph glyph-name="cent.tnum" 
d="M422 690v-82c55 -4 101 -19 134 -34l-26 -90c-23 9 -62 24 -111 24c-126 0 -173 -76 -173 -168s47 -168 173 -168c51 0 90 12 118 23l22 -91c-45 -20 -94 -30 -137 -33v-80h-73v83c-143 17 -237 110 -237 266s95 249 237 266v84h73z" />
    <glyph glyph-name="dollar.tnum" 
d="M395 802v-90c88 -6 154 -30 199 -51l-41 -106c-28 16 -105 49 -185 49c-88 0 -120 -38 -120 -84c0 -80 81 -94 173 -118c114 -30 196 -77 196 -201c0 -135 -93 -197 -222 -212v-93h-75v92c-100 8 -156 27 -211 52l35 105c31 -15 122 -50 206 -50c85 0 121 35 121 86
c0 74 -72 83 -169 111c-102 29 -199 74 -199 209c0 125 80 198 217 211v90h75z" />
    <glyph glyph-name="Euro.tnum" 
d="M474 712c81 0 162 -21 215 -46l-38 -102c-47 23 -105 35 -156 35c-126 0 -199 -61 -227 -154h303l-22 -62h-293c-1 -12 -1 -25 -1 -37s0 -24 1 -35h266l-22 -62h-232c29 -92 102 -148 225 -148c62 0 109 16 161 35l1 -110c-49 -23 -101 -38 -188 -38
c-180 0 -314 93 -350 261h-95l22 62h64c-1 12 -1 24 -1 37c0 12 0 23 1 35h-86l22 62h72c37 174 176 267 358 267z" />
    <glyph glyph-name="sterling.tnum" 
d="M547 369v-71h-229c2 -18 4 -36 4 -56c0 -74 -39 -126 -72 -140h357v-102h-506v95s85 17 85 133c0 25 -2 48 -6 70h-60v71h48c-6 34 -11 70 -11 114c0 135 100 229 257 229c70 0 138 -22 187 -59l-52 -91c-26 18 -72 42 -129 42c-85 0 -128 -55 -128 -117
c0 -46 6 -83 13 -118h242z" />
    <glyph glyph-name="yen.tnum" 
d="M672 700l-245 -415v-31h118v-59h-118v-45h118v-59h-118v-91h-140v91h-118v59h118v45h-118v59h118v31l-246 415h148l167 -295l168 295h148z" />
    <glyph glyph-name="divide" unicode="&#xf7;" horiz-adv-x="583" 
d="M524 372v-85h-465v85h465zM293 214c35 0 63 -20 63 -61c0 -43 -28 -63 -63 -63c-37 0 -65 21 -65 63c0 41 29 61 65 61zM293 572c35 0 63 -20 63 -61c0 -42 -28 -63 -63 -63c-37 0 -65 22 -65 63s29 61 65 61z" />
    <glyph glyph-name="equal" unicode="=" horiz-adv-x="549" 
d="M478 471v-89h-407v89h407zM478 285v-89h-407v89h407z" />
    <glyph glyph-name="greater" unicode="&#x3e;" horiz-adv-x="593" 
d="M566 393v-112l-517 -182v113l383 125l-383 125v114z" />
    <glyph glyph-name="less" unicode="&#x3c;" horiz-adv-x="593" 
d="M27 393l517 183v-114l-383 -125l383 -125v-113l-517 182v112z" />
    <glyph glyph-name="multiply" unicode="&#xd7;" horiz-adv-x="539" 
d="M41 498l67 68l161 -161l162 161l67 -68l-161 -161l161 -160l-67 -69l-162 161l-161 -161l-67 69l160 160z" />
    <glyph glyph-name="percent" unicode="%" horiz-adv-x="835" 
d="M668 700l-400 -700h-105l402 700h103zM204 628c-37 0 -65 -29 -65 -85c0 -59 30 -84 65 -84c34 0 64 27 64 84c0 58 -28 85 -64 85zM206 712c96 0 162 -62 162 -168c0 -104 -66 -169 -166 -169c-97 0 -162 64 -162 167c0 107 67 170 166 170zM632 241
c-37 0 -65 -29 -65 -85c0 -59 30 -85 65 -85c34 0 64 27 64 85c0 57 -28 85 -64 85zM634 325c96 0 162 -63 162 -168s-66 -169 -165 -169c-97 0 -163 64 -163 167c0 107 68 170 166 170z" />
    <glyph glyph-name="perthousand" unicode="&#x2030;" horiz-adv-x="1238" 
d="M669 700l-400 -700h-105l403 700h102zM634 325c96 0 162 -63 162 -168s-66 -169 -165 -169c-97 0 -163 64 -163 167c0 107 68 170 166 170zM632 241c-37 0 -65 -29 -65 -85c0 -59 30 -85 65 -85c34 0 64 27 64 85c0 57 -28 85 -64 85zM1038 325c96 0 162 -63 162 -168
s-66 -169 -165 -169c-97 0 -163 64 -163 167c0 107 68 170 166 170zM1037 241c-37 0 -65 -29 -65 -85c0 -59 30 -85 65 -85c34 0 64 27 64 85c0 57 -28 85 -64 85zM206 712c96 0 162 -62 162 -168c0 -104 -66 -169 -166 -169c-97 0 -162 64 -162 167c0 107 67 170 166 170z
M204 628c-37 0 -65 -29 -65 -85c0 -59 30 -84 65 -84c34 0 64 27 64 84c0 58 -28 85 -64 85z" />
    <glyph glyph-name="plus" unicode="+" horiz-adv-x="569" 
d="M331 575v-190h188v-98h-188v-182h-100v182h-181v98h181v190h100z" />
    <glyph glyph-name="plusminus" unicode="&#xb1;" horiz-adv-x="550" 
d="M510 116v-86h-470v86h470zM321 567v-159h188v-98h-188v-152h-100v152h-181v98h181v159h100z" />
    <glyph glyph-name="divide.tnum" 
d="M596 372v-85h-480v85h480zM358 572c35 0 63 -20 63 -61c0 -42 -28 -63 -63 -63c-37 0 -65 21 -65 63c0 41 29 61 65 61zM358 214c35 0 63 -20 63 -61c0 -43 -28 -63 -63 -63c-37 0 -65 21 -65 63c0 41 29 61 65 61z" />
    <glyph glyph-name="equal.tnum" 
d="M551 471v-89h-389v89h389zM551 285v-89h-389v89h389z" />
    <glyph glyph-name="multiply.tnum" 
d="M128 498l67 68l161 -161l162 161l67 -68l-161 -161l161 -160l-67 -69l-162 161l-161 -161l-67 69l160 160z" />
    <glyph glyph-name="percent.tnum" 
d="M591 700l-374 -700h-100l378 700h96zM153 629c-37 0 -63 -28 -63 -86c0 -60 28 -85 63 -85s60 28 60 85c0 60 -26 86 -60 86zM156 712c92 0 153 -60 153 -168c0 -107 -61 -169 -157 -169c-92 0 -153 62 -153 167c0 109 63 170 157 170zM558 242c-37 0 -63 -28 -63 -86
c0 -60 28 -86 63 -86s60 29 60 86c0 59 -26 86 -60 86zM560 325c92 0 153 -61 153 -168s-61 -169 -157 -169c-92 0 -153 61 -153 166c0 110 63 171 157 171z" />
    <glyph glyph-name="plus.tnum" 
d="M403 575v-190h191v-98h-191v-182h-100v182h-183v98h183v190h100z" />
    <glyph glyph-name="ampersand" unicode="&#x26;" horiz-adv-x="686" 
d="M285 712c93 0 180 -54 180 -160c0 -91 -61 -140 -128 -181l136 -159c29 39 55 86 78 137l94 -47c-28 -65 -61 -124 -100 -174l110 -128h-140l-46 53c-55 -41 -118 -65 -193 -65c-123 0 -230 58 -230 193c0 100 67 157 140 205c-45 52 -78 92 -78 162
c0 108 82 164 177 164zM285 98c42 0 80 14 114 38l-154 181c-43 -29 -78 -64 -78 -117c0 -67 55 -102 118 -102zM220 542c0 -34 17 -55 56 -100c45 31 78 61 78 105c0 43 -33 64 -65 64c-40 0 -69 -29 -69 -69z" />
    <glyph glyph-name="apple" unicode="&#xf8ff;" horiz-adv-x="1413" 
d="M321 356v-108c0 -46 -21 -65 -70 -65c-28 0 -45 2 -62 12l6 32c14 -5 24 -7 36 -7c19 0 28 5 28 16v10c-10 -6 -19 -9 -32 -9c-31 0 -45 15 -45 49v70h63v-80c0 -8 4 -10 14 -6v86h62zM787 409v-168h-58l-3 11c-13 -11 -23 -15 -37 -15c-30 0 -49 19 -49 62
c0 37 15 61 51 61c10 0 21 -3 32 -10v59h64zM439 360c27 0 46 -20 46 -60c0 -37 -15 -63 -50 -63c-13 0 -25 4 -33 11v-60h-64v168h53l4 -13c10 9 28 17 44 17zM1047 360c27 0 46 -20 46 -60c0 -37 -15 -63 -50 -63c-13 0 -25 4 -33 11v-60h-64v168h53l4 -13
c10 9 28 17 44 17zM1172 360h1c47 0 68 -19 68 -61c0 -43 -21 -62 -67 -62h-2c-47 0 -67 19 -67 62c0 42 20 61 67 61zM567 360c45 0 61 -19 61 -46c0 -13 0 -17 -1 -26h-73c2 -13 10 -17 29 -17c10 0 27 1 40 5v-29c-15 -6 -32 -10 -53 -10c-50 0 -73 22 -73 61
s24 62 70 62zM870 361c45 0 61 -19 61 -46c0 -13 0 -17 -1 -26h-73c2 -13 10 -17 29 -17c10 0 26 1 40 5v-29c-16 -6 -32 -10 -53 -10c-50 0 -73 22 -73 61s24 62 70 62zM1332 400v-44h28v-37h-28v-19c0 -15 7 -21 30 -15l1 -37c-11 -5 -22 -8 -40 -8c-38 0 -54 13 -54 52
v27h-22v37h22l8 44h55zM135 400v-44h29v-37h-29v-19c0 -15 7 -21 31 -15l1 -37c-11 -5 -23 -8 -41 -8c-37 0 -53 13 -53 52v27h-23v37h23l8 44h54zM714 322c-11 0 -17 -6 -17 -25c0 -15 4 -26 12 -26s11 3 15 7v41c-4 2 -6 3 -10 3zM415 320c-7 0 -11 -4 -14 -7v-37
c4 -3 7 -5 12 -5c10 0 15 7 15 25c0 17 -5 24 -13 24zM1023 320c-7 0 -11 -4 -14 -7v-37c4 -3 7 -5 12 -5c10 0 15 7 15 25c0 17 -5 24 -13 24zM1173 326c-7 0 -10 -7 -10 -25s3 -27 10 -27c6 0 9 9 9 27s-3 25 -9 25zM870 328c-8 0 -14 -5 -14 -20h25c2 11 0 20 -11 20z
M567 327c-8 0 -14 -5 -14 -20h25c2 11 0 20 -11 20z" />
    <glyph glyph-name="at" unicode="@" horiz-adv-x="940" 
d="M505 693c237 0 396 -123 396 -342c0 -163 -88 -270 -222 -270c-61 0 -103 21 -113 74c-30 -49 -81 -72 -146 -72c-109 0 -169 76 -168 180c0 112 64 220 196 220c64 0 105 -25 128 -60l14 54h95l-46 -259c-7 -43 10 -66 52 -66c85 0 125 96 125 199
c0 196 -141 272 -314 272c-240 0 -378 -150 -378 -363c0 -215 137 -305 322 -305c110 0 202 33 229 43l9 -68c-76 -26 -144 -44 -236 -44c-272 0 -410 148 -410 372c0 252 177 435 467 435zM465 407c-92 0 -113 -87 -114 -142c0 -67 35 -104 93 -104c91 0 110 89 110 144
c0 64 -29 102 -89 102z" />
    <glyph glyph-name="bar" unicode="|" horiz-adv-x="264" 
d="M185 789v-948h-106v948h106z" />
    <glyph glyph-name="copyright" unicode="&#xa9;" horiz-adv-x="803" 
d="M404 702c195 0 353 -142 353 -351c0 -208 -160 -351 -353 -351c-195 0 -354 143 -354 351c0 209 157 351 354 351zM421 542c49 0 87 -11 115 -25l-20 -66c-21 8 -43 17 -80 17c-86 0 -118 -54 -118 -116s31 -117 120 -117c36 0 64 9 84 17l16 -67
c-38 -17 -79 -24 -118 -24c-117 0 -201 68 -201 191s85 190 202 190zM404 652c-164 0 -300 -113 -300 -301s135 -301 300 -301s299 113 299 301s-135 301 -299 301z" />
    <glyph glyph-name="dagger" unicode="&#x2020;" horiz-adv-x="616" 
d="M362 700l-13 -700h-81l-15 700h109zM43 550l170 -18v-57l-170 -15v90zM573 550v-90l-170 15v57z" />
    <glyph glyph-name="daggerdbl" unicode="&#x2021;" horiz-adv-x="650" 
d="M380 700l-13 -700h-82l-15 700h110zM60 297l170 -18v-57l-170 -17v92zM590 297v-92l-170 17v57zM60 550l170 -18v-57l-170 -15v90zM590 550v-90l-170 15v57z" />
    <glyph glyph-name="degree" unicode="&#xb0;" horiz-adv-x="308" 
d="M155 710c69 0 133 -36 133 -126c0 -89 -64 -127 -133 -127c-68 0 -135 38 -135 126c0 92 67 127 135 127zM155 654c-34 0 -70 -18 -70 -71c0 -52 36 -70 69 -70s69 20 69 70c0 54 -36 71 -68 71z" />
    <glyph glyph-name="paragraph" unicode="&#xb6;" horiz-adv-x="638" 
d="M450 -85v688h-102v-688h-97v345h-21c-127 0 -192 96 -192 220c0 156 111 220 211 220h297v-785h-96z" />
    <glyph glyph-name="registered" unicode="&#xae;" horiz-adv-x="583" 
d="M291 735c135 0 228 -96 228 -226s-93 -226 -228 -226c-133 0 -227 96 -227 226s94 226 227 226zM292 699c-118 0 -187 -83 -187 -190s69 -190 187 -190s186 83 186 190s-68 190 -186 190zM201 632h112c47 0 78 -33 78 -77c0 -36 -15 -59 -43 -70l40 -90h-53l-32 82h-53
v-82h-49v237zM304 590h-54v-70h56c26 0 38 17 38 34c0 26 -15 36 -40 36z" />
    <glyph glyph-name="section" unicode="&#xa7;" horiz-adv-x="606" 
d="M303 700c94 0 177 -27 224 -48l-40 -100c-10 4 -97 36 -173 36s-108 -34 -108 -67c0 -54 76 -66 157 -89c91 -24 190 -54 190 -172c0 -56 -40 -113 -74 -140c38 -27 63 -64 63 -118c0 -115 -94 -174 -247 -174c-94 0 -176 28 -223 48l39 101c11 -5 97 -36 173 -36
s109 34 109 67c0 55 -77 65 -156 87c-91 26 -192 55 -192 173c0 57 40 114 74 140c-38 27 -63 64 -63 119c0 115 95 173 247 173zM435 239c0 75 -127 89 -233 128c-26 -26 -39 -54 -39 -77c0 -75 127 -89 234 -128c25 26 38 54 38 77z" />
    <glyph glyph-name="trademark" unicode="&#x2122;" horiz-adv-x="804" 
d="M726 700v-313h-67v183l-72 -148h-47l-75 148v-183h-67v313h66l100 -204l96 204h66zM347 700v-60h-109v-253h-67v253h-107v60h283z" />
    <glyph glyph-name="acute" unicode="&#xb4;" horiz-adv-x="335" 
d="M281 718l-101 -148h-97l76 148h122z" />
    <glyph glyph-name="breve" unicode="&#x2d8;" horiz-adv-x="449" 
d="M298 708l75 -8c-12 -89 -57 -125 -148 -125s-137 36 -148 125l74 8c11 -43 28 -69 74 -69s63 26 73 69z" />
    <glyph glyph-name="caron" unicode="&#x2c7;" horiz-adv-x="503" 
d="M425 719l-113 -149h-119l-114 149h103l70 -101l71 101h102z" />
    <glyph glyph-name="cedilla" unicode="&#xb8;" horiz-adv-x="331" 
d="M206 13l-22 -68c28 1 82 -6 82 -72c0 -61 -49 -80 -109 -80c-32 0 -66 7 -86 17l10 48c12 -5 40 -12 66 -12c20 0 40 7 40 27c0 29 -35 28 -61 24l-19 27l30 89h69z" />
    <glyph glyph-name="circumflex" unicode="&#x2c6;" horiz-adv-x="503" 
d="M312 719l113 -149h-102l-71 101l-70 -101h-103l114 149h119z" />
    <glyph glyph-name="dieresis" unicode="&#xa8;" horiz-adv-x="523" 
d="M142 699c46 0 69 -22 69 -61c0 -38 -23 -61 -69 -61c-42 0 -65 23 -65 61c0 39 23 61 65 61zM377 699c46 0 68 -22 68 -61c0 -38 -22 -61 -68 -61c-43 0 -65 23 -65 61c0 39 22 61 65 61z" />
    <glyph glyph-name="dotaccent" unicode="&#x2d9;" horiz-adv-x="282" 
d="M141 700c45 0 72 -20 72 -61c0 -42 -27 -62 -72 -62c-42 0 -69 20 -69 62c0 41 27 61 69 61z" />
    <glyph glyph-name="grave" unicode="`" horiz-adv-x="341" 
d="M90 718h122l73 -148h-97z" />
    <glyph glyph-name="hungarumlaut" unicode="&#x2dd;" horiz-adv-x="534" 
d="M278 718l-98 -148h-97l72 148h123zM456 718l-98 -148h-97l72 148h123z" />
    <glyph glyph-name="macron" unicode="&#xaf;" horiz-adv-x="474" 
d="M393 672v-75h-312v75h312z" />
    <glyph glyph-name="ogonek" unicode="&#x2db;" horiz-adv-x="320" 
d="M203 36l18 -36c-37 -22 -49 -51 -49 -73c0 -26 15 -37 34 -37c13 0 23 2 38 6l7 -66c-24 -10 -46 -13 -64 -13c-53 0 -95 25 -95 84c0 79 79 122 111 135z" />
    <glyph glyph-name="ring" unicode="&#x2da;" horiz-adv-x="356" 
d="M180 776c62 0 115 -33 115 -105c0 -73 -53 -107 -115 -107s-115 34 -115 107c0 72 53 105 115 105zM179 723c-22 0 -47 -12 -47 -53c0 -40 25 -53 47 -53s49 13 49 53c0 41 -27 53 -49 53z" />
    <glyph glyph-name="tilde" unicode="&#x2dc;" horiz-adv-x="485" 
d="M363 693l44 -20c-20 -63 -55 -96 -105 -96c-22 0 -45 10 -68 21c-21 10 -43 24 -64 24c-29 0 -39 -20 -48 -37l-43 19c19 63 54 96 105 96c20 0 44 -9 68 -21c19 -10 43 -24 64 -24c28 0 38 21 47 38z" />
    <glyph glyph-name="acute.case" horiz-adv-x="335" 
d="M281 686l-101 -116h-97l76 116h122z" />
    <glyph glyph-name="breve.case" horiz-adv-x="449" 
d="M297 693l76 -5c-9 -88 -64 -113 -148 -113s-139 25 -148 113l75 5c7 -43 39 -55 73 -55c33 0 65 12 72 55z" />
    <glyph glyph-name="caron.case" horiz-adv-x="503" 
d="M425 686l-113 -116h-119l-114 116h104l69 -74l70 74h103z" />
    <glyph glyph-name="circumflex.case" horiz-adv-x="503" 
d="M312 686l113 -116h-103l-70 74l-69 -74h-104l114 116h119z" />
    <glyph glyph-name="dieresis.case" horiz-adv-x="524" 
d="M145 693c43 0 63 -22 63 -58c0 -37 -20 -59 -63 -59c-41 0 -62 22 -62 59c0 36 21 58 62 58zM379 693c43 0 63 -22 63 -58c0 -37 -20 -59 -63 -59c-40 0 -61 22 -61 59c0 36 21 58 61 58z" />
    <glyph glyph-name="dotaccent.case" horiz-adv-x="282" 
d="M141 694c43 0 64 -22 64 -59s-21 -58 -64 -58c-40 0 -62 21 -62 58s22 59 62 59z" />
    <glyph glyph-name="grave.case" horiz-adv-x="341" 
d="M212 686l73 -116h-97l-98 116h122z" />
    <glyph glyph-name="hungarumlaut.case" horiz-adv-x="534" 
d="M456 686l-98 -116h-97l72 116h123zM278 686l-98 -116h-97l72 116h123z" />
    <glyph glyph-name="commaaccent" unicode="&#xf6c3;" horiz-adv-x="0" 
d="M-187 -45h92c-1 -65 -17 -97 -35 -138h-80c10 34 23 68 23 138z" />
    </font>
</defs>
</svg>
