<?xml version="1.0" standalone="no"?>
<!DOCTYPE svg PUBLIC "-//W3C//DTD SVG 1.1//EN" "http://www.w3.org/Graphics/SVG/1.1/DTD/svg11.dtd" >
<svg xmlns="http://www.w3.org/2000/svg" xmlns:xlink="http://www.w3.org/1999/xlink" version="1.1">
<metadata>
Created by FontForge 20161116 at Tue Nov 19 20:49:59 2013
 By Jimmy Wärting
Copyright (c) 2011 by typedepot. All rights reserved.
</metadata>
<defs>
<font id="CentraleSansThin" horiz-adv-x="695" >
  <font-face 
    font-family="CentraleSans Thin"
    font-weight="250"
    font-stretch="normal"
    units-per-em="1000"
    panose-1="2 0 0 0 0 0 0 0 0 0"
    ascent="750"
    descent="-250"
    x-height="520"
    cap-height="700"
    bbox="-141 -191 1363 906"
    underline-thickness="50"
    underline-position="-100"
    stemv="37"
    unicode-range="U+000D-FB04"
  />
<missing-glyph horiz-adv-x="631" 
d="M548 732v-852h-465v852h465zM511 707h-390l195 -373zM511 -95l-195 372l-195 -372h390zM524 674l-193 -368l193 -368v736zM108 674v-736l193 368z" />
    <glyph glyph-name="f_f" unicode="ff" horiz-adv-x="581" 
d="M493 738c29 0 55 -5 74 -9l-3 -27c-18 4 -42 7 -64 7c-80 0 -101 -47 -101 -119v-70h158v-27h-158v-493h-36v493h-228v-493h-36v493h-65v27h65v69c0 94 30 149 130 149c20 0 47 -4 67 -8l-5 -27c-17 4 -37 6 -57 6c-76 0 -99 -46 -99 -117v-72h228v68
c0 95 31 150 130 150z" />
    <glyph glyph-name="f_f_i" unicode="ffi" horiz-adv-x="761" 
d="M518 743c28 0 87 -3 151 -39l-10 -23c-59 30 -106 34 -137 34c-102 0 -123 -80 -123 -141v-54h277v-520h-36v493h-241v-493h-35v493h-229v-493h-36v493h-65v27h65v69c0 94 31 149 131 149c20 0 47 -4 67 -8l-5 -27c-17 4 -37 6 -57 6c-77 0 -100 -47 -100 -118v-71h229
v54c0 97 46 169 154 169z" />
    <glyph glyph-name="f_f_l" unicode="ffl" horiz-adv-x="819" 
d="M527 743c94 0 169 -55 169 -176v-498c0 -40 17 -46 41 -46c20 0 40 2 43 2v-28c-5 0 -29 -3 -53 -3c-43 0 -67 15 -67 72v501c0 98 -55 148 -133 148c-77 0 -126 -54 -126 -148v-47h141v-27h-141v-493h-36v493h-228v-493h-36v493h-64v27h64v69c0 94 30 149 130 149
c21 0 47 -4 67 -8l-4 -27c-18 4 -37 6 -58 6c-76 0 -99 -46 -99 -118v-71h228v47c0 116 68 176 162 176z" />
    <glyph glyph-name="f_i" unicode="fi" horiz-adv-x="519" 
d="M267 738c62 0 110 -23 149 -45l-11 -22c-57 33 -107 39 -137 39c-95 0 -132 -76 -132 -144v-46h298v-520h-36v493h-262v-493h-36v493h-66v27h66v49c1 94 59 169 167 169z" />
    <glyph glyph-name="f_l" unicode="fl" horiz-adv-x="554" 
d="M263 738c93 0 168 -56 168 -176v-493c0 -40 17 -46 41 -46c20 0 40 2 43 2v-28c-5 0 -29 -3 -53 -3c-43 0 -67 15 -67 72v496c0 97 -55 147 -132 147s-126 -53 -126 -147v-42h140v-27h-140v-493h-36v493h-66v27h66v41c0 117 68 177 162 177z" />
    <glyph glyph-name=".notdef" horiz-adv-x="631" 
d="M548 732v-852h-465v852h465zM511 707h-390l195 -373zM511 -95l-195 372l-195 -372h390zM524 674l-193 -368l193 -368v736zM108 674v-736l193 368z" />
    <glyph glyph-name="Aacute" unicode="&#xc1;" horiz-adv-x="666" 
d="M357 704l291 -704h-39l-81 197h-391l-80 -197h-39l292 704h47zM332 671l-182 -443h365l-182 443h-1zM416 852l-66 -109h-28l59 109h35z" />
    <glyph glyph-name="Abreve" unicode="&#x102;" horiz-adv-x="666" 
d="M357 704l291 -704h-39l-81 197h-391l-80 -197h-39l292 704h47zM332 671l-182 -443h365l-182 443h-1zM423 859l28 -4c-14 -66 -55 -95 -118 -95c-64 0 -104 29 -118 95l28 4c12 -44 31 -74 90 -74s77 30 90 74z" />
    <glyph glyph-name="Acircumflex" unicode="&#xc2;" horiz-adv-x="666" 
d="M357 704l291 -704h-39l-81 197h-391l-80 -197h-39l292 704h47zM332 671l-182 -443h365l-182 443h-1zM457 743h-37l-86 88l-86 -88h-36l105 109h34z" />
    <glyph glyph-name="Adieresis" unicode="&#xc4;" horiz-adv-x="666" 
d="M357 704l291 -704h-39l-81 197h-391l-80 -197h-39l292 704h47zM332 671l-182 -443h365l-182 443h-1zM243 827c19 0 28 -9 28 -25s-9 -25 -28 -25c-17 0 -26 9 -26 25s9 25 26 25zM424 827c18 0 26 -9 26 -25s-8 -25 -26 -25s-27 9 -27 25s9 25 27 25z" />
    <glyph glyph-name="Agrave" unicode="&#xc0;" horiz-adv-x="666" 
d="M357 704l291 -704h-39l-81 197h-391l-80 -197h-39l292 704h47zM332 671l-182 -443h365l-182 443h-1zM313 850l46 -107h-28l-53 107h35z" />
    <glyph glyph-name="Amacron" unicode="&#x100;" horiz-adv-x="666" 
d="M357 704l291 -704h-39l-81 197h-391l-80 -197h-39l292 704h47zM332 671l-182 -443h365l-182 443h-1zM476 823v-24h-287v24h287z" />
    <glyph glyph-name="Aogonek" unicode="&#x104;" horiz-adv-x="666" 
d="M357 704l291 -704h-2c-47 -28 -66 -60 -66 -96c0 -30 19 -48 48 -48c10 0 21 2 34 6l2 -23c-17 -7 -33 -8 -42 -8c-44 0 -72 22 -72 68c0 42 26 76 61 101h-2l-81 197h-391l-80 -197h-39l292 704h47zM332 671l-182 -443h365l-182 443h-1z" />
    <glyph glyph-name="Aring" unicode="&#xc5;" horiz-adv-x="666" 
d="M357 704l291 -704h-39l-81 197h-391l-80 -197h-39l292 704h47zM332 671l-182 -443h365l-182 443h-1zM333 906c48 0 84 -28 84 -79c0 -50 -36 -79 -84 -79s-84 29 -84 79c0 51 36 79 84 79zM332 884c-32 0 -57 -20 -57 -57c0 -36 25 -57 57 -57c33 0 59 21 59 57
c0 37 -26 57 -59 57z" />
    <glyph glyph-name="Atilde" unicode="&#xc3;" horiz-adv-x="666" 
d="M357 704l291 -704h-39l-81 197h-391l-80 -197h-39l292 704h47zM332 671l-182 -443h365l-182 443h-1zM452 841l15 -6c-13 -38 -40 -56 -72 -56c-24 0 -46 11 -66 20s-40 21 -62 21c-24 0 -44 -15 -53 -34l-15 6c14 38 41 56 72 56c24 0 46 -10 67 -20c19 -9 40 -22 62 -22
c24 0 43 16 52 35z" />
    <glyph glyph-name="AE" unicode="&#xc6;" horiz-adv-x="1012" 
d="M47 0h-39l435 700h499v-31h-434v-313h374v-31h-374v-294h452v-31h-490v209h-292zM466 669l-269 -429h273v429h-4z" />
    <glyph glyph-name="AEacute" unicode="&#x1fc;" horiz-adv-x="1012" 
d="M47 0h-39l435 700h499v-31h-434v-313h374v-31h-374v-294h452v-31h-490v209h-292zM466 669l-269 -429h273v429h-4zM727 852l-66 -109h-28l59 109h35z" />
    <glyph glyph-name="B" unicode="B" horiz-adv-x="668" 
d="M108 700h287c103 0 190 -62 190 -179c0 -83 -47 -146 -125 -165c78 -8 150 -71 150 -174c0 -113 -82 -182 -190 -182h-312v700zM404 341h-258v-310h269c86 0 156 60 156 154c0 76 -46 156 -167 156zM394 669h-248v-298h250c96 0 151 60 151 144c0 99 -73 154 -153 154z
" />
    <glyph glyph-name="C" unicode="C" horiz-adv-x="675" 
d="M426 706c59 0 138 -11 195 -36l-9 -29c-28 13 -102 34 -178 34c-202 0 -334 -133 -334 -325c0 -193 133 -325 333 -325c74 0 151 20 181 33l8 -30c-58 -23 -134 -34 -195 -34c-213 0 -367 140 -367 356c0 217 155 356 366 356z" />
    <glyph glyph-name="Cacute" unicode="&#x106;" horiz-adv-x="675" 
d="M426 706c59 0 138 -11 195 -36l-9 -29c-28 13 -102 34 -178 34c-202 0 -334 -133 -334 -325c0 -193 133 -325 333 -325c74 0 151 20 181 33l8 -30c-58 -23 -134 -34 -195 -34c-213 0 -367 140 -367 356c0 217 155 356 366 356zM488 852l-66 -109h-28l59 109h35z" />
    <glyph glyph-name="Ccaron" unicode="&#x10c;" horiz-adv-x="675" 
d="M426 706c59 0 138 -11 195 -36l-9 -29c-28 13 -102 34 -178 34c-202 0 -334 -133 -334 -325c0 -193 133 -325 333 -325c74 0 151 20 181 33l8 -30c-58 -23 -134 -34 -195 -34c-213 0 -367 140 -367 356c0 217 155 356 366 356zM528 852l-106 -109h-34l-105 109h36l86 -88
l86 88h37z" />
    <glyph glyph-name="Ccedilla" unicode="&#xc7;" horiz-adv-x="675" 
d="M426 706c59 0 138 -11 195 -36l-9 -29c-28 13 -102 34 -178 34c-202 0 -334 -133 -334 -325c0 -193 133 -325 333 -325c74 0 151 20 181 33l8 -30c-58 -23 -134 -34 -195 -34c-6 0 -11 1 -16 1l-19 -61c29 1 84 -4 84 -61c0 -50 -39 -64 -87 -64c-27 0 -54 7 -69 14l4 21
c13 -6 40 -12 62 -12c25 0 60 6 60 40c0 45 -49 44 -75 39l-9 11l23 74c-191 17 -325 152 -325 354c0 217 155 356 366 356z" />
    <glyph glyph-name="Ccircumflex" unicode="&#x108;" horiz-adv-x="675" 
d="M426 706c59 0 138 -11 195 -36l-9 -29c-28 13 -102 34 -178 34c-202 0 -334 -133 -334 -325c0 -193 133 -325 333 -325c74 0 151 20 181 33l8 -30c-58 -23 -134 -34 -195 -34c-213 0 -367 140 -367 356c0 217 155 356 366 356zM529 743h-37l-86 88l-86 -88h-36l105 109
h34z" />
    <glyph glyph-name="Cdotaccent" unicode="&#x10a;" horiz-adv-x="675" 
d="M426 706c59 0 138 -11 195 -36l-9 -29c-28 13 -102 34 -178 34c-202 0 -334 -133 -334 -325c0 -193 133 -325 333 -325c74 0 151 20 181 33l8 -30c-58 -23 -134 -34 -195 -34c-213 0 -367 140 -367 356c0 217 155 356 366 356zM432 828c18 0 26 -9 26 -25s-8 -25 -26 -25
s-27 9 -27 25s9 25 27 25z" />
    <glyph glyph-name="D" unicode="D" horiz-adv-x="750" 
d="M108 700h271c30 0 91 -7 154 -44c105 -63 154 -178 154 -306c0 -129 -47 -246 -154 -306c-62 -37 -128 -44 -154 -44h-271v700zM372 669h-226v-638h225c59 0 136 29 183 71c61 55 93 150 93 249c0 117 -45 219 -128 273c-52 32 -109 45 -147 45z" />
    <glyph glyph-name="Eth" unicode="&#xd0;" horiz-adv-x="750" 
d="M108 700h271c30 0 91 -7 154 -44c105 -63 154 -178 154 -306c0 -129 -47 -246 -154 -306c-62 -37 -128 -44 -154 -44h-271v328h-94v26h94v346zM372 669h-226v-315h182v-26h-182v-297h225c59 0 136 29 183 71c61 55 93 150 93 249c0 117 -45 219 -128 273
c-52 32 -109 45 -147 45z" />
    <glyph glyph-name="Dcaron" unicode="&#x10e;" horiz-adv-x="750" 
d="M108 700h271c30 0 91 -7 154 -44c105 -63 154 -178 154 -306c0 -129 -47 -246 -154 -306c-62 -37 -128 -44 -154 -44h-271v700zM372 669h-226v-638h225c59 0 136 29 183 71c61 55 93 150 93 249c0 117 -45 219 -128 273c-52 32 -109 45 -147 45zM483 852l-106 -109h-34
l-105 109h36l86 -88l86 88h37z" />
    <glyph glyph-name="Dcroat" unicode="&#x110;" horiz-adv-x="750" 
d="M108 700h271c30 0 91 -7 154 -44c105 -63 154 -178 154 -306c0 -129 -47 -246 -154 -306c-62 -37 -128 -44 -154 -44h-271v328h-94v26h94v346zM372 669h-226v-315h182v-26h-182v-297h225c59 0 136 29 183 71c61 55 93 150 93 249c0 117 -45 219 -128 273
c-52 32 -109 45 -147 45z" />
    <glyph glyph-name="E" unicode="E" horiz-adv-x="650" 
d="M580 700v-31h-434v-313h374v-31h-374v-294h452v-31h-490v700h472z" />
    <glyph glyph-name="Eacute" unicode="&#xc9;" horiz-adv-x="650" 
d="M580 700v-31h-434v-313h374v-31h-374v-294h452v-31h-490v700h472zM435 852l-66 -109h-28l59 109h35z" />
    <glyph glyph-name="Ebreve" unicode="&#x114;" horiz-adv-x="650" 
d="M580 700v-31h-434v-313h374v-31h-374v-294h452v-31h-490v700h472zM442 859l28 -4c-14 -66 -55 -95 -118 -95c-64 0 -104 29 -118 95l28 4c12 -44 31 -74 90 -74s77 30 90 74z" />
    <glyph glyph-name="Ecaron" unicode="&#x11a;" horiz-adv-x="650" 
d="M580 700v-31h-434v-313h374v-31h-374v-294h452v-31h-490v700h472zM475 852l-106 -109h-34l-105 109h36l86 -88l86 88h37z" />
    <glyph glyph-name="Ecircumflex" unicode="&#xca;" horiz-adv-x="650" 
d="M580 700v-31h-434v-313h374v-31h-374v-294h452v-31h-490v700h472zM476 743h-37l-86 88l-86 -88h-36l105 109h34z" />
    <glyph glyph-name="Edieresis" unicode="&#xcb;" horiz-adv-x="650" 
d="M580 700v-31h-434v-313h374v-31h-374v-294h452v-31h-490v700h472zM262 827c19 0 28 -9 28 -25s-9 -25 -28 -25c-17 0 -26 9 -26 25s9 25 26 25zM443 827c18 0 26 -9 26 -25s-8 -25 -26 -25s-27 9 -27 25s9 25 27 25z" />
    <glyph glyph-name="Edotaccent" unicode="&#x116;" horiz-adv-x="650" 
d="M580 700v-31h-434v-313h374v-31h-374v-294h452v-31h-490v700h472zM353 828c18 0 26 -9 26 -25s-8 -25 -26 -25s-27 9 -27 25s9 25 27 25z" />
    <glyph glyph-name="Egrave" unicode="&#xc8;" horiz-adv-x="650" 
d="M580 700v-31h-434v-313h374v-31h-374v-294h452v-31h-490v700h472zM332 850l46 -107h-28l-53 107h35z" />
    <glyph glyph-name="Emacron" unicode="&#x112;" horiz-adv-x="650" 
d="M580 700v-31h-434v-313h374v-31h-374v-294h452v-31h-490v700h472zM495 823v-24h-287v24h287z" />
    <glyph glyph-name="Eogonek" unicode="&#x118;" horiz-adv-x="650" 
d="M580 700v-31h-434v-313h374v-31h-374v-294h452v-31h-12c-47 -28 -66 -60 -66 -96c0 -30 19 -48 48 -48c10 0 21 2 34 6l2 -23c-17 -7 -33 -8 -42 -8c-44 0 -72 22 -72 68c0 42 26 76 61 101h-443v700h472z" />
    <glyph glyph-name="F" unicode="F" horiz-adv-x="611" 
d="M578 700v-31h-432v-318h371v-31h-371v-320h-38v700h470z" />
    <glyph glyph-name="G" unicode="G" horiz-adv-x="752" 
d="M423 706c74 0 153 -17 216 -49l-10 -29c-42 21 -112 47 -200 47c-196 0 -329 -131 -329 -325c0 -192 137 -325 320 -325c81 0 169 27 228 89v188h-195v29h233v-230c-83 -85 -176 -107 -271 -107c-195 0 -355 139 -355 355c0 217 154 357 363 357z" />
    <glyph glyph-name="Gbreve" unicode="&#x11e;" horiz-adv-x="752" 
d="M423 706c74 0 153 -17 216 -49l-10 -29c-42 21 -112 47 -200 47c-196 0 -329 -131 -329 -325c0 -192 137 -325 320 -325c81 0 169 27 228 89v188h-195v29h233v-230c-83 -85 -176 -107 -271 -107c-195 0 -355 139 -355 355c0 217 154 357 363 357zM503 859l28 -4
c-14 -66 -55 -95 -118 -95c-64 0 -104 29 -118 95l28 4c12 -44 31 -74 90 -74s77 30 90 74z" />
    <glyph glyph-name="Gcircumflex" unicode="&#x11c;" horiz-adv-x="752" 
d="M423 706c74 0 153 -17 216 -49l-10 -29c-42 21 -112 47 -200 47c-196 0 -329 -131 -329 -325c0 -192 137 -325 320 -325c81 0 169 27 228 89v188h-195v29h233v-230c-83 -85 -176 -107 -271 -107c-195 0 -355 139 -355 355c0 217 154 357 363 357zM537 743h-37l-86 88
l-86 -88h-36l105 109h34z" />
    <glyph glyph-name="Gcommaaccent" unicode="&#x122;" horiz-adv-x="752" 
d="M423 706c74 0 153 -17 216 -49l-10 -29c-42 21 -112 47 -200 47c-196 0 -329 -131 -329 -325c0 -192 137 -325 320 -325c81 0 169 27 228 89v188h-195v29h233v-230c-83 -85 -176 -107 -271 -107c-195 0 -355 139 -355 355c0 217 154 357 363 357zM404 -49h31
c0 -53 -4 -57 -12 -115h-26c5 44 8 64 7 115z" />
    <glyph glyph-name="Gdotaccent" unicode="&#x120;" horiz-adv-x="752" 
d="M423 706c74 0 153 -17 216 -49l-10 -29c-42 21 -112 47 -200 47c-196 0 -329 -131 -329 -325c0 -192 137 -325 320 -325c81 0 169 27 228 89v188h-195v29h233v-230c-83 -85 -176 -107 -271 -107c-195 0 -355 139 -355 355c0 217 154 357 363 357zM416 828
c18 0 26 -9 26 -25s-8 -25 -26 -25s-27 9 -27 25s9 25 27 25z" />
    <glyph glyph-name="H" unicode="H" horiz-adv-x="750" 
d="M642 700v-700h-38v335h-458v-335h-38v700h38v-334h458v334h38z" />
    <glyph glyph-name="Hbar" unicode="&#x126;" horiz-adv-x="749" 
d="M642 700v-134h62v-21h-62v-545h-38v335h-458v-335h-38v545h-63v21h63v134h38v-134h458v134h38zM146 366h458v179h-458v-179z" />
    <glyph glyph-name="Hcircumflex" unicode="&#x124;" horiz-adv-x="750" 
d="M642 700v-700h-38v335h-458v-335h-38v700h38v-334h458v334h38zM498 743h-37l-86 88l-86 -88h-36l105 109h34z" />
    <glyph glyph-name="I" unicode="I" horiz-adv-x="254" 
d="M146 700v-700h-38v700h38z" />
    <glyph glyph-name="Iacute" unicode="&#xcd;" horiz-adv-x="254" 
d="M146 700v-700h-38v700h38zM210 852l-66 -109h-28l59 109h35z" />
    <glyph glyph-name="Ibreve" unicode="&#x12c;" horiz-adv-x="254" 
d="M146 700v-700h-38v700h38zM217 859l28 -4c-14 -66 -55 -95 -118 -95c-64 0 -104 29 -118 95l28 4c12 -44 31 -74 90 -74s77 30 90 74z" />
    <glyph glyph-name="Icircumflex" unicode="&#xce;" horiz-adv-x="254" 
d="M146 700v-700h-38v700h38zM251 743h-37l-86 88l-86 -88h-36l105 109h34z" />
    <glyph glyph-name="Idieresis" unicode="&#xcf;" horiz-adv-x="254" 
d="M146 700v-700h-38v700h38zM37 827c19 0 28 -9 28 -25s-9 -25 -28 -25c-17 0 -26 9 -26 25s9 25 26 25zM218 827c18 0 26 -9 26 -25s-8 -25 -26 -25s-27 9 -27 25s9 25 27 25z" />
    <glyph glyph-name="Idotaccent" unicode="&#x130;" horiz-adv-x="254" 
d="M146 700v-700h-38v700h38zM128 828c18 0 26 -9 26 -25s-8 -25 -26 -25s-27 9 -27 25s9 25 27 25z" />
    <glyph glyph-name="Igrave" unicode="&#xcc;" horiz-adv-x="254" 
d="M146 700v-700h-38v700h38zM107 850l46 -107h-28l-53 107h35z" />
    <glyph glyph-name="Imacron" unicode="&#x12a;" horiz-adv-x="254" 
d="M146 700v-700h-38v700h38zM270 823v-24h-287v24h287z" />
    <glyph glyph-name="Iogonek" unicode="&#x12e;" horiz-adv-x="254" 
d="M146 700v-700c-47 -28 -66 -60 -66 -96c0 -30 19 -48 48 -48c10 0 21 2 34 6l2 -23c-17 -7 -33 -8 -42 -8c-44 0 -72 22 -72 68c0 42 26 76 61 101h-3v700h38z" />
    <glyph glyph-name="Itilde" unicode="&#x128;" horiz-adv-x="254" 
d="M146 700v-700h-38v700h38zM246 841l15 -6c-13 -38 -40 -56 -72 -56c-24 0 -46 11 -66 20s-40 21 -62 21c-24 0 -44 -15 -53 -34l-15 6c14 38 41 56 72 56c24 0 46 -10 67 -20c19 -9 40 -22 62 -22c24 0 43 16 52 35z" />
    <glyph glyph-name="J" unicode="J" horiz-adv-x="524" 
d="M424 700v-485c0 -146 -92 -221 -211 -221c-102 0 -169 65 -193 120l24 19c24 -56 87 -108 168 -108c94 0 174 62 174 190v485h38z" />
    <glyph glyph-name="Jcircumflex" unicode="&#x134;" horiz-adv-x="524" 
d="M424 700v-485c0 -146 -92 -221 -211 -221c-102 0 -169 65 -193 120l24 19c24 -56 87 -108 168 -108c94 0 174 62 174 190v485h38zM529 743h-37l-86 88l-86 -88h-36l105 109h34z" />
    <glyph glyph-name="K" unicode="K" horiz-adv-x="660" 
d="M604 700l-250 -262l275 -438h-45l-256 411l-182 -191v-220h-38v700h38v-431l412 431h46z" />
    <glyph glyph-name="Kcommaaccent" unicode="&#x136;" horiz-adv-x="660" 
d="M604 700l-250 -262l275 -438h-45l-256 411l-182 -191v-220h-38v700h38v-431l412 431h46zM317 -45h31c0 -53 -4 -57 -12 -115h-26c5 44 8 64 7 115z" />
    <glyph glyph-name="L" unicode="L" horiz-adv-x="556" 
d="M146 700v-669h391v-31h-429v700h38z" />
    <glyph glyph-name="Lacute" unicode="&#x139;" horiz-adv-x="556" 
d="M146 700v-669h391v-31h-429v700h38zM210 852l-66 -109h-28l59 109h35z" />
    <glyph glyph-name="Lcaron" unicode="&#x13d;" horiz-adv-x="556" 
d="M343 700h27c0 -53 -1 -81 -9 -140h-18v140zM146 700v-669h391v-31h-429v700h38z" />
    <glyph glyph-name="Lcommaaccent" unicode="&#x13b;" horiz-adv-x="556" 
d="M146 700v-669h391v-31h-429v700h38zM300 -45h31c0 -53 -4 -57 -12 -115h-26c5 44 8 64 7 115z" />
    <glyph glyph-name="Lslash" unicode="&#x141;" horiz-adv-x="556" 
d="M146 700v-371l168 101v-23l-168 -101v-275h391v-31h-429v284l-80 -48v22l80 48v394h38z" />
    <glyph glyph-name="M" unicode="M" horiz-adv-x="906" 
d="M798 700v-700h-38v568l3 83h-1l-290 -559h-37l-291 559h-1l3 -83v-568h-38v700h52l294 -571l293 571h51z" />
    <glyph glyph-name="N" unicode="N" horiz-adv-x="734" 
d="M626 700v-700h-40l-440 641v-641h-38v700h41l439 -639v639h38z" />
    <glyph glyph-name="Nacute" unicode="&#x143;" horiz-adv-x="734" 
d="M626 700v-700h-40l-440 641v-641h-38v700h41l439 -639v639h38zM459 852l-66 -109h-28l59 109h35z" />
    <glyph glyph-name="Ncaron" unicode="&#x147;" horiz-adv-x="734" 
d="M626 700v-700h-40l-440 641v-641h-38v700h41l439 -639v639h38zM499 852l-106 -109h-34l-105 109h36l86 -88l86 88h37z" />
    <glyph glyph-name="Ncommaaccent" unicode="&#x145;" horiz-adv-x="734" 
d="M626 700v-700h-40l-440 641v-641h-38v700h41l439 -639v639h38zM351 -45h31c0 -53 -4 -57 -12 -115h-26c5 44 8 64 7 115z" />
    <glyph glyph-name="Eng" unicode="&#x14a;" horiz-adv-x="734" 
d="M626 700v-709c0 -82 -51 -114 -119 -139l-9 26c27 12 89 33 89 109v13l-441 643v-643h-38v700h41l439 -639v639h38z" />
    <glyph glyph-name="Ntilde" unicode="&#xd1;" horiz-adv-x="735" 
d="M626 700v-700h-40l-440 641v-641h-38v700h41l439 -639v639h38zM499 841l15 -6c-13 -38 -40 -56 -72 -56c-24 0 -46 11 -66 20s-40 21 -62 21c-24 0 -44 -15 -53 -34l-15 6c14 38 41 56 72 56c24 0 46 -10 67 -20c19 -9 40 -22 62 -22c24 0 43 16 52 35z" />
    <glyph glyph-name="O" unicode="O" horiz-adv-x="793" 
d="M397 706c204 0 344 -137 344 -358c0 -218 -139 -354 -344 -354c-203 0 -345 136 -345 354c0 221 143 358 345 358zM397 675c-178 0 -305 -123 -305 -327c0 -202 126 -323 305 -323c181 0 304 121 304 323s-122 327 -304 327z" />
    <glyph glyph-name="Oacute" unicode="&#xd3;" horiz-adv-x="793" 
d="M397 706c204 0 344 -137 344 -358c0 -218 -139 -354 -344 -354c-203 0 -345 136 -345 354c0 221 143 358 345 358zM397 675c-178 0 -305 -123 -305 -327c0 -202 126 -323 305 -323c181 0 304 121 304 323s-122 327 -304 327zM458 852l-66 -109h-28l59 109h35z" />
    <glyph glyph-name="Obreve" unicode="&#x14e;" horiz-adv-x="793" 
d="M397 706c204 0 344 -137 344 -358c0 -218 -139 -354 -344 -354c-203 0 -345 136 -345 354c0 221 143 358 345 358zM397 675c-178 0 -305 -123 -305 -327c0 -202 126 -323 305 -323c181 0 304 121 304 323s-122 327 -304 327zM487 859l28 -4c-14 -66 -55 -95 -118 -95
c-64 0 -104 29 -118 95l28 4c12 -44 31 -74 90 -74s77 30 90 74z" />
    <glyph glyph-name="Ocircumflex" unicode="&#xd4;" horiz-adv-x="793" 
d="M397 706c204 0 344 -137 344 -358c0 -218 -139 -354 -344 -354c-203 0 -345 136 -345 354c0 221 143 358 345 358zM397 675c-178 0 -305 -123 -305 -327c0 -202 126 -323 305 -323c181 0 304 121 304 323s-122 327 -304 327zM521 743h-37l-86 88l-86 -88h-36l105 109h34z
" />
    <glyph glyph-name="Odieresis" unicode="&#xd6;" horiz-adv-x="793" 
d="M397 706c204 0 344 -137 344 -358c0 -218 -139 -354 -344 -354c-203 0 -345 136 -345 354c0 221 143 358 345 358zM397 675c-178 0 -305 -123 -305 -327c0 -202 126 -323 305 -323c181 0 304 121 304 323s-122 327 -304 327zM307 827c19 0 28 -9 28 -25s-9 -25 -28 -25
c-17 0 -26 9 -26 25s9 25 26 25zM488 827c18 0 26 -9 26 -25s-8 -25 -26 -25s-27 9 -27 25s9 25 27 25z" />
    <glyph glyph-name="Ograve" unicode="&#xd2;" horiz-adv-x="793" 
d="M397 706c204 0 344 -137 344 -358c0 -218 -139 -354 -344 -354c-203 0 -345 136 -345 354c0 221 143 358 345 358zM397 675c-178 0 -305 -123 -305 -327c0 -202 126 -323 305 -323c181 0 304 121 304 323s-122 327 -304 327zM394 850l46 -107h-28l-53 107h35z" />
    <glyph glyph-name="Ohungarumlaut" unicode="&#x150;" horiz-adv-x="793" 
d="M397 706c204 0 344 -137 344 -358c0 -218 -139 -354 -344 -354c-203 0 -345 136 -345 354c0 221 143 358 345 358zM397 675c-178 0 -305 -123 -305 -327c0 -202 126 -323 305 -323c181 0 304 121 304 323s-122 327 -304 327zM512 852l-53 -109h-28l46 109h35zM397 852
l-53 -109h-28l46 109h35z" />
    <glyph glyph-name="Omacron" unicode="&#x14c;" horiz-adv-x="793" 
d="M397 706c204 0 344 -137 344 -358c0 -218 -139 -354 -344 -354c-203 0 -345 136 -345 354c0 221 143 358 345 358zM397 675c-178 0 -305 -123 -305 -327c0 -202 126 -323 305 -323c181 0 304 121 304 323s-122 327 -304 327zM540 823v-24h-287v24h287z" />
    <glyph glyph-name="Oslash" unicode="&#xd8;" horiz-adv-x="793" 
d="M397 706c69 0 132 -16 183 -46l44 68h28l-52 -81c88 -60 141 -164 141 -299c0 -218 -139 -354 -344 -354c-71 0 -135 16 -188 47l-44 -69h-28l53 82c-86 60 -138 162 -138 294c0 221 143 358 345 358zM701 348c0 121 -45 215 -120 270l-353 -548c47 -30 104 -45 169 -45
c181 0 304 121 304 323zM397 675c-178 0 -305 -123 -305 -327c0 -119 44 -210 116 -265l354 549c-46 28 -102 43 -165 43z" />
    <glyph glyph-name="Oslashacute" unicode="&#x1fe;" horiz-adv-x="793" 
d="M397 706c69 0 132 -16 183 -46l44 68h28l-52 -81c88 -60 141 -164 141 -299c0 -218 -139 -354 -344 -354c-71 0 -135 16 -188 47l-44 -69h-28l53 82c-86 60 -138 162 -138 294c0 221 143 358 345 358zM701 348c0 121 -45 215 -120 270l-353 -548c47 -30 104 -45 169 -45
c181 0 304 121 304 323zM397 675c-178 0 -305 -123 -305 -327c0 -119 44 -210 116 -265l354 549c-46 28 -102 43 -165 43zM480 852l-66 -109h-28l59 109h35z" />
    <glyph glyph-name="Otilde" unicode="&#xd5;" horiz-adv-x="793" 
d="M397 706c204 0 344 -137 344 -358c0 -218 -139 -354 -344 -354c-203 0 -345 136 -345 354c0 221 143 358 345 358zM397 675c-178 0 -305 -123 -305 -327c0 -202 126 -323 305 -323c181 0 304 121 304 323s-122 327 -304 327zM517 841l15 -6c-13 -38 -40 -56 -72 -56
c-24 0 -46 11 -66 20s-40 21 -62 21c-24 0 -44 -15 -53 -34l-15 6c14 38 41 56 72 56c24 0 46 -10 67 -20c19 -9 40 -22 62 -22c24 0 43 16 52 35z" />
    <glyph glyph-name="OE" unicode="&#x152;" horiz-adv-x="1246" 
d="M1176 700v-31h-434v-313h374v-31h-374v-294h452v-31h-490v181c-53 -116 -163 -187 -307 -187c-203 0 -345 136 -345 354c0 221 143 358 345 358c144 0 254 -72 307 -189v183h472zM397 675c-177 0 -304 -123 -304 -327c0 -202 126 -323 304 -323c180 0 303 121 303 323
s-122 327 -303 327z" />
    <glyph glyph-name="P" unicode="P" horiz-adv-x="672" 
d="M108 700h308c131 0 216 -98 216 -213c0 -117 -86 -213 -215 -213h-271v-274h-38v700zM409 669h-263v-364h263c109 0 183 80 183 182c0 101 -74 182 -183 182z" />
    <glyph glyph-name="Thorn" unicode="&#xde;" horiz-adv-x="664" 
d="M146 558h287c118 0 191 -92 191 -203c0 -110 -73 -203 -190 -203h-288v-152h-38v700h38v-142zM146 182h282c96 0 157 78 158 173c0 95 -62 173 -158 173h-282v-346z" />
    <glyph glyph-name="Q" unicode="Q" horiz-adv-x="793" 
d="M397 706c204 0 344 -137 344 -358c0 -187 -102 -312 -258 -345c74 -41 163 -73 229 -92l-11 -31c-35 7 -165 59 -261 116c-15 -1 -30 -2 -45 -2c-202 0 -343 136 -343 354c0 221 143 358 345 358zM397 675c-178 0 -305 -123 -305 -327c0 -202 126 -323 305 -323
c181 0 304 121 304 323s-122 327 -304 327z" />
    <glyph glyph-name="R" unicode="R" horiz-adv-x="684" 
d="M108 700h324c117 0 197 -82 197 -192c0 -100 -65 -174 -161 -191l154 -317h-41l-151 315h-284v-315h-38v700zM427 669h-281v-323h281c97 0 162 71 162 162c0 92 -64 161 -162 161z" />
    <glyph glyph-name="Racute" unicode="&#x154;" horiz-adv-x="684" 
d="M108 700h324c117 0 197 -82 197 -192c0 -100 -65 -174 -161 -191l154 -317h-41l-151 315h-284v-315h-38v700zM427 669h-281v-323h281c97 0 162 71 162 162c0 92 -64 161 -162 161zM393 852l-66 -109h-28l59 109h35z" />
    <glyph glyph-name="Rcaron" unicode="&#x158;" horiz-adv-x="684" 
d="M108 700h324c117 0 197 -82 197 -192c0 -100 -65 -174 -161 -191l154 -317h-41l-151 315h-284v-315h-38v700zM427 669h-281v-323h281c97 0 162 71 162 162c0 92 -64 161 -162 161zM461 852l-106 -109h-34l-105 109h36l86 -88l86 88h37z" />
    <glyph glyph-name="Rcommaaccent" unicode="&#x156;" horiz-adv-x="684" 
d="M108 700h324c117 0 197 -82 197 -192c0 -100 -65 -174 -161 -191l154 -317h-41l-151 315h-284v-315h-38v700zM427 669h-281v-323h281c97 0 162 71 162 162c0 92 -64 161 -162 161zM341 -45h31c0 -53 -4 -57 -12 -115h-26c5 44 8 64 7 115z" />
    <glyph glyph-name="S" unicode="S" horiz-adv-x="599" 
d="M300 706c94 0 174 -29 216 -46l-10 -30c-4 2 -93 45 -204 45c-114 0 -200 -47 -200 -143c0 -106 105 -133 212 -164c120 -31 236 -66 236 -191c0 -121 -97 -183 -244 -183c-110 0 -210 39 -249 58l9 30c35 -15 128 -57 239 -57c134 0 206 56 206 148
c0 104 -104 131 -211 161c-117 31 -237 66 -237 195c0 113 91 177 237 177z" />
    <glyph glyph-name="Sacute" unicode="&#x15a;" horiz-adv-x="599" 
d="M300 706c94 0 174 -29 216 -46l-10 -30c-4 2 -93 45 -204 45c-114 0 -200 -47 -200 -143c0 -106 105 -133 212 -164c120 -31 236 -66 236 -191c0 -121 -97 -183 -244 -183c-110 0 -210 39 -249 58l9 30c35 -15 128 -57 239 -57c134 0 206 56 206 148
c0 104 -104 131 -211 161c-117 31 -237 66 -237 195c0 113 91 177 237 177zM376 852l-66 -109h-28l59 109h35z" />
    <glyph glyph-name="Scaron" unicode="&#x160;" horiz-adv-x="599" 
d="M300 706c94 0 174 -29 216 -46l-10 -30c-4 2 -93 45 -204 45c-114 0 -200 -47 -200 -143c0 -106 105 -133 212 -164c120 -31 236 -66 236 -191c0 -121 -97 -183 -244 -183c-110 0 -210 39 -249 58l9 30c35 -15 128 -57 239 -57c134 0 206 56 206 148
c0 104 -104 131 -211 161c-117 31 -237 66 -237 195c0 113 91 177 237 177zM430 852l-106 -109h-34l-105 109h36l86 -88l86 88h37z" />
    <glyph glyph-name="Scedilla" unicode="&#x15e;" horiz-adv-x="599" 
d="M300 706c94 0 174 -29 216 -46l-10 -30c-4 2 -93 45 -204 45c-114 0 -200 -47 -200 -143c0 -106 105 -133 212 -164c120 -31 236 -66 236 -191c0 -117 -91 -179 -229 -183l-19 -60c29 1 84 -4 84 -61c0 -50 -39 -64 -87 -64c-27 0 -54 7 -69 14l4 21c13 -6 40 -12 62 -12
c25 0 60 6 60 40c0 45 -49 44 -75 39l-9 11l23 72c-106 3 -201 39 -238 58l9 30c35 -15 128 -57 239 -57c134 0 206 56 206 148c0 104 -104 131 -211 161c-117 31 -237 66 -237 195c0 113 91 177 237 177z" />
    <glyph glyph-name="Scircumflex" unicode="&#x15c;" horiz-adv-x="599" 
d="M300 706c94 0 174 -29 216 -46l-10 -30c-4 2 -93 45 -204 45c-114 0 -200 -47 -200 -143c0 -106 105 -133 212 -164c120 -31 236 -66 236 -191c0 -121 -97 -183 -244 -183c-110 0 -210 39 -249 58l9 30c35 -15 128 -57 239 -57c134 0 206 56 206 148
c0 104 -104 131 -211 161c-117 31 -237 66 -237 195c0 113 91 177 237 177zM430 743h-37l-86 88l-86 -88h-36l105 109h34z" />
    <glyph glyph-name="Scommaaccent" unicode="&#x218;" horiz-adv-x="599" 
d="M300 706c94 0 174 -29 216 -46l-10 -30c-4 2 -93 45 -204 45c-114 0 -200 -47 -200 -143c0 -106 105 -133 212 -164c120 -31 236 -66 236 -191c0 -121 -97 -183 -244 -183c-110 0 -210 39 -249 58l9 30c35 -15 128 -57 239 -57c134 0 206 56 206 148
c0 104 -104 131 -211 161c-117 31 -237 66 -237 195c0 113 91 177 237 177zM299 -45h31c0 -53 -4 -57 -12 -115h-26c5 44 8 64 7 115z" />
    <glyph glyph-name="T" unicode="T" horiz-adv-x="574" 
d="M560 700v-31h-254v-669h-38v669h-254v31h546z" />
    <glyph glyph-name="Tbar" unicode="&#x166;" horiz-adv-x="574" 
d="M560 700v-31h-254v-296h189v-21h-189v-352h-38v352h-190v21h190v296h-254v31h546z" />
    <glyph glyph-name="Tcaron" unicode="&#x164;" horiz-adv-x="574" 
d="M560 700v-31h-254v-669h-38v669h-254v31h546zM410 852l-106 -109h-34l-105 109h36l86 -88l86 88h37z" />
    <glyph glyph-name="Tcommaaccent" unicode="&#x162;" horiz-adv-x="574" 
d="M560 700v-31h-254v-669h-38v669h-254v31h546zM270 -45h31c0 -53 -4 -57 -12 -115h-26c5 44 8 64 7 115z" />
    <glyph glyph-name="U" unicode="U" horiz-adv-x="711" 
d="M615 700v-469c0 -152 -116 -237 -259 -237c-147 0 -260 87 -260 237v469h38v-473c0 -125 100 -202 222 -202c121 0 221 78 221 202v473h38z" />
    <glyph glyph-name="Uacute" unicode="&#xda;" horiz-adv-x="711" 
d="M615 700v-469c0 -152 -116 -237 -259 -237c-147 0 -260 87 -260 237v469h38v-473c0 -125 100 -202 222 -202c121 0 221 78 221 202v473h38zM439 852l-66 -109h-28l59 109h35z" />
    <glyph glyph-name="Ubreve" unicode="&#x16c;" horiz-adv-x="711" 
d="M615 700v-469c0 -152 -116 -237 -259 -237c-147 0 -260 87 -260 237v469h38v-473c0 -125 100 -202 222 -202c121 0 221 78 221 202v473h38zM446 859l28 -4c-14 -66 -55 -95 -118 -95c-64 0 -104 29 -118 95l28 4c12 -44 31 -74 90 -74s77 30 90 74z" />
    <glyph glyph-name="Ucircumflex" unicode="&#xdb;" horiz-adv-x="711" 
d="M615 700v-469c0 -152 -116 -237 -259 -237c-147 0 -260 87 -260 237v469h38v-473c0 -125 100 -202 222 -202c121 0 221 78 221 202v473h38zM480 743h-37l-86 88l-86 -88h-36l105 109h34z" />
    <glyph glyph-name="Udieresis" unicode="&#xdc;" horiz-adv-x="711" 
d="M615 700v-469c0 -152 -116 -237 -259 -237c-147 0 -260 87 -260 237v469h38v-473c0 -125 100 -202 222 -202c121 0 221 78 221 202v473h38zM266 827c19 0 28 -9 28 -25s-9 -25 -28 -25c-17 0 -26 9 -26 25s9 25 26 25zM447 827c18 0 26 -9 26 -25s-8 -25 -26 -25
s-27 9 -27 25s9 25 27 25z" />
    <glyph glyph-name="Ugrave" unicode="&#xd9;" horiz-adv-x="711" 
d="M615 700v-469c0 -152 -116 -237 -259 -237c-147 0 -260 87 -260 237v469h38v-473c0 -125 100 -202 222 -202c121 0 221 78 221 202v473h38zM336 850l46 -107h-28l-53 107h35z" />
    <glyph glyph-name="Uhungarumlaut" unicode="&#x170;" horiz-adv-x="711" 
d="M615 700v-469c0 -152 -116 -237 -259 -237c-147 0 -260 87 -260 237v469h38v-473c0 -125 100 -202 222 -202c121 0 221 78 221 202v473h38zM471 852l-53 -109h-28l46 109h35zM356 852l-53 -109h-28l46 109h35z" />
    <glyph glyph-name="Umacron" unicode="&#x16a;" horiz-adv-x="711" 
d="M615 700v-469c0 -152 -116 -237 -259 -237c-147 0 -260 87 -260 237v469h38v-473c0 -125 100 -202 222 -202c121 0 221 78 221 202v473h38zM499 823v-24h-287v24h287z" />
    <glyph glyph-name="Uogonek" unicode="&#x172;" horiz-adv-x="711" 
d="M615 700v-469c0 -129 -84 -209 -196 -231c-38 -24 -56 -60 -56 -94c0 -37 23 -50 51 -50c8 0 21 2 33 6l2 -23c-17 -7 -33 -8 -42 -8c-43 0 -75 20 -75 70c0 37 20 69 52 94c-10 0 -19 -1 -28 -1c-147 0 -260 87 -260 237v469h38v-473c0 -125 100 -202 222 -202
c121 0 221 78 221 202v473h38z" />
    <glyph glyph-name="Uring" unicode="&#x16e;" horiz-adv-x="711" 
d="M615 700v-469c0 -152 -116 -237 -259 -237c-147 0 -260 87 -260 237v469h38v-473c0 -125 100 -202 222 -202c121 0 221 78 221 202v473h38zM356 906c48 0 84 -28 84 -79c0 -50 -36 -79 -84 -79s-84 29 -84 79c0 51 36 79 84 79zM355 884c-32 0 -57 -20 -57 -57
c0 -36 25 -57 57 -57c33 0 59 21 59 57c0 37 -26 57 -59 57z" />
    <glyph glyph-name="Utilde" unicode="&#x168;" horiz-adv-x="711" 
d="M615 700v-469c0 -152 -116 -237 -259 -237c-147 0 -260 87 -260 237v469h38v-473c0 -125 100 -202 222 -202c121 0 221 78 221 202v473h38zM482 841l15 -6c-13 -38 -40 -56 -72 -56c-24 0 -46 11 -66 20s-40 21 -62 21c-24 0 -44 -15 -53 -34l-15 6c14 38 41 56 72 56
c24 0 46 -10 67 -20c19 -9 40 -22 62 -22c24 0 43 16 52 35z" />
    <glyph glyph-name="V" unicode="V" horiz-adv-x="650" 
d="M620 700l-272 -700h-45l-273 700h41l254 -657l255 657h40z" />
    <glyph glyph-name="W" unicode="W" horiz-adv-x="958" 
d="M915 700l-205 -700h-46l-185 630l-184 -630h-47l-205 700h42l117 -402c24 -85 49 -178 70 -251h1l185 640h42l186 -640h1c22 75 46 169 71 256l115 397h42z" />
    <glyph glyph-name="Wacute" unicode="&#x1e82;" horiz-adv-x="958" 
d="M915 700l-205 -700h-46l-185 630l-184 -630h-47l-205 700h42l117 -402c24 -85 49 -178 70 -251h1l185 640h42l186 -640h1c22 75 46 169 71 256l115 397h42zM562 852l-66 -109h-28l59 109h35z" />
    <glyph glyph-name="Wcircumflex" unicode="&#x174;" horiz-adv-x="958" 
d="M915 700l-205 -700h-46l-185 630l-184 -630h-47l-205 700h42l117 -402c24 -85 49 -178 70 -251h1l185 640h42l186 -640h1c22 75 46 169 71 256l115 397h42zM603 743h-37l-86 88l-86 -88h-36l105 109h34z" />
    <glyph glyph-name="Wdieresis" unicode="&#x1e84;" horiz-adv-x="958" 
d="M915 700l-205 -700h-46l-185 630l-184 -630h-47l-205 700h42l117 -402c24 -85 49 -178 70 -251h1l185 640h42l186 -640h1c22 75 46 169 71 256l115 397h42zM389 827c19 0 28 -9 28 -25s-9 -25 -28 -25c-17 0 -26 9 -26 25s9 25 26 25zM570 827c18 0 26 -9 26 -25
s-8 -25 -26 -25s-27 9 -27 25s9 25 27 25z" />
    <glyph glyph-name="Wgrave" unicode="&#x1e80;" horiz-adv-x="958" 
d="M915 700l-205 -700h-46l-185 630l-184 -630h-47l-205 700h42l117 -402c24 -85 49 -178 70 -251h1l185 640h42l186 -640h1c22 75 46 169 71 256l115 397h42zM459 850l46 -107h-28l-53 107h35z" />
    <glyph glyph-name="X" unicode="X" horiz-adv-x="635" 
d="M607 700l-264 -351l266 -349h-50l-241 320l-244 -320h-47l266 343l-267 357h48l243 -328l244 328h46z" />
    <glyph glyph-name="Y" unicode="Y" horiz-adv-x="603" 
d="M321 0h-38v285l-251 415h40l229 -382l230 382h40l-250 -413v-287z" />
    <glyph glyph-name="Yacute" unicode="&#xdd;" horiz-adv-x="603" 
d="M321 0h-38v285l-251 415h40l229 -382l230 382h40l-250 -413v-287zM385 852l-66 -109h-28l59 109h35z" />
    <glyph glyph-name="Ycircumflex" unicode="&#x176;" horiz-adv-x="603" 
d="M321 0h-38v285l-251 415h40l229 -382l230 382h40l-250 -413v-287zM426 743h-37l-86 88l-86 -88h-36l105 109h34z" />
    <glyph glyph-name="Ydieresis" unicode="&#x178;" horiz-adv-x="603" 
d="M321 0h-38v285l-251 415h40l229 -382l230 382h40l-250 -413v-287zM212 827c19 0 28 -9 28 -25s-9 -25 -28 -25c-17 0 -26 9 -26 25s9 25 26 25zM393 827c18 0 26 -9 26 -25s-8 -25 -26 -25s-27 9 -27 25s9 25 27 25z" />
    <glyph glyph-name="Ygrave" unicode="&#x1ef2;" horiz-adv-x="603" 
d="M321 0h-38v285l-251 415h40l229 -382l230 382h40l-250 -413v-287zM282 850l46 -107h-28l-53 107h35z" />
    <glyph glyph-name="Z" unicode="Z" horiz-adv-x="605" 
d="M559 700v-28l-479 -643l238 2h241v-31h-522v28l478 643l-230 -2h-235v31h509z" />
    <glyph glyph-name="Zacute" unicode="&#x179;" horiz-adv-x="605" 
d="M559 700v-28l-479 -643l238 2h241v-31h-522v28l478 643l-230 -2h-235v31h509zM385 852l-66 -109h-28l59 109h35z" />
    <glyph glyph-name="Zcaron" unicode="&#x17d;" horiz-adv-x="605" 
d="M559 700v-28l-479 -643l238 2h241v-31h-522v28l478 643l-230 -2h-235v31h509zM425 852l-106 -109h-34l-105 109h36l86 -88l86 88h37z" />
    <glyph glyph-name="Zdotaccent" unicode="&#x17b;" horiz-adv-x="605" 
d="M559 700v-28l-479 -643l238 2h241v-31h-522v28l478 643l-230 -2h-235v31h509zM303 828c18 0 26 -9 26 -25s-8 -25 -26 -25s-27 9 -27 25s9 25 27 25z" />
    <glyph glyph-name="J.alt" horiz-adv-x="259" 
d="M158 700v-670c0 -93 -74 -145 -136 -171l-13 26c30 15 112 57 112 145v639h-58v31h95z" />
    <glyph glyph-name="Jcircumflex.alt" horiz-adv-x="259" 
d="M158 700v-670c0 -93 -74 -145 -136 -171l-13 26c30 15 112 57 112 145v639h-58v31h95zM254 743h-37l-86 88l-86 -88h-36l105 109h34z" />
    <glyph glyph-name="a" unicode="a" horiz-adv-x="573" 
d="M284 526c131 0 195 -38 195 -160v-306c0 -27 17 -32 36 -32c8 0 18 1 28 2l1 -27c-10 -2 -29 -5 -42 -5c-41 0 -59 23 -59 55v51c-36 -62 -107 -110 -211 -110c-110 0 -189 46 -189 153c0 118 93 158 217 158c87 0 153 -8 183 -12v76c0 104 -62 128 -164 128
c-58 0 -129 -10 -183 -25l-5 29c59 15 126 25 193 25zM240 23c109 0 203 72 203 169v74c-28 4 -93 12 -180 12c-106 0 -184 -34 -184 -129s74 -126 161 -126z" />
    <glyph glyph-name="aacute" unicode="&#xe1;" horiz-adv-x="573" 
d="M284 526c131 0 195 -38 195 -160v-306c0 -27 17 -32 36 -32c8 0 18 1 28 2l1 -27c-10 -2 -29 -5 -42 -5c-41 0 -59 23 -59 55v51c-36 -62 -107 -110 -211 -110c-110 0 -189 46 -189 153c0 118 93 158 217 158c87 0 153 -8 183 -12v76c0 104 -62 128 -164 128
c-58 0 -129 -10 -183 -25l-5 29c59 15 126 25 193 25zM240 23c109 0 203 72 203 169v74c-28 4 -93 12 -180 12c-106 0 -184 -34 -184 -129s74 -126 161 -126zM372 731l-66 -148h-28l59 148h35z" />
    <glyph glyph-name="abreve" unicode="&#x103;" horiz-adv-x="573" 
d="M284 526c131 0 195 -38 195 -160v-306c0 -27 17 -32 36 -32c8 0 18 1 28 2l1 -27c-10 -2 -29 -5 -42 -5c-41 0 -59 23 -59 55v51c-36 -62 -107 -110 -211 -110c-110 0 -189 46 -189 153c0 118 93 158 217 158c87 0 153 -8 183 -12v76c0 104 -62 128 -164 128
c-58 0 -129 -10 -183 -25l-5 29c59 15 126 25 193 25zM240 23c109 0 203 72 203 169v74c-28 4 -93 12 -180 12c-106 0 -184 -34 -184 -129s74 -126 161 -126zM375 701l29 -4c-14 -66 -55 -97 -118 -97c-64 0 -104 31 -118 97l29 4c12 -44 30 -76 89 -76s76 32 89 76z" />
    <glyph glyph-name="acircumflex" unicode="&#xe2;" horiz-adv-x="573" 
d="M284 526c131 0 195 -38 195 -160v-306c0 -27 17 -32 36 -32c8 0 18 1 28 2l1 -27c-10 -2 -29 -5 -42 -5c-41 0 -59 23 -59 55v51c-36 -62 -107 -110 -211 -110c-110 0 -189 46 -189 153c0 118 93 158 217 158c87 0 153 -8 183 -12v76c0 104 -62 128 -164 128
c-58 0 -129 -10 -183 -25l-5 29c59 15 126 25 193 25zM240 23c109 0 203 72 203 169v74c-28 4 -93 12 -180 12c-106 0 -184 -34 -184 -129s74 -126 161 -126zM420 583h-37l-86 128l-86 -128h-36l105 149h34z" />
    <glyph glyph-name="adieresis" unicode="&#xe4;" horiz-adv-x="573" 
d="M284 526c131 0 195 -38 195 -160v-306c0 -27 17 -32 36 -32c8 0 18 1 28 2l1 -27c-10 -2 -29 -5 -42 -5c-41 0 -59 23 -59 55v51c-36 -62 -107 -110 -211 -110c-110 0 -189 46 -189 153c0 118 93 158 217 158c87 0 153 -8 183 -12v76c0 104 -62 128 -164 128
c-58 0 -129 -10 -183 -25l-5 29c59 15 126 25 193 25zM240 23c109 0 203 72 203 169v74c-28 4 -93 12 -180 12c-106 0 -184 -34 -184 -129s74 -126 161 -126zM204 667c19 0 28 -9 28 -25s-9 -25 -28 -25c-17 0 -26 9 -26 25s9 25 26 25zM385 667c18 0 26 -9 26 -25
s-8 -25 -26 -25s-27 9 -27 25s9 25 27 25z" />
    <glyph glyph-name="agrave" unicode="&#xe0;" horiz-adv-x="573" 
d="M284 526c131 0 195 -38 195 -160v-306c0 -27 17 -32 36 -32c8 0 18 1 28 2l1 -27c-10 -2 -29 -5 -42 -5c-41 0 -59 23 -59 55v51c-36 -62 -107 -110 -211 -110c-110 0 -189 46 -189 153c0 118 93 158 217 158c87 0 153 -8 183 -12v76c0 104 -62 128 -164 128
c-58 0 -129 -10 -183 -25l-5 29c59 15 126 25 193 25zM240 23c109 0 203 72 203 169v74c-28 4 -93 12 -180 12c-106 0 -184 -34 -184 -129s74 -126 161 -126zM247 730h35l46 -147h-28z" />
    <glyph glyph-name="amacron" unicode="&#x101;" horiz-adv-x="573" 
d="M284 526c131 0 195 -38 195 -160v-306c0 -27 17 -32 36 -32c8 0 18 1 28 2l1 -27c-10 -2 -29 -5 -42 -5c-41 0 -59 23 -59 55v51c-36 -62 -107 -110 -211 -110c-110 0 -189 46 -189 153c0 118 93 158 217 158c87 0 153 -8 183 -12v76c0 104 -62 128 -164 128
c-58 0 -129 -10 -183 -25l-5 29c59 15 126 25 193 25zM240 23c109 0 203 72 203 169v74c-28 4 -93 12 -180 12c-106 0 -184 -34 -184 -129s74 -126 161 -126zM430 663v-24h-287v24h287z" />
    <glyph glyph-name="aogonek" unicode="&#x105;" horiz-adv-x="573" 
d="M284 526c131 0 195 -38 195 -160v-306c0 -27 17 -32 36 -32c8 0 18 1 28 2l1 -27c-10 -2 -29 -5 -42 -5h-2c-44 -27 -62 -59 -62 -94c0 -30 19 -48 48 -48c10 0 21 2 34 6l2 -23c-17 -7 -33 -8 -42 -8c-44 0 -72 22 -72 68c0 44 28 79 65 104c-21 8 -30 26 -30 50v51
c-36 -62 -107 -110 -211 -110c-110 0 -189 46 -189 153c0 118 93 158 217 158c87 0 153 -8 183 -12v76c0 104 -62 128 -164 128c-58 0 -129 -10 -183 -25l-5 29c59 15 126 25 193 25zM240 23c109 0 203 72 203 169v74c-28 4 -93 12 -180 12c-106 0 -184 -34 -184 -129
s74 -126 161 -126z" />
    <glyph glyph-name="aring" unicode="&#xe5;" horiz-adv-x="573" 
d="M284 526c131 0 195 -38 195 -160v-306c0 -27 17 -32 36 -32c8 0 18 1 28 2l1 -27c-10 -2 -29 -5 -42 -5c-41 0 -59 23 -59 55v51c-36 -62 -107 -110 -211 -110c-110 0 -189 46 -189 153c0 118 93 158 217 158c87 0 153 -8 183 -12v76c0 104 -62 128 -164 128
c-58 0 -129 -10 -183 -25l-5 29c59 15 126 25 193 25zM240 23c109 0 203 72 203 169v74c-28 4 -93 12 -180 12c-106 0 -184 -34 -184 -129s74 -126 161 -126zM302 746c48 0 84 -28 84 -79c0 -50 -36 -79 -84 -79s-84 29 -84 79c0 51 36 79 84 79zM301 724
c-32 0 -57 -20 -57 -57c0 -36 25 -57 57 -57c33 0 59 21 59 57c0 37 -26 57 -59 57z" />
    <glyph glyph-name="atilde" unicode="&#xe3;" horiz-adv-x="573" 
d="M284 526c131 0 195 -38 195 -160v-306c0 -27 17 -32 36 -32c8 0 18 1 28 2l1 -27c-10 -2 -29 -5 -42 -5c-41 0 -59 23 -59 55v51c-36 -62 -107 -110 -211 -110c-110 0 -189 46 -189 153c0 118 93 158 217 158c87 0 153 -8 183 -12v76c0 104 -62 128 -164 128
c-58 0 -129 -10 -183 -25l-5 29c59 15 126 25 193 25zM240 23c109 0 203 72 203 169v74c-28 4 -93 12 -180 12c-106 0 -184 -34 -184 -129s74 -126 161 -126zM413 681l15 -6c-13 -38 -40 -56 -72 -56c-24 0 -46 11 -66 20s-40 21 -62 21c-24 0 -44 -15 -53 -34l-15 6
c14 38 41 56 72 56c24 0 46 -10 67 -20c19 -9 40 -22 62 -22c24 0 43 16 52 35z" />
    <glyph glyph-name="ae" unicode="&#xe6;" horiz-adv-x="944" 
d="M664 526c154 0 230 -117 230 -254c0 -10 -1 -21 -2 -25h-450c1 -142 98 -224 241 -224c55 0 119 16 173 42l7 -28c-43 -19 -106 -43 -183 -43c-110 0 -191 43 -235 114c-35 -64 -106 -114 -213 -114c-110 0 -189 46 -189 153c0 118 93 158 217 158c61 0 113 -4 148 -8
c4 39 15 75 32 106c-12 75 -71 94 -161 94c-58 0 -129 -10 -183 -25l-5 29c59 15 126 25 193 25c99 0 159 -22 183 -84c45 53 113 84 197 84zM263 278c-106 0 -184 -34 -184 -129s74 -126 161 -126c86 0 163 45 191 111c-16 37 -25 79 -25 126v11c-34 4 -83 7 -143 7z
M665 497c-131 0 -216 -86 -223 -223h418c0 124 -62 223 -195 223z" />
    <glyph glyph-name="aeacute" unicode="&#x1fd;" horiz-adv-x="944" 
d="M664 526c154 0 230 -117 230 -254c0 -10 -1 -21 -2 -25h-450c1 -142 98 -224 241 -224c55 0 119 16 173 42l7 -28c-43 -19 -106 -43 -183 -43c-110 0 -191 43 -235 114c-35 -64 -106 -114 -213 -114c-110 0 -189 46 -189 153c0 118 93 158 217 158c61 0 113 -4 148 -8
c4 39 15 75 32 106c-12 75 -71 94 -161 94c-58 0 -129 -10 -183 -25l-5 29c59 15 126 25 193 25c99 0 159 -22 183 -84c45 53 113 84 197 84zM263 278c-106 0 -184 -34 -184 -129s74 -126 161 -126c86 0 163 45 191 111c-16 37 -25 79 -25 126v11c-34 4 -83 7 -143 7z
M665 497c-131 0 -216 -86 -223 -223h418c0 124 -62 223 -195 223zM563 730l-66 -148h-28l59 148h35z" />
    <glyph glyph-name="b" unicode="b" horiz-adv-x="638" 
d="M126 732v-337c37 82 117 131 216 131c153 0 240 -114 240 -266c0 -151 -86 -266 -241 -266c-93 0 -177 41 -217 133l-3 -127h-31v732h36zM335 497c-133 0 -209 -103 -209 -237c0 -139 79 -237 210 -237c129 0 210 95 210 237c0 143 -81 237 -211 237z" />
    <glyph glyph-name="c" unicode="c" horiz-adv-x="523" 
d="M329 526c47 0 104 -10 147 -27l-8 -26c-20 8 -72 24 -136 24c-146 0 -240 -90 -240 -237s94 -237 244 -237c62 0 105 18 133 29l7 -27c-51 -21 -97 -31 -145 -31c-161 0 -275 98 -275 266s114 266 273 266z" />
    <glyph glyph-name="cacute" unicode="&#x107;" horiz-adv-x="523" 
d="M329 526c47 0 104 -10 147 -27l-8 -26c-20 8 -72 24 -136 24c-146 0 -240 -90 -240 -237s94 -237 244 -237c62 0 105 18 133 29l7 -27c-51 -21 -97 -31 -145 -31c-161 0 -275 98 -275 266s114 266 273 266zM378 731l-66 -148h-28l59 148h35z" />
    <glyph glyph-name="ccaron" unicode="&#x10d;" horiz-adv-x="523" 
d="M329 526c47 0 104 -10 147 -27l-8 -26c-20 8 -72 24 -136 24c-146 0 -240 -90 -240 -237s94 -237 244 -237c62 0 105 18 133 29l7 -27c-51 -21 -97 -31 -145 -31c-161 0 -275 98 -275 266s114 266 273 266zM434 732l-106 -149h-34l-105 149h36l86 -128l86 128h37z" />
    <glyph glyph-name="ccedilla" unicode="&#xe7;" horiz-adv-x="523" 
d="M329 526c47 0 104 -10 147 -27l-8 -26c-20 8 -72 24 -136 24c-146 0 -240 -90 -240 -237s94 -237 244 -237c62 0 105 18 133 29l7 -27c-51 -21 -97 -31 -145 -31h-10l-19 -60c29 1 84 -4 84 -61c0 -50 -39 -64 -87 -64c-27 0 -54 7 -69 14l4 21c13 -6 40 -12 62 -12
c25 0 60 6 60 40c0 45 -49 44 -75 39l-9 11l23 74c-142 13 -239 108 -239 264c0 168 114 266 273 266z" />
    <glyph glyph-name="ccircumflex" unicode="&#x109;" horiz-adv-x="523" 
d="M329 526c47 0 104 -10 147 -27l-8 -26c-20 8 -72 24 -136 24c-146 0 -240 -90 -240 -237s94 -237 244 -237c62 0 105 18 133 29l7 -27c-51 -21 -97 -31 -145 -31c-161 0 -275 98 -275 266s114 266 273 266zM436 583h-37l-86 128l-86 -128h-36l105 149h34z" />
    <glyph glyph-name="cdotaccent" unicode="&#x10b;" horiz-adv-x="523" 
d="M329 526c47 0 104 -10 147 -27l-8 -26c-20 8 -72 24 -136 24c-146 0 -240 -90 -240 -237s94 -237 244 -237c62 0 105 18 133 29l7 -27c-51 -21 -97 -31 -145 -31c-161 0 -275 98 -275 266s114 266 273 266zM316 668c18 0 26 -9 26 -25s-8 -25 -26 -25s-27 9 -27 25
s9 25 27 25z" />
    <glyph glyph-name="d" unicode="d" horiz-adv-x="638" 
d="M548 732v-732h-31l-4 127c-40 -92 -124 -133 -217 -133c-154 0 -240 115 -240 266c0 152 87 266 240 266c98 0 178 -49 216 -131v337h36zM305 497c-132 0 -213 -94 -213 -237s81 -237 213 -237c126 0 207 97 207 237c0 134 -74 237 -207 237z" />
    <glyph glyph-name="eth" unicode="&#xf0;" horiz-adv-x="601" 
d="M452 746l10 -14l-90 -60c99 -91 169 -222 169 -388c0 -204 -98 -290 -244 -290c-152 0 -235 102 -235 243c0 155 103 239 230 240c116 1 182 -60 211 -121c-9 75 -33 142 -68 198c-24 39 -53 73 -85 103l-105 -70l-9 14l101 68c-41 35 -87 64 -134 88l24 15
c47 -23 92 -53 132 -88zM297 448c-118 0 -199 -82 -199 -211c0 -123 73 -214 199 -214s202 84 202 216c0 130 -79 209 -202 209z" />
    <glyph glyph-name="dcaron" unicode="&#x10f;" horiz-adv-x="631" 
d="M601 732h26c0 -53 -3 -81 -10 -140h-19c3 46 3 94 3 140zM548 732v-732h-31l-4 127c-40 -92 -124 -133 -217 -133c-154 0 -240 115 -240 266c0 152 87 266 240 266c98 0 178 -49 216 -131v337h36zM305 497c-132 0 -213 -94 -213 -237s81 -237 213 -237
c126 0 207 97 207 237c0 134 -74 237 -207 237z" />
    <glyph glyph-name="dcroat" unicode="&#x111;" horiz-adv-x="631" 
d="M548 732v-102h82v-15h-82v-615h-31l-4 127c-40 -92 -124 -133 -217 -133c-154 0 -240 115 -240 266c0 152 87 266 240 266c98 0 178 -49 216 -131v220h-180v15h180v102h36zM305 497c-132 0 -213 -94 -213 -237s81 -237 213 -237c126 0 207 97 207 237
c0 134 -74 237 -207 237z" />
    <glyph glyph-name="e" unicode="e" horiz-adv-x="594" 
d="M542 247h-450c1 -142 98 -224 241 -224c55 0 119 16 173 42l7 -28c-43 -19 -106 -43 -183 -43c-175 0 -274 107 -274 266c0 156 100 266 258 266c154 0 230 -117 230 -254c0 -10 -1 -21 -2 -25zM315 497c-132 0 -216 -86 -223 -223h418c0 124 -62 223 -195 223z" />
    <glyph glyph-name="eacute" unicode="&#xe9;" horiz-adv-x="580" 
d="M542 247h-450c1 -142 98 -224 241 -224c55 0 119 16 173 42l7 -28c-43 -19 -106 -43 -183 -43c-175 0 -274 107 -274 266c0 156 100 266 258 266c154 0 230 -117 230 -254c0 -10 -1 -21 -2 -25zM315 497c-132 0 -216 -86 -223 -223h418c0 124 -62 223 -195 223zM358 731
l-66 -148h-28l59 148h35z" />
    <glyph glyph-name="ebreve" unicode="&#x115;" horiz-adv-x="594" 
d="M542 247h-450c1 -142 98 -224 241 -224c55 0 119 16 173 42l7 -28c-43 -19 -106 -43 -183 -43c-175 0 -274 107 -274 266c0 156 100 266 258 266c154 0 230 -117 230 -254c0 -10 -1 -21 -2 -25zM315 497c-132 0 -216 -86 -223 -223h418c0 124 -62 223 -195 223zM399 701
l29 -4c-14 -66 -55 -97 -118 -97c-64 0 -104 31 -118 97l29 4c12 -44 30 -76 89 -76s76 32 89 76z" />
    <glyph glyph-name="ecaron" unicode="&#x11b;" horiz-adv-x="594" 
d="M542 247h-450c1 -142 98 -224 241 -224c55 0 119 16 173 42l7 -28c-43 -19 -106 -43 -183 -43c-175 0 -274 107 -274 266c0 156 100 266 258 266c154 0 230 -117 230 -254c0 -10 -1 -21 -2 -25zM315 497c-132 0 -216 -86 -223 -223h418c0 124 -62 223 -195 223zM433 732
l-106 -149h-34l-105 149h36l86 -128l86 128h37z" />
    <glyph glyph-name="ecircumflex" unicode="&#xea;" horiz-adv-x="581" 
d="M542 247h-450c1 -142 98 -224 241 -224c55 0 119 16 173 42l7 -28c-43 -19 -106 -43 -183 -43c-175 0 -274 107 -274 266c0 156 100 266 258 266c154 0 230 -117 230 -254c0 -10 -1 -21 -2 -25zM315 497c-132 0 -216 -86 -223 -223h418c0 124 -62 223 -195 223zM428 583
h-37l-86 128l-86 -128h-36l105 149h34z" />
    <glyph glyph-name="edieresis" unicode="&#xeb;" horiz-adv-x="581" 
d="M542 247h-450c1 -142 98 -224 241 -224c55 0 119 16 173 42l7 -28c-43 -19 -106 -43 -183 -43c-175 0 -274 107 -274 266c0 156 100 266 258 266c154 0 230 -117 230 -254c0 -10 -1 -21 -2 -25zM315 497c-132 0 -216 -86 -223 -223h418c0 124 -62 223 -195 223zM220 667
c19 0 28 -9 28 -25s-9 -25 -28 -25c-17 0 -26 9 -26 25s9 25 26 25zM401 667c18 0 26 -9 26 -25s-8 -25 -26 -25s-27 9 -27 25s9 25 27 25z" />
    <glyph glyph-name="edotaccent" unicode="&#x117;" horiz-adv-x="594" 
d="M542 247h-450c1 -142 98 -224 241 -224c55 0 119 16 173 42l7 -28c-43 -19 -106 -43 -183 -43c-175 0 -274 107 -274 266c0 156 100 266 258 266c154 0 230 -117 230 -254c0 -10 -1 -21 -2 -25zM315 497c-132 0 -216 -86 -223 -223h418c0 124 -62 223 -195 223zM311 668
c18 0 26 -9 26 -25s-8 -25 -26 -25s-27 9 -27 25s9 25 27 25z" />
    <glyph glyph-name="egrave" unicode="&#xe8;" horiz-adv-x="581" 
d="M542 247h-450c1 -142 98 -224 241 -224c55 0 119 16 173 42l7 -28c-43 -19 -106 -43 -183 -43c-175 0 -274 107 -274 266c0 156 100 266 258 266c154 0 230 -117 230 -254c0 -10 -1 -21 -2 -25zM315 497c-132 0 -216 -86 -223 -223h418c0 124 -62 223 -195 223zM268 730
h35l46 -147h-28z" />
    <glyph glyph-name="emacron" unicode="&#x113;" horiz-adv-x="594" 
d="M542 247h-450c1 -142 98 -224 241 -224c55 0 119 16 173 42l7 -28c-43 -19 -106 -43 -183 -43c-175 0 -274 107 -274 266c0 156 100 266 258 266c154 0 230 -117 230 -254c0 -10 -1 -21 -2 -25zM315 497c-132 0 -216 -86 -223 -223h418c0 124 -62 223 -195 223zM453 663
v-24h-287v24h287z" />
    <glyph glyph-name="eogonek" unicode="&#x119;" horiz-adv-x="580" 
d="M542 247h-450c1 -142 98 -224 241 -224c55 0 119 16 173 42l7 -28c-21 -9 -45 -20 -74 -28c-46 -25 -63 -66 -63 -103s23 -50 51 -50c8 0 21 2 33 6l2 -23c-17 -7 -33 -8 -42 -8c-43 0 -75 20 -75 70c0 38 18 72 49 99c-20 -4 -42 -6 -64 -6c-175 0 -274 107 -274 266
c0 156 100 266 258 266c154 0 230 -117 230 -254c0 -10 -1 -21 -2 -25zM315 497c-132 0 -216 -86 -223 -223h418c0 124 -62 223 -195 223z" />
    <glyph glyph-name="f" unicode="f" horiz-adv-x="318" 
d="M230 738c29 0 55 -5 74 -9l-3 -27c-18 4 -42 7 -64 7c-80 0 -101 -47 -101 -119v-70h158v-27h-158v-493h-36v493h-66v27h66v68c0 95 31 150 130 150z" />
    <glyph glyph-name="g" unicode="g" horiz-adv-x="565" 
d="M288 526c29 0 59 -2 78 -6h154v-26h-107c50 -21 84 -60 84 -133c0 -99 -65 -158 -209 -158c-51 0 -95 7 -128 22c-19 -10 -48 -32 -48 -71c0 -60 84 -68 172 -68h54c116 0 183 -25 183 -119c0 -117 -119 -140 -235 -140c-133 0 -231 30 -231 135c0 39 23 82 75 115
c-31 14 -51 36 -51 73c0 44 29 74 57 89c-36 26 -56 66 -56 125c0 111 78 162 208 162zM288 497c-107 0 -172 -40 -172 -133c0 -100 70 -131 171 -132c118 0 174 47 174 132c0 93 -66 133 -173 133zM287 56c-43 0 -88 2 -125 11c-35 -22 -70 -54 -70 -100
c0 -95 95 -110 195 -110c89 0 197 12 197 108c0 73 -50 91 -155 91h-42z" />
    <glyph glyph-name="gbreve" unicode="&#x11f;" horiz-adv-x="565" 
d="M373 701l29 -4c-14 -66 -55 -97 -118 -97c-64 0 -104 31 -118 97l29 4c12 -44 30 -76 89 -76s76 32 89 76zM288 526c29 0 59 -2 78 -6h154v-26h-107c50 -21 84 -60 84 -133c0 -99 -65 -158 -209 -158c-51 0 -95 7 -128 22c-19 -10 -48 -32 -48 -71c0 -60 84 -68 172 -68
h54c116 0 183 -25 183 -119c0 -117 -119 -140 -235 -140c-133 0 -231 30 -231 135c0 39 23 82 75 115c-31 14 -51 36 -51 73c0 44 29 74 57 89c-36 26 -56 66 -56 125c0 111 78 162 208 162zM288 497c-107 0 -172 -40 -172 -133c0 -100 70 -131 171 -132
c118 0 174 47 174 132c0 93 -66 133 -173 133zM287 56c-43 0 -88 2 -125 11c-35 -22 -70 -54 -70 -100c0 -95 95 -110 195 -110c89 0 197 12 197 108c0 73 -50 91 -155 91h-42z" />
    <glyph glyph-name="gcircumflex" unicode="&#x11d;" horiz-adv-x="548" 
d="M288 526c29 0 59 -2 78 -6h154v-26h-107c50 -21 84 -60 84 -133c0 -99 -65 -158 -209 -158c-51 0 -95 7 -128 22c-19 -10 -48 -32 -48 -71c0 -60 84 -68 172 -68h54c116 0 183 -25 183 -119c0 -117 -119 -140 -235 -140c-133 0 -231 30 -231 135c0 39 23 82 75 115
c-31 14 -51 36 -51 73c0 44 29 74 57 89c-36 26 -56 66 -56 125c0 111 78 162 208 162zM288 497c-107 0 -172 -40 -172 -133c0 -100 70 -131 171 -132c118 0 174 47 174 132c0 93 -66 133 -173 133zM287 56c-43 0 -88 2 -125 11c-35 -22 -70 -54 -70 -100
c0 -95 95 -110 195 -110c89 0 197 12 197 108c0 73 -50 91 -155 91h-42zM409 583h-37l-86 128l-86 -128h-36l105 149h34z" />
    <glyph glyph-name="gcommaaccent" unicode="&#x123;" horiz-adv-x="565" 
d="M304 586h-31c0 53 4 57 12 115h26c-5 -44 -8 -64 -7 -115zM288 526c29 0 59 -2 78 -6h154v-26h-107c50 -21 84 -60 84 -133c0 -99 -65 -158 -209 -158c-51 0 -95 7 -128 22c-19 -10 -48 -32 -48 -71c0 -60 84 -68 172 -68h54c116 0 183 -25 183 -119
c0 -117 -119 -140 -235 -140c-133 0 -231 30 -231 135c0 39 23 82 75 115c-31 14 -51 36 -51 73c0 44 29 74 57 89c-36 26 -56 66 -56 125c0 111 78 162 208 162zM288 497c-107 0 -172 -40 -172 -133c0 -100 70 -131 171 -132c118 0 174 47 174 132c0 93 -66 133 -173 133z
M287 56c-43 0 -88 2 -125 11c-35 -22 -70 -54 -70 -100c0 -95 95 -110 195 -110c89 0 197 12 197 108c0 73 -50 91 -155 91h-42z" />
    <glyph glyph-name="gdotaccent" unicode="&#x121;" horiz-adv-x="548" 
d="M288 526c29 0 59 -2 78 -6h154v-26h-107c50 -21 84 -60 84 -133c0 -99 -65 -158 -209 -158c-51 0 -95 7 -128 22c-19 -10 -48 -32 -48 -71c0 -60 84 -68 172 -68h54c116 0 183 -25 183 -119c0 -117 -119 -140 -235 -140c-133 0 -231 30 -231 135c0 39 23 82 75 115
c-31 14 -51 36 -51 73c0 44 29 74 57 89c-36 26 -56 66 -56 125c0 111 78 162 208 162zM288 497c-107 0 -172 -40 -172 -133c0 -100 70 -131 171 -132c118 0 174 47 174 132c0 93 -66 133 -173 133zM287 56c-43 0 -88 2 -125 11c-35 -22 -70 -54 -70 -100
c0 -95 95 -110 195 -110c89 0 197 12 197 108c0 73 -50 91 -155 91h-42zM281 668c18 0 26 -9 26 -25s-8 -25 -26 -25s-27 9 -27 25s9 25 27 25z" />
    <glyph glyph-name="h" unicode="h" horiz-adv-x="610" 
d="M126 732v-330c34 70 97 124 209 124c124 0 192 -76 192 -204v-322h-36v322c0 112 -60 175 -164 175c-142 0 -201 -121 -201 -211v-286h-36v732h36z" />
    <glyph glyph-name="hbar" unicode="&#x127;" horiz-adv-x="610" 
d="M126 732v-102h171v-15h-171v-213c34 70 97 124 209 124c124 0 192 -76 192 -204v-322h-36v322c0 112 -60 175 -164 175c-142 0 -201 -121 -201 -211v-286h-36v615h-91v15h91v102h36z" />
    <glyph glyph-name="hcircumflex" unicode="&#x125;" horiz-adv-x="610" 
d="M126 732v-330c34 70 97 124 209 124c124 0 192 -76 192 -204v-322h-36v322c0 112 -60 175 -164 175c-142 0 -201 -121 -201 -211v-286h-36v732h36zM229 770h-37l-86 88l-86 -88h-36l105 109h34z" />
    <glyph glyph-name="i" unicode="i" horiz-adv-x="223" 
d="M109 675c17 0 27 -10 27 -26c0 -15 -10 -24 -27 -24c-16 0 -27 9 -27 24c0 16 11 26 27 26zM132 520v-520h-36v493h-63v27h99z" />
    <glyph glyph-name="dotlessi" unicode="&#x131;" horiz-adv-x="223" 
d="M132 520v-520h-36v493h-63v27h99z" />
    <glyph glyph-name="iacute" unicode="&#xed;" horiz-adv-x="223" 
d="M132 520v-520h-36v493h-63v27h99zM188 731l-66 -148h-28l59 148h35z" />
    <glyph glyph-name="ibreve" unicode="&#x12d;" horiz-adv-x="223" 
d="M132 520v-520h-36v493h-63v27h99zM194 701l29 -4c-14 -66 -55 -97 -118 -97c-64 0 -104 31 -118 97l29 4c12 -44 30 -76 89 -76s76 32 89 76z" />
    <glyph glyph-name="icircumflex" unicode="&#xee;" horiz-adv-x="223" 
d="M132 520v-520h-36v493h-63v27h99zM227 583h-37l-86 128l-86 -128h-36l105 149h34z" />
    <glyph glyph-name="idieresis" unicode="&#xef;" horiz-adv-x="223" 
d="M132 520v-520h-36v493h-63v27h99zM14 667c19 0 28 -9 28 -25s-9 -25 -28 -25c-17 0 -26 9 -26 25s9 25 26 25zM195 667c18 0 26 -9 26 -25s-8 -25 -26 -25s-27 9 -27 25s9 25 27 25z" />
    <glyph glyph-name="igrave" unicode="&#xec;" horiz-adv-x="223" 
d="M132 520v-520h-36v493h-63v27h99zM50 730h35l46 -147h-28z" />
    <glyph glyph-name="imacron" unicode="&#x12b;" horiz-adv-x="223" 
d="M132 520v-520h-36v493h-63v27h99zM248 663v-24h-287v24h287z" />
    <glyph glyph-name="iogonek" unicode="&#x12f;" horiz-adv-x="223" 
d="M132 520v-520c-47 -28 -66 -60 -66 -96c0 -30 19 -48 48 -48c10 0 21 2 34 6l2 -23c-17 -7 -33 -8 -42 -8c-44 0 -72 22 -72 68c0 42 26 76 61 101h-1v493h-63v27h99zM106 677c17 0 27 -10 27 -26s-10 -26 -27 -26c-16 0 -27 10 -27 26s11 26 27 26z" />
    <glyph glyph-name="itilde" unicode="&#x129;" horiz-adv-x="223" 
d="M132 520v-520h-36v493h-63v27h99zM224 681l15 -6c-13 -38 -40 -56 -72 -56c-24 0 -46 11 -66 20s-40 21 -62 21c-24 0 -44 -15 -53 -34l-15 6c14 38 41 56 72 56c24 0 46 -10 67 -20c19 -9 40 -22 62 -22c24 0 43 16 52 35z" />
    <glyph glyph-name="j" unicode="j" horiz-adv-x="223" 
d="M133 520v-604c0 -52 -12 -88 -82 -88h-28v29h21c49 0 53 21 53 62v574h-65v27h101zM109 675c17 0 27 -10 27 -26c0 -15 -10 -24 -27 -24c-16 0 -27 9 -27 24c0 16 11 26 27 26z" />
    <glyph glyph-name="jcircumflex" unicode="&#x135;" horiz-adv-x="223" 
d="M133 520v-604c0 -52 -12 -88 -82 -88h-28v29h21c49 0 53 21 53 62v574h-65v27h101zM221 583h-37l-86 128l-86 -128h-36l105 149h34z" />
    <glyph glyph-name="k" unicode="k" horiz-adv-x="497" 
d="M126 732v-516l312 304h40l-200 -197l210 -323h-41l-194 299l-127 -125v-174h-36v732h36z" />
    <glyph glyph-name="kcommaaccent" unicode="&#x137;" horiz-adv-x="497" 
d="M126 732v-516l312 304h40l-200 -197l210 -323h-41l-194 299l-127 -125v-174h-36v732h36zM244 -45h31c0 -53 -4 -57 -12 -115h-26c5 44 8 64 7 115z" />
    <glyph glyph-name="kgreenlandic" unicode="&#x138;" horiz-adv-x="497" 
d="M480 520l-200 -196l208 -324h-40l-193 300l-128 -126v-174h-36v520h36v-304l312 304h41z" />
    <glyph glyph-name="l" unicode="l" horiz-adv-x="250" 
d="M127 732v-663c0 -40 17 -46 41 -46c20 0 40 2 43 2v-28c-5 0 -29 -3 -53 -3c-43 0 -67 15 -67 72v666h36z" />
    <glyph glyph-name="lacute" unicode="&#x13a;" horiz-adv-x="250" 
d="M127 732v-663c0 -40 17 -46 41 -46c20 0 40 2 43 2v-28c-5 0 -29 -3 -53 -3c-43 0 -67 15 -67 72v666h36zM192 865l-66 -109h-28l59 109h35z" />
    <glyph glyph-name="lcaron" unicode="&#x13e;" horiz-adv-x="250" 
d="M192 732h26c0 -53 -3 -81 -10 -140h-19c3 46 3 94 3 140zM127 732v-663c0 -40 17 -46 41 -46c20 0 40 2 43 2v-28c-5 0 -29 -3 -53 -3c-43 0 -67 15 -67 72v666h36z" />
    <glyph glyph-name="lcommaaccent" unicode="&#x13c;" horiz-adv-x="250" 
d="M127 732v-663c0 -40 17 -46 41 -46c20 0 40 2 43 2v-28c-5 0 -29 -3 -53 -3c-43 0 -67 15 -67 72v666h36zM132 -45h31c0 -53 -4 -57 -12 -115h-26c5 44 8 64 7 115z" />
    <glyph glyph-name="lslash" unicode="&#x142;" horiz-adv-x="257" 
d="M135 732v-401l103 61v-23l-103 -62v-238c0 -40 17 -46 41 -46c20 0 40 2 43 2v-28c-5 0 -29 -3 -53 -3c-43 0 -67 15 -67 72v220l-64 -38v24l64 38v422h36z" />
    <glyph glyph-name="m" unicode="m" horiz-adv-x="906" 
d="M650 526c113 0 172 -70 172 -201v-325h-36v327c0 123 -60 170 -147 170c-112 0 -165 -89 -165 -190v-307h-36v336c0 111 -74 161 -153 161c-100 0 -161 -70 -161 -180v-317h-36v520h31l1 -97c32 70 102 103 174 103c74 0 146 -40 167 -129c28 82 98 129 189 129z" />
    <glyph glyph-name="n" unicode="n" horiz-adv-x="609" 
d="M333 526c124 0 192 -76 192 -204v-322h-36v322c0 112 -60 175 -164 175c-144 0 -201 -120 -201 -210v-287h-36v520h31l3 -124c29 69 99 130 211 130z" />
    <glyph glyph-name="nacute" unicode="&#x144;" horiz-adv-x="609" 
d="M377 731l-66 -148h-28l59 148h35zM333 526c124 0 192 -76 192 -204v-322h-36v322c0 112 -60 175 -164 175c-144 0 -201 -120 -201 -210v-287h-36v520h31l3 -124c29 69 99 130 211 130z" />
    <glyph glyph-name="ncaron" unicode="&#x148;" horiz-adv-x="609" 
d="M333 526c124 0 192 -76 192 -204v-322h-36v322c0 112 -60 175 -164 175c-144 0 -201 -120 -201 -210v-287h-36v520h31l3 -124c29 69 99 130 211 130zM424 732l-106 -149h-34l-105 149h36l86 -128l86 128h37z" />
    <glyph glyph-name="ncommaaccent" unicode="&#x146;" horiz-adv-x="609" 
d="M333 526c124 0 192 -76 192 -204v-322h-36v322c0 112 -60 175 -164 175c-144 0 -201 -120 -201 -210v-287h-36v520h31l3 -124c29 69 99 130 211 130zM287 -45h31c0 -53 -4 -57 -12 -115h-26c5 44 8 64 7 115z" />
    <glyph glyph-name="eng" unicode="&#x14b;" horiz-adv-x="609" 
d="M331 526c127 0 194 -82 194 -218v-322c0 -78 -50 -110 -116 -137l-8 24c27 13 88 36 88 112v323c0 121 -59 189 -167 189c-140 0 -198 -121 -198 -211v-286h-36v520h31l4 -123c29 66 95 129 208 129z" />
    <glyph glyph-name="ntilde" unicode="&#xf1;" horiz-adv-x="609" 
d="M333 526c124 0 192 -76 192 -204v-322h-36v322c0 112 -60 175 -164 175c-144 0 -201 -120 -201 -210v-287h-36v520h31l3 -124c29 69 99 130 211 130zM428 681l15 -6c-13 -38 -40 -56 -72 -56c-24 0 -46 11 -66 20s-40 21 -62 21c-24 0 -44 -15 -53 -34l-15 6
c14 38 41 56 72 56c24 0 46 -10 67 -20c19 -9 40 -22 62 -22c24 0 43 16 52 35z" />
    <glyph glyph-name="o" unicode="o" horiz-adv-x="634" 
d="M317 526c149 0 261 -101 261 -267c0 -165 -113 -266 -261 -266c-149 0 -261 101 -261 266c0 166 112 267 261 267zM317 497c-129 0 -225 -88 -225 -238c0 -149 96 -237 225 -237s225 88 225 237c0 150 -96 238 -225 238z" />
    <glyph glyph-name="oacute" unicode="&#xf3;" horiz-adv-x="634" 
d="M317 526c149 0 261 -101 261 -267c0 -165 -113 -266 -261 -266c-149 0 -261 101 -261 266c0 166 112 267 261 267zM317 497c-129 0 -225 -88 -225 -238c0 -149 96 -237 225 -237s225 88 225 237c0 150 -96 238 -225 238zM361 731l-66 -148h-28l59 148h35z" />
    <glyph glyph-name="obreve" unicode="&#x14f;" horiz-adv-x="634" 
d="M317 526c149 0 261 -101 261 -267c0 -165 -113 -266 -261 -266c-149 0 -261 101 -261 266c0 166 112 267 261 267zM317 497c-129 0 -225 -88 -225 -238c0 -149 96 -237 225 -237s225 88 225 237c0 150 -96 238 -225 238zM406 701l29 -4c-14 -66 -55 -97 -118 -97
c-64 0 -104 31 -118 97l29 4c12 -44 30 -76 89 -76s76 32 89 76z" />
    <glyph glyph-name="ocircumflex" unicode="&#xf4;" horiz-adv-x="634" 
d="M317 526c149 0 261 -101 261 -267c0 -165 -113 -266 -261 -266c-149 0 -261 101 -261 266c0 166 112 267 261 267zM317 497c-129 0 -225 -88 -225 -238c0 -149 96 -237 225 -237s225 88 225 237c0 150 -96 238 -225 238zM441 583h-37l-86 128l-86 -128h-36l105 149h34z
" />
    <glyph glyph-name="odieresis" unicode="&#xf6;" horiz-adv-x="634" 
d="M317 526c149 0 261 -101 261 -267c0 -165 -113 -266 -261 -266c-149 0 -261 101 -261 266c0 166 112 267 261 267zM317 497c-129 0 -225 -88 -225 -238c0 -149 96 -237 225 -237s225 88 225 237c0 150 -96 238 -225 238zM226 667c19 0 28 -9 28 -25s-9 -25 -28 -25
c-17 0 -26 9 -26 25s9 25 26 25zM407 667c18 0 26 -9 26 -25s-8 -25 -26 -25s-27 9 -27 25s9 25 27 25z" />
    <glyph glyph-name="ograve" unicode="&#xf2;" horiz-adv-x="634" 
d="M317 526c149 0 261 -101 261 -267c0 -165 -113 -266 -261 -266c-149 0 -261 101 -261 266c0 166 112 267 261 267zM317 497c-129 0 -225 -88 -225 -238c0 -149 96 -237 225 -237s225 88 225 237c0 150 -96 238 -225 238zM266 730h35l46 -147h-28z" />
    <glyph glyph-name="ohungarumlaut" unicode="&#x151;" horiz-adv-x="634" 
d="M317 526c149 0 261 -101 261 -267c0 -165 -113 -266 -261 -266c-149 0 -261 101 -261 266c0 166 112 267 261 267zM317 497c-129 0 -225 -88 -225 -238c0 -149 96 -237 225 -237s225 88 225 237c0 150 -96 238 -225 238zM317 732l-53 -149h-28l46 149h35zM432 732
l-53 -149h-28l46 149h35z" />
    <glyph glyph-name="omacron" unicode="&#x14d;" horiz-adv-x="634" 
d="M317 526c149 0 261 -101 261 -267c0 -165 -113 -266 -261 -266c-149 0 -261 101 -261 266c0 166 112 267 261 267zM317 497c-129 0 -225 -88 -225 -238c0 -149 96 -237 225 -237s225 88 225 237c0 150 -96 238 -225 238zM460 663v-24h-287v24h287z" />
    <glyph glyph-name="oslash" unicode="&#xf8;" horiz-adv-x="634" 
d="M317 526c50 0 95 -12 134 -33l39 60h23l-45 -70c67 -44 110 -122 110 -224c0 -165 -113 -266 -261 -266c-53 0 -101 12 -142 36l-40 -62h-23l47 73c-63 45 -103 121 -103 219c0 166 112 267 261 267zM542 259c0 90 -35 158 -91 198l-259 -402c35 -22 78 -33 125 -33
c129 0 225 88 225 237zM317 497c-129 0 -225 -88 -225 -238c0 -87 32 -153 84 -193l259 401c-34 20 -74 30 -118 30z" />
    <glyph glyph-name="oslashacute" unicode="&#x1ff;" horiz-adv-x="634" 
d="M317 526c50 0 95 -12 134 -33l39 60h23l-45 -70c67 -44 110 -122 110 -224c0 -165 -113 -266 -261 -266c-53 0 -101 12 -142 36l-40 -62h-23l47 73c-63 45 -103 121 -103 219c0 166 112 267 261 267zM542 259c0 90 -35 158 -91 198l-259 -402c35 -22 78 -33 125 -33
c129 0 225 88 225 237zM317 497c-129 0 -225 -88 -225 -238c0 -87 32 -153 84 -193l259 401c-34 20 -74 30 -118 30zM381 731l-66 -148h-28l59 148h35z" />
    <glyph glyph-name="otilde" unicode="&#xf5;" horiz-adv-x="634" 
d="M317 526c149 0 261 -101 261 -267c0 -165 -113 -266 -261 -266c-149 0 -261 101 -261 266c0 166 112 267 261 267zM317 497c-129 0 -225 -88 -225 -238c0 -149 96 -237 225 -237s225 88 225 237c0 150 -96 238 -225 238zM434 681l15 -6c-13 -38 -40 -56 -72 -56
c-24 0 -46 11 -66 20s-40 21 -62 21c-24 0 -44 -15 -53 -34l-15 6c14 38 41 56 72 56c24 0 46 -10 67 -20c19 -9 40 -22 62 -22c24 0 43 16 52 35z" />
    <glyph glyph-name="oe" unicode="&#x153;" horiz-adv-x="1080" 
d="M1028 247h-450c1 -142 98 -224 241 -224c55 0 119 16 173 42l7 -28c-43 -19 -106 -43 -183 -43c-132 0 -221 60 -257 158c-37 -100 -130 -159 -242 -159c-149 0 -261 101 -261 266c0 166 112 267 261 267c113 0 205 -59 242 -160c36 98 122 160 241 160
c154 0 230 -117 230 -254c0 -10 -1 -21 -2 -25zM317 497c-129 0 -225 -88 -225 -238c0 -149 96 -237 225 -237c126 0 220 83 225 226v11c0 150 -96 238 -225 238zM801 497c-132 0 -216 -86 -223 -223h418c0 124 -62 223 -195 223z" />
    <glyph glyph-name="p" unicode="p" horiz-adv-x="636" 
d="M339 526c155 0 241 -115 241 -266c0 -152 -87 -266 -240 -266c-101 0 -179 49 -216 128v-292h-36v690h31l3 -128c40 92 124 134 217 134zM334 497c-131 0 -210 -98 -210 -237c0 -134 76 -237 209 -237c130 0 211 94 211 237c0 142 -81 237 -210 237z" />
    <glyph glyph-name="thorn" unicode="&#xfe;" horiz-adv-x="641" 
d="M126 700v-304c41 89 124 130 215 130c155 0 241 -115 241 -266c0 -152 -87 -266 -240 -266c-100 0 -179 49 -216 128v-292h-36v870h36zM336 497c-131 0 -210 -98 -210 -237c0 -134 76 -237 209 -237c130 0 211 94 211 237c0 142 -81 237 -210 237z" />
    <glyph glyph-name="q" unicode="q" horiz-adv-x="636" 
d="M297 526c92 0 176 -42 216 -134l4 128h31v-690h-36v295c-38 -83 -118 -131 -216 -131c-153 0 -240 114 -240 266c0 151 86 266 241 266zM302 497c-129 0 -210 -95 -210 -237c0 -143 81 -237 211 -237c133 0 209 103 209 237c0 139 -79 237 -210 237z" />
    <glyph glyph-name="r" unicode="r" horiz-adv-x="319" 
d="M288 520l-2 -35c-104 11 -160 -75 -160 -186v-299h-36v520h30l4 -106c24 64 84 116 164 106z" />
    <glyph glyph-name="racute" unicode="&#x155;" horiz-adv-x="320" 
d="M288 520l-2 -35c-104 11 -160 -75 -160 -186v-299h-36v520h30l4 -106c24 64 84 116 164 106zM228 731l-66 -148h-28l59 148h35z" />
    <glyph glyph-name="rcaron" unicode="&#x159;" horiz-adv-x="319" 
d="M288 520l-2 -35c-104 11 -160 -75 -160 -186v-299h-36v520h30l4 -106c24 64 84 116 164 106zM291 732l-106 -149h-34l-105 149h36l86 -128l86 128h37z" />
    <glyph glyph-name="rcommaaccent" unicode="&#x157;" horiz-adv-x="319" 
d="M288 520l-2 -35c-104 11 -160 -75 -160 -186v-299h-36v520h30l4 -106c24 64 84 116 164 106zM92 -45h31c0 -53 -4 -57 -12 -115h-26c5 44 8 64 7 115z" />
    <glyph glyph-name="s" unicode="s" horiz-adv-x="471" 
d="M236 526c67 0 132 -17 169 -30l-7 -28c-22 9 -87 29 -157 29c-95 0 -152 -35 -152 -104c0 -81 75 -94 162 -117c97 -26 179 -48 179 -144c0 -90 -74 -138 -188 -138c-85 0 -158 26 -192 41l7 27c26 -11 98 -39 181 -39c99 0 155 38 155 107c0 77 -70 92 -163 118
c-90 24 -177 43 -177 142c0 88 69 136 183 136z" />
    <glyph glyph-name="sacute" unicode="&#x15b;" horiz-adv-x="471" 
d="M236 526c67 0 132 -17 169 -30l-7 -28c-22 9 -87 29 -157 29c-95 0 -152 -35 -152 -104c0 -81 75 -94 162 -117c97 -26 179 -48 179 -144c0 -90 -74 -138 -188 -138c-85 0 -158 26 -192 41l7 27c26 -11 98 -39 181 -39c99 0 155 38 155 107c0 77 -70 92 -163 118
c-90 24 -177 43 -177 142c0 88 69 136 183 136zM295 731l-66 -148h-28l59 148h35z" />
    <glyph glyph-name="scaron" unicode="&#x161;" horiz-adv-x="471" 
d="M236 526c67 0 132 -17 169 -30l-7 -28c-22 9 -87 29 -157 29c-95 0 -152 -35 -152 -104c0 -81 75 -94 162 -117c97 -26 179 -48 179 -144c0 -90 -74 -138 -188 -138c-85 0 -158 26 -192 41l7 27c26 -11 98 -39 181 -39c99 0 155 38 155 107c0 77 -70 92 -163 118
c-90 24 -177 43 -177 142c0 88 69 136 183 136zM360 732l-106 -149h-34l-105 149h36l86 -128l86 128h37z" />
    <glyph glyph-name="scedilla" unicode="&#x15f;" horiz-adv-x="471" 
d="M236 526c67 0 132 -17 169 -30l-7 -28c-22 9 -87 29 -157 29c-95 0 -152 -35 -152 -104c0 -81 75 -94 162 -117c97 -26 179 -48 179 -144c0 -87 -69 -135 -177 -138l-19 -60c29 1 84 -4 84 -61c0 -50 -39 -64 -87 -64c-27 0 -54 7 -69 14l4 21c13 -6 40 -12 62 -12
c25 0 60 6 60 40c0 45 -49 44 -75 39l-9 11l23 72c-79 3 -145 27 -177 41l7 27c26 -11 98 -39 181 -39c99 0 155 38 155 107c0 77 -70 92 -163 118c-90 24 -177 43 -177 142c0 88 69 136 183 136z" />
    <glyph glyph-name="scircumflex" unicode="&#x15d;" horiz-adv-x="471" 
d="M236 526c67 0 132 -17 169 -30l-7 -28c-22 9 -87 29 -157 29c-95 0 -152 -35 -152 -104c0 -81 75 -94 162 -117c97 -26 179 -48 179 -144c0 -90 -74 -138 -188 -138c-85 0 -158 26 -192 41l7 27c26 -11 98 -39 181 -39c99 0 155 38 155 107c0 77 -70 92 -163 118
c-90 24 -177 43 -177 142c0 88 69 136 183 136zM366 583h-37l-86 128l-86 -128h-36l105 149h34z" />
    <glyph glyph-name="scommaaccent" unicode="&#x219;" horiz-adv-x="471" 
d="M236 526c67 0 132 -17 169 -30l-7 -28c-22 9 -87 29 -157 29c-95 0 -152 -35 -152 -104c0 -81 75 -94 162 -117c97 -26 179 -48 179 -144c0 -90 -74 -138 -188 -138c-85 0 -158 26 -192 41l7 27c26 -11 98 -39 181 -39c99 0 155 38 155 107c0 77 -70 92 -163 118
c-90 24 -177 43 -177 142c0 88 69 136 183 136zM223 -45h31c0 -53 -4 -57 -12 -115h-26c5 44 8 64 7 115z" />
    <glyph glyph-name="germandbls" unicode="&#xdf;" horiz-adv-x="578" 
d="M283 706c105 0 170 -60 170 -145c0 -94 -80 -111 -80 -182c0 -127 169 -108 169 -264c0 -86 -54 -142 -170 -142c-61 0 -125 16 -148 25l5 30c11 -5 75 -26 137 -26c95 0 140 44 140 115c0 142 -166 123 -166 258c0 76 81 97 81 183c0 70 -53 119 -136 119
c-47 0 -159 -16 -159 -166v-511h-36v509c0 174 128 197 193 197z" />
    <glyph glyph-name="t" unicode="t" horiz-adv-x="319" 
d="M143 670v-150h153v-27h-153v-355c0 -85 19 -116 91 -116c28 0 49 5 62 10l2 -27c-17 -5 -43 -11 -74 -11c-93 0 -117 45 -117 144v355h-80v27h80l5 150h31z" />
    <glyph glyph-name="tbar" unicode="&#x167;" horiz-adv-x="319" 
d="M224 -6c-93 0 -117 45 -117 144v250h36v-250c0 -85 19 -116 91 -116c28 0 49 5 62 10l2 -27c-17 -5 -43 -11 -74 -11zM143 670v-150h153v-27h-153v-89h-36v89h-80v27h80l5 150h31zM296 404h-153v-16h153v16zM27 404v-16h80v16h-80z" />
    <glyph glyph-name="tcaron" unicode="&#x165;" horiz-adv-x="319" 
d="M218 730h26c0 -53 -3 -81 -10 -140h-19c3 47 3 94 3 140zM143 670v-150h153v-27h-153v-355c0 -85 19 -116 91 -116c28 0 49 5 62 10l2 -27c-17 -5 -43 -11 -74 -11c-93 0 -117 45 -117 144v355h-80v27h80l5 150h31z" />
    <glyph glyph-name="tcommaaccent" unicode="&#x163;" horiz-adv-x="319" 
d="M143 670v-150h153v-27h-153v-355c0 -85 19 -116 91 -116c28 0 49 5 62 10l2 -27c-17 -5 -43 -11 -74 -11c-93 0 -117 45 -117 144v355h-80v27h80l5 150h31zM185 -45h31c0 -53 -4 -57 -12 -115h-26c5 44 8 64 7 115z" />
    <glyph glyph-name="u" unicode="u" horiz-adv-x="608" 
d="M520 520v-520h-31l-4 123c-28 -68 -99 -129 -210 -129c-124 0 -192 76 -192 204v322h36v-322c0 -112 60 -175 164 -175c144 0 201 120 201 210v287h36z" />
    <glyph glyph-name="uacute" unicode="&#xfa;" horiz-adv-x="608" 
d="M520 520v-520h-31l-4 123c-28 -68 -99 -129 -210 -129c-124 0 -192 76 -192 204v322h36v-322c0 -112 60 -175 164 -175c144 0 201 120 201 210v287h36zM363 731l-66 -148h-28l59 148h35z" />
    <glyph glyph-name="ubreve" unicode="&#x16d;" horiz-adv-x="608" 
d="M520 520v-520h-31l-4 123c-28 -68 -99 -129 -210 -129c-124 0 -192 76 -192 204v322h36v-322c0 -112 60 -175 164 -175c144 0 201 120 201 210v287h36zM393 701l29 -4c-14 -66 -55 -97 -118 -97c-64 0 -104 31 -118 97l29 4c12 -44 30 -76 89 -76s76 32 89 76z" />
    <glyph glyph-name="ucircumflex" unicode="&#xfb;" horiz-adv-x="608" 
d="M520 520v-520h-31l-4 123c-28 -68 -99 -129 -210 -129c-124 0 -192 76 -192 204v322h36v-322c0 -112 60 -175 164 -175c144 0 201 120 201 210v287h36zM428 583h-37l-86 128l-86 -128h-36l105 149h34z" />
    <glyph glyph-name="udieresis" unicode="&#xfc;" horiz-adv-x="608" 
d="M520 520v-520h-31l-4 123c-28 -68 -99 -129 -210 -129c-124 0 -192 76 -192 204v322h36v-322c0 -112 60 -175 164 -175c144 0 201 120 201 210v287h36zM216 667c19 0 28 -9 28 -25s-9 -25 -28 -25c-17 0 -26 9 -26 25s9 25 26 25zM397 667c18 0 26 -9 26 -25
s-8 -25 -26 -25s-27 9 -27 25s9 25 27 25z" />
    <glyph glyph-name="ugrave" unicode="&#xf9;" horiz-adv-x="608" 
d="M520 520v-520h-31l-4 123c-28 -68 -99 -129 -210 -129c-124 0 -192 76 -192 204v322h36v-322c0 -112 60 -175 164 -175c144 0 201 120 201 210v287h36zM257 730h35l46 -147h-28z" />
    <glyph glyph-name="uhungarumlaut" unicode="&#x171;" horiz-adv-x="608" 
d="M520 520v-520h-31l-4 123c-28 -68 -99 -129 -210 -129c-124 0 -192 76 -192 204v322h36v-322c0 -112 60 -175 164 -175c144 0 201 120 201 210v287h36zM295 732l-53 -149h-28l46 149h35zM410 732l-53 -149h-28l46 149h35z" />
    <glyph glyph-name="umacron" unicode="&#x16b;" horiz-adv-x="608" 
d="M520 520v-520h-31l-4 123c-28 -68 -99 -129 -210 -129c-124 0 -192 76 -192 204v322h36v-322c0 -112 60 -175 164 -175c144 0 201 120 201 210v287h36zM447 663v-24h-287v24h287z" />
    <glyph glyph-name="uogonek" unicode="&#x173;" horiz-adv-x="608" 
d="M520 520v-520c-47 -28 -66 -60 -66 -96c0 -30 19 -48 48 -48c10 0 21 2 34 6l2 -23c-17 -7 -33 -8 -42 -8c-44 0 -72 22 -72 68c0 44 28 78 65 103l-4 121c-28 -68 -99 -129 -210 -129c-124 0 -192 76 -192 204v322h36v-322c0 -112 60 -175 164 -175
c144 0 201 120 201 210v287h36z" />
    <glyph glyph-name="uring" unicode="&#x16f;" horiz-adv-x="608" 
d="M520 520v-520h-31l-4 123c-28 -68 -99 -129 -210 -129c-124 0 -192 76 -192 204v322h36v-322c0 -112 60 -175 164 -175c144 0 201 120 201 210v287h36zM304 746c48 0 84 -28 84 -79c0 -50 -36 -79 -84 -79s-84 29 -84 79c0 51 36 79 84 79zM303 724
c-32 0 -57 -20 -57 -57c0 -36 25 -57 57 -57c33 0 59 21 59 57c0 37 -26 57 -59 57z" />
    <glyph glyph-name="utilde" unicode="&#x169;" horiz-adv-x="608" 
d="M520 520v-520h-31l-4 123c-28 -68 -99 -129 -210 -129c-124 0 -192 76 -192 204v322h36v-322c0 -112 60 -175 164 -175c144 0 201 120 201 210v287h36zM423 681l15 -6c-13 -38 -40 -56 -72 -56c-24 0 -46 11 -66 20s-40 21 -62 21c-24 0 -44 -15 -53 -34l-15 6
c14 38 41 56 72 56c24 0 46 -10 67 -20c19 -9 40 -22 62 -22c24 0 43 16 52 35z" />
    <glyph glyph-name="v" unicode="v" horiz-adv-x="518" 
d="M488 520l-207 -520h-44l-207 520h38l191 -486l193 486h36z" />
    <glyph glyph-name="w" unicode="w" horiz-adv-x="804" 
d="M766 520l-171 -520h-41l-152 455l-151 -455h-42l-171 520h37l157 -480l154 463h33l153 -464l158 481h36z" />
    <glyph glyph-name="wacute" unicode="&#x1e83;" horiz-adv-x="804" 
d="M766 520l-171 -520h-41l-152 455l-151 -455h-42l-171 520h37l157 -480l154 463h33l153 -464l158 481h36zM485 731l-66 -148h-28l59 148h35z" />
    <glyph glyph-name="wcircumflex" unicode="&#x175;" horiz-adv-x="804" 
d="M766 520l-171 -520h-41l-152 455l-151 -455h-42l-171 520h37l157 -480l154 463h33l153 -464l158 481h36zM526 583h-37l-86 128l-86 -128h-36l105 149h34z" />
    <glyph glyph-name="wdieresis" unicode="&#x1e85;" horiz-adv-x="804" 
d="M766 520l-171 -520h-41l-152 455l-151 -455h-42l-171 520h37l157 -480l154 463h33l153 -464l158 481h36zM311 667c19 0 28 -9 28 -25s-9 -25 -28 -25c-17 0 -26 9 -26 25s9 25 26 25zM492 667c18 0 26 -9 26 -25s-8 -25 -26 -25s-27 9 -27 25s9 25 27 25z" />
    <glyph glyph-name="wgrave" unicode="&#x1e81;" horiz-adv-x="804" 
d="M766 520l-171 -520h-41l-152 455l-151 -455h-42l-171 520h37l157 -480l154 463h33l153 -464l158 481h36zM347 730h35l46 -147h-28z" />
    <glyph glyph-name="x" unicode="x" horiz-adv-x="512" 
d="M477 520l-198 -256l203 -264h-42l-184 239l-187 -239h-39l202 259l-199 261h42l181 -236l182 236h39z" />
    <glyph glyph-name="y" unicode="y" horiz-adv-x="560" 
d="M515 520l-225 -558c-50 -124 -102 -134 -151 -134c-22 0 -41 1 -69 7l1 30c27 -6 48 -8 64 -8c60 0 91 41 120 115l10 26l-222 522h40l201 -484l194 484h37z" />
    <glyph glyph-name="yacute" unicode="&#xfd;" horiz-adv-x="560" 
d="M515 520l-225 -558c-50 -124 -102 -134 -151 -134c-22 0 -41 1 -69 7l1 30c27 -6 48 -8 64 -8c60 0 91 41 120 115l10 26l-222 522h40l201 -484l194 484h37zM369 731l-66 -148h-28l59 148h35z" />
    <glyph glyph-name="ycircumflex" unicode="&#x177;" horiz-adv-x="560" 
d="M515 520l-225 -558c-50 -124 -102 -134 -151 -134c-22 0 -41 1 -69 7l1 30c27 -6 48 -8 64 -8c60 0 91 41 120 115l10 26l-222 522h40l201 -484l194 484h37zM410 583h-37l-86 128l-86 -128h-36l105 149h34z" />
    <glyph glyph-name="ydieresis" unicode="&#xff;" horiz-adv-x="560" 
d="M515 520l-225 -558c-50 -124 -102 -134 -151 -134c-22 0 -41 1 -69 7l1 30c27 -6 48 -8 64 -8c60 0 91 41 120 115l10 26l-222 522h40l201 -484l194 484h37zM184 667c19 0 28 -9 28 -25s-9 -25 -28 -25c-17 0 -26 9 -26 25s9 25 26 25zM365 667c18 0 26 -9 26 -25
s-8 -25 -26 -25s-27 9 -27 25s9 25 27 25z" />
    <glyph glyph-name="ygrave" unicode="&#x1ef3;" horiz-adv-x="560" 
d="M515 520l-225 -558c-50 -124 -102 -134 -151 -134c-22 0 -41 1 -69 7l1 30c27 -6 48 -8 64 -8c60 0 91 41 120 115l10 26l-222 522h40l201 -484l194 484h37zM224 730h35l46 -147h-28z" />
    <glyph glyph-name="z" unicode="z" horiz-adv-x="496" 
d="M456 520v-30l-376 -463l150 2h226v-29h-416v30l377 464l-147 -2h-223v28h409z" />
    <glyph glyph-name="zacute" unicode="&#x17a;" horiz-adv-x="496" 
d="M456 520v-30l-376 -463l150 2h226v-29h-416v30l377 464l-147 -2h-223v28h409zM307 731l-66 -148h-28l59 148h35z" />
    <glyph glyph-name="zcaron" unicode="&#x17e;" horiz-adv-x="496" 
d="M456 520v-30l-376 -463l150 2h226v-29h-416v30l377 464l-147 -2h-223v28h409zM378 732l-106 -149h-34l-105 149h36l86 -128l86 128h37z" />
    <glyph glyph-name="zdotaccent" unicode="&#x17c;" horiz-adv-x="496" 
d="M456 520v-30l-376 -463l150 2h226v-29h-416v30l377 464l-147 -2h-223v28h409zM257 668c18 0 26 -9 26 -25s-8 -25 -26 -25s-27 9 -27 25s9 25 27 25z" />
    <glyph glyph-name="a.alt" horiz-adv-x="636" 
d="M297 526c101 0 182 -52 216 -141l4 135h31v-520h-36v128c-39 -88 -121 -134 -216 -134c-153 0 -240 114 -240 266c0 151 87 266 241 266zM304 497c-131 0 -212 -94 -212 -237s81 -237 212 -237c126 0 208 97 208 237c0 134 -74 237 -208 237z" />
    <glyph glyph-name="aacute.alt" horiz-adv-x="636" 
d="M297 526c101 0 182 -52 216 -141l4 135h31v-520h-36v128c-39 -88 -121 -134 -216 -134c-153 0 -240 114 -240 266c0 151 87 266 241 266zM304 497c-131 0 -212 -94 -212 -237s81 -237 212 -237c126 0 208 97 208 237c0 134 -74 237 -208 237zM362 731l-66 -148h-28
l59 148h35z" />
    <glyph glyph-name="abreve.alt" horiz-adv-x="636" 
d="M297 526c101 0 182 -52 216 -141l4 135h31v-520h-36v128c-39 -88 -121 -134 -216 -134c-153 0 -240 114 -240 266c0 151 87 266 241 266zM304 497c-131 0 -212 -94 -212 -237s81 -237 212 -237c126 0 208 97 208 237c0 134 -74 237 -208 237zM413 701l29 -4
c-14 -66 -55 -97 -118 -97c-64 0 -104 31 -118 97l29 4c12 -44 30 -76 89 -76s76 32 89 76z" />
    <glyph glyph-name="acircumflex.alt" horiz-adv-x="636" 
d="M297 526c101 0 182 -52 216 -141l4 135h31v-520h-36v128c-39 -88 -121 -134 -216 -134c-153 0 -240 114 -240 266c0 151 87 266 241 266zM304 497c-131 0 -212 -94 -212 -237s81 -237 212 -237c126 0 208 97 208 237c0 134 -74 237 -208 237zM448 583h-37l-86 128
l-86 -128h-36l105 149h34z" />
    <glyph glyph-name="adieresis.alt" horiz-adv-x="636" 
d="M297 526c101 0 182 -52 216 -141l4 135h31v-520h-36v128c-39 -88 -121 -134 -216 -134c-153 0 -240 114 -240 266c0 151 87 266 241 266zM304 497c-131 0 -212 -94 -212 -237s81 -237 212 -237c126 0 208 97 208 237c0 134 -74 237 -208 237zM233 667c19 0 28 -9 28 -25
s-9 -25 -28 -25c-17 0 -26 9 -26 25s9 25 26 25zM414 667c18 0 26 -9 26 -25s-8 -25 -26 -25s-27 9 -27 25s9 25 27 25z" />
    <glyph glyph-name="agrave.alt" horiz-adv-x="636" 
d="M297 526c101 0 182 -52 216 -141l4 135h31v-520h-36v128c-39 -88 -121 -134 -216 -134c-153 0 -240 114 -240 266c0 151 87 266 241 266zM304 497c-131 0 -212 -94 -212 -237s81 -237 212 -237c126 0 208 97 208 237c0 134 -74 237 -208 237zM272 730h35l46 -147h-28z
" />
    <glyph glyph-name="amacron.alt" horiz-adv-x="636" 
d="M297 526c101 0 182 -52 216 -141l4 135h31v-520h-36v128c-39 -88 -121 -134 -216 -134c-153 0 -240 114 -240 266c0 151 87 266 241 266zM304 497c-131 0 -212 -94 -212 -237s81 -237 212 -237c126 0 208 97 208 237c0 134 -74 237 -208 237zM467 663v-24h-287v24h287z
" />
    <glyph glyph-name="aogonek.alt" horiz-adv-x="636" 
d="M297 526c101 0 182 -52 216 -141l4 135h31v-520c-47 -28 -66 -60 -66 -96c0 -30 19 -48 48 -48c10 0 21 2 34 6l2 -23c-17 -7 -33 -8 -42 -8c-44 0 -72 22 -72 68c0 42 26 76 61 101h-1v128c-39 -88 -121 -134 -216 -134c-153 0 -240 114 -240 266c0 151 87 266 241 266z
M304 497c-131 0 -212 -94 -212 -237s81 -237 212 -237c126 0 208 97 208 237c0 134 -74 237 -208 237z" />
    <glyph glyph-name="aring.alt" horiz-adv-x="636" 
d="M297 526c101 0 182 -52 216 -141l4 135h31v-520h-36v128c-39 -88 -121 -134 -216 -134c-153 0 -240 114 -240 266c0 151 87 266 241 266zM304 497c-131 0 -212 -94 -212 -237s81 -237 212 -237c126 0 208 97 208 237c0 134 -74 237 -208 237zM324 746c48 0 84 -28 84 -79
c0 -50 -36 -79 -84 -79s-84 29 -84 79c0 51 36 79 84 79zM323 724c-32 0 -57 -20 -57 -57c0 -36 25 -57 57 -57c33 0 59 21 59 57c0 37 -26 57 -59 57z" />
    <glyph glyph-name="atilde.alt" horiz-adv-x="636" 
d="M297 526c101 0 182 -52 216 -141l4 135h31v-520h-36v128c-39 -88 -121 -134 -216 -134c-153 0 -240 114 -240 266c0 151 87 266 241 266zM304 497c-131 0 -212 -94 -212 -237s81 -237 212 -237c126 0 208 97 208 237c0 134 -74 237 -208 237zM443 681l15 -6
c-13 -38 -40 -56 -72 -56c-24 0 -46 11 -66 20s-40 21 -62 21c-24 0 -44 -15 -53 -34l-15 6c14 38 41 56 72 56c24 0 46 -10 67 -20c19 -9 40 -22 62 -22c24 0 43 16 52 35z" />
    <glyph glyph-name="g.alt" horiz-adv-x="628" 
d="M298 526c95 0 174 -45 208 -127l3 121h30l1 -456c0 -172 -106 -235 -247 -235c-73 0 -155 15 -212 44l9 26c46 -22 120 -42 201 -42c117 0 214 54 214 205v77c-36 -84 -117 -125 -207 -125c-159 0 -242 96 -242 256c0 159 83 256 242 256zM306 498
c-149 0 -214 -93 -214 -228s65 -228 214 -228c129 0 199 91 199 228c0 135 -70 228 -199 228z" />
    <glyph glyph-name="gbreve.alt" horiz-adv-x="628" 
d="M298 526c95 0 174 -45 208 -127l3 121h30l1 -456c0 -172 -106 -235 -247 -235c-73 0 -155 15 -212 44l9 26c46 -22 120 -42 201 -42c117 0 214 54 214 205v77c-36 -84 -117 -125 -207 -125c-159 0 -242 96 -242 256c0 159 83 256 242 256zM306 498
c-149 0 -214 -93 -214 -228s65 -228 214 -228c129 0 199 91 199 228c0 135 -70 228 -199 228zM414 701l29 -4c-14 -66 -55 -97 -118 -97c-64 0 -104 31 -118 97l29 4c12 -44 30 -76 89 -76s76 32 89 76z" />
    <glyph glyph-name="gcircumflex.alt" horiz-adv-x="628" 
d="M298 526c95 0 174 -45 208 -127l3 121h30l1 -456c0 -172 -106 -235 -247 -235c-73 0 -155 15 -212 44l9 26c46 -22 120 -42 201 -42c117 0 214 54 214 205v77c-36 -84 -117 -125 -207 -125c-159 0 -242 96 -242 256c0 159 83 256 242 256zM306 498
c-149 0 -214 -93 -214 -228s65 -228 214 -228c129 0 199 91 199 228c0 135 -70 228 -199 228zM445 583h-37l-86 128l-86 -128h-36l105 149h34z" />
    <glyph glyph-name="gcommaaccent.alt" horiz-adv-x="628" 
d="M298 526c95 0 174 -45 208 -127l3 121h30l1 -456c0 -172 -106 -235 -247 -235c-73 0 -155 15 -212 44l9 26c46 -22 120 -42 201 -42c117 0 214 54 214 205v77c-36 -84 -117 -125 -207 -125c-159 0 -242 96 -242 256c0 159 83 256 242 256zM306 498
c-149 0 -214 -93 -214 -228s65 -228 214 -228c129 0 199 91 199 228c0 135 -70 228 -199 228zM321 585h-31c0 53 4 57 12 115h26c-5 -44 -8 -64 -7 -115z" />
    <glyph glyph-name="gdotaccent.alt" horiz-adv-x="628" 
d="M298 526c95 0 174 -45 208 -127l3 121h30l1 -456c0 -172 -106 -235 -247 -235c-73 0 -155 15 -212 44l9 26c46 -22 120 -42 201 -42c117 0 214 54 214 205v77c-36 -84 -117 -125 -207 -125c-159 0 -242 96 -242 256c0 159 83 256 242 256zM306 498
c-149 0 -214 -93 -214 -228s65 -228 214 -228c129 0 199 91 199 228c0 135 -70 228 -199 228zM318 668c18 0 26 -9 26 -25s-8 -25 -26 -25s-27 9 -27 25s9 25 27 25z" />
    <glyph glyph-name="j.alt" horiz-adv-x="217" 
d="M129 520v-541c0 -81 -53 -120 -107 -149l-14 26c24 14 85 48 85 115v522h-65v27h101zM109 675c17 0 27 -10 27 -26c0 -15 -10 -24 -27 -24c-16 0 -27 9 -27 24c0 16 11 26 27 26z" />
    <glyph glyph-name="jcircumflex.alt" horiz-adv-x="217" 
d="M129 520v-541c0 -81 -53 -120 -107 -149l-14 26c24 14 85 48 85 115v522h-65v27h101zM228 583h-37l-86 128l-86 -128h-36l105 149h34z" />
    <glyph glyph-name="germandbls.case" unicode="&#x1e9e;" horiz-adv-x="713" 
d="M344 707c92 0 201 -32 277 -80c-48 -73 -103 -139 -103 -219c0 -125 135 -119 135 -259c0 -111 -81 -167 -211 -167c-71 0 -142 18 -191 35l6 31c46 -16 111 -36 180 -36c105 0 179 41 179 139c0 125 -130 118 -130 253c0 88 52 148 93 212c-58 32 -140 61 -229 61
c-163 0 -212 -106 -212 -219v-458h-38v458c0 141 76 249 244 249z" />
    <glyph glyph-name="f_b" horiz-adv-x="937" 
d="M262 738c93 0 168 -56 168 -176v-168c37 83 117 132 216 132c153 0 240 -114 240 -266c0 -151 -86 -266 -241 -266c-93 0 -177 41 -217 134l-3 -128h-31v562c0 97 -55 147 -132 147s-126 -53 -126 -147v-42h140v-27h-140v-493h-36v493h-66v27h66v41c0 117 68 177 162 177
zM639 497c-133 0 -209 -103 -209 -237c0 -139 79 -237 210 -237c129 0 210 95 210 237c0 143 -81 237 -211 237z" />
    <glyph glyph-name="f_f_b" horiz-adv-x="1199" 
d="M908 526c153 0 240 -114 240 -266c0 -151 -86 -266 -241 -266c-93 0 -176 41 -216 133l-4 -127h-31v567c0 98 -54 148 -132 148c-77 0 -126 -55 -126 -148v-47h140v-27h-140v-493h-36v493h-228v-493h-36v493h-64v27h64v69c0 94 31 149 130 149c21 0 47 -4 67 -8l-4 -27
c-18 4 -38 6 -58 6c-75 0 -99 -46 -99 -117v-72h228v47c0 116 68 176 162 176c93 0 168 -55 168 -176v-172c38 83 117 131 216 131zM902 23c129 0 210 95 210 237c0 143 -81 237 -211 237c-133 0 -209 -103 -209 -237c0 -139 79 -237 210 -237z" />
    <glyph glyph-name="f_f_h" horiz-adv-x="1176" 
d="M901 526c124 0 192 -76 192 -204v-322h-36v322c0 112 -60 175 -164 175c-142 0 -201 -121 -201 -211v-286h-36v568c0 97 -54 147 -132 147s-126 -54 -126 -147v-48h140v-27h-140v-493h-36v493h-228v-493h-36v493h-64v27h64v69c0 94 31 149 130 149c21 0 47 -4 67 -8
l-4 -27c-18 4 -38 6 -59 6c-74 0 -98 -46 -98 -117v-72h228v47c0 116 67 176 162 176c94 0 168 -55 168 -176v-165c34 70 98 124 209 124z" />
    <glyph glyph-name="f_f_k" horiz-adv-x="1063" 
d="M524 743c93 0 168 -55 168 -176v-351l312 304h40l-200 -196l210 -324h-41l-193 300l-128 -126v-174h-36v568c0 97 -55 147 -132 147c-78 0 -126 -54 -126 -147v-48h140v-27h-140v-493h-36v493h-228v-493h-36v493h-64v27h64v69c0 94 30 149 130 149c21 0 47 -4 67 -8
l-4 -27c-18 4 -38 6 -59 6c-75 0 -98 -46 -98 -117v-72h228v47c0 116 67 176 162 176z" />
    <glyph glyph-name="f_h" horiz-adv-x="915" 
d="M262 738c94 0 168 -56 168 -176v-160c34 70 98 124 209 124c124 0 192 -76 192 -204v-322h-36v322c0 112 -60 175 -164 175c-142 0 -201 -121 -201 -211v-286h-36v562c0 97 -54 147 -132 147s-126 -54 -126 -147v-42h140v-27h-140v-493h-36v493h-66v27h66v41
c0 117 67 177 162 177z" />
    <glyph glyph-name="f_k" horiz-adv-x="801" 
d="M262 738c93 0 168 -56 168 -176v-346l312 304h40l-200 -196l210 -324h-41l-193 300l-128 -126v-174h-36v562c0 98 -55 147 -132 147c-78 0 -126 -54 -126 -147v-42h140v-27h-140v-493h-36v493h-66v27h66v41c0 117 67 177 162 177z" />
    <glyph glyph-name="ordfeminine" unicode="&#xaa;" horiz-adv-x="491" 
d="M242 731c89 0 127 -35 127 -114v-202c0 -18 8 -21 18 -21c5 0 15 1 19 2v-21c-3 -1 -18 -5 -31 -5c-21 0 -31 11 -32 37v30c-26 -45 -77 -69 -132 -69c-65 0 -126 29 -126 106c0 83 72 107 157 107c23 0 56 -2 99 -9v35c0 64 -19 100 -104 100c-45 0 -86 -9 -119 -20
l-5 23c40 13 87 21 129 21zM246 561c-70 0 -135 -16 -135 -86c0 -61 49 -85 105 -85c72 0 126 46 126 109v52c-31 6 -63 10 -96 10zM404 263v-25h-316v25h316z" />
    <glyph glyph-name="ordmasculine" unicode="&#xba;" horiz-adv-x="541" 
d="M271 731c113 0 185 -75 185 -183c0 -107 -73 -181 -185 -181c-113 0 -186 74 -186 181c0 108 72 183 186 183zM455 263v-25h-367v25h367zM271 705c-98 0 -156 -65 -156 -156s57 -156 156 -156s155 65 155 156s-58 156 -155 156z" />
    <glyph glyph-name="mu" unicode="&#xb5;" horiz-adv-x="612" 
d="M535 520v-520h-27l-6 115c-30 -75 -106 -121 -186 -121c-89 0 -155 35 -183 102v-268h-36v692h36v-304c0 -114 57 -193 184 -193c103 0 182 88 182 179v318h36z" />
    <glyph glyph-name="zero" unicode="0" horiz-adv-x="676" 
d="M338 -6c-180 0 -270 151 -270 357c0 203 89 355 271 355c181 0 270 -151 270 -354c0 -206 -91 -358 -271 -358zM339 25c158 0 232 139 232 326c0 186 -75 324 -232 324c-158 0 -233 -138 -233 -323c0 -188 75 -327 233 -327z" />
    <glyph glyph-name="one" unicode="1" horiz-adv-x="348" 
d="M239 703v-703h-36v666l-128 -63l-13 26l147 74h30z" />
    <glyph glyph-name="two" unicode="2" horiz-adv-x="553" 
d="M276 706c124 0 222 -65 222 -200c0 -100 -53 -176 -172 -278l-222 -196h394v-32h-445v28l251 223c85 76 156 148 156 255c0 114 -81 169 -188 169c-75 0 -144 -28 -183 -49l-11 27c44 25 116 53 198 53z" />
    <glyph glyph-name="three" unicode="3" horiz-adv-x="556" 
d="M262 706c119 0 215 -53 215 -164c0 -86 -57 -147 -144 -166c101 -19 174 -88 174 -185c0 -134 -109 -197 -254 -197c-73 0 -154 23 -196 45l11 28c37 -18 113 -42 182 -42c119 0 220 51 220 170c0 106 -110 169 -207 169h-74v27h74c79 0 177 41 177 148
c0 97 -87 136 -186 136c-54 0 -124 -19 -171 -41l-9 27c48 24 130 45 188 45z" />
    <glyph glyph-name="four" unicode="4" horiz-adv-x="588" 
d="M464 703v-495h92v-29h-92v-179h-36v179h-382v28l385 496h33zM428 651l-344 -443h344v443z" />
    <glyph glyph-name="five" unicode="5" horiz-adv-x="566" 
d="M478 700v-32h-336l-18 -297c45 32 95 51 164 51c135 0 229 -79 229 -210c0 -140 -105 -218 -254 -218c-90 0 -157 26 -201 48l12 29c37 -19 101 -47 185 -47c131 0 219 69 219 188c0 116 -83 182 -197 182c-71 0 -114 -27 -161 -59l-30 17l23 348h365z" />
    <glyph glyph-name="six" unicode="6" horiz-adv-x="624" 
d="M351 706c74 0 143 -20 189 -40l-12 -27c-49 20 -111 37 -173 37c-103 0 -163 -48 -200 -111c-37 -61 -54 -142 -55 -229c0 -25 1 -47 4 -67c28 94 113 159 237 159c132 0 231 -72 231 -215c0 -135 -98 -219 -241 -219c-129 0 -200 61 -234 145c-21 51 -35 118 -35 193
c0 92 20 186 66 256c44 68 114 118 223 118zM330 400c-125 0 -209 -94 -209 -193c0 -113 91 -184 208 -184c122 0 204 72 204 189c0 125 -87 188 -203 188z" />
    <glyph glyph-name="seven" unicode="7" horiz-adv-x="498" 
d="M468 700v-30l-298 -670h-42l301 668h-407v32h446z" />
    <glyph glyph-name="eight" unicode="8" horiz-adv-x="600" 
d="M300 706c131 0 219 -62 219 -173c0 -68 -44 -140 -146 -161c114 -19 181 -89 181 -187c0 -128 -108 -191 -253 -191s-255 63 -255 192c0 95 65 166 180 186c-102 22 -145 93 -145 161c0 111 89 173 219 173zM300 353c-136 1 -217 -63 -217 -166c0 -101 82 -165 217 -165
s217 64 217 165c0 103 -81 166 -217 166zM300 677c-107 0 -184 -50 -184 -147c0 -80 64 -140 184 -140s184 60 184 140c0 97 -76 147 -184 147z" />
    <glyph glyph-name="nine" unicode="9" horiz-adv-x="631" 
d="M291 706c132 0 204 -63 237 -150c20 -50 32 -115 32 -188c0 -92 -14 -188 -61 -258c-44 -68 -122 -116 -231 -116c-73 0 -143 20 -189 40l12 27c49 -20 111 -37 173 -37c103 0 172 46 209 109c37 61 48 144 49 231c0 24 -2 45 -5 65c-28 -93 -115 -157 -236 -157
c-131 0 -231 72 -231 214c0 136 98 220 241 220zM293 677c-122 0 -204 -72 -204 -190c0 -124 87 -187 203 -187c124 0 209 94 209 193c0 111 -87 184 -208 184z" />
    <glyph glyph-name="zero.tnum" 
d="M347 -6c-177 0 -274 151 -274 357c0 203 96 355 275 355c178 0 274 -151 274 -354c0 -206 -97 -358 -275 -358zM348 25c155 0 235 139 235 326c0 186 -81 324 -236 324c-154 0 -236 -138 -236 -323c0 -188 81 -327 237 -327z" />
    <glyph glyph-name="one.tnum" 
d="M389 703v-674h204v-29h-448v29h208v640l-184 -64l-13 27l202 71h31z" />
    <glyph glyph-name="two.tnum" 
d="M145 623l-10 29c43 23 119 54 199 54c127 0 227 -67 227 -193c0 -121 -95 -202 -172 -268l-236 -213h425v-32h-474v28l263 240c64 59 154 134 154 242c0 100 -76 165 -195 165c-70 0 -135 -29 -181 -52z" />
    <glyph glyph-name="three.tnum" 
d="M332 706c120 0 217 -53 217 -164c0 -86 -57 -147 -148 -166c106 -19 178 -88 178 -185c0 -134 -110 -197 -257 -197c-74 0 -156 23 -198 45l11 28c37 -18 114 -42 185 -42c119 0 220 51 220 170c0 106 -108 169 -207 169h-75v27h74c80 0 178 41 178 148
c0 97 -87 136 -187 136c-55 0 -126 -19 -173 -41l-9 27c49 24 131 45 191 45z" />
    <glyph glyph-name="four.tnum" 
d="M518 703v-495h97v-29h-97v-179h-35v179h-405v27l407 497h33zM483 653l-365 -445h365v445z" />
    <glyph glyph-name="five.tnum" 
d="M551 700v-32h-356l-18 -297c46 32 103 51 172 51c145 0 241 -77 241 -208c0 -139 -106 -220 -267 -220c-89 0 -164 26 -208 48l12 29c37 -19 109 -47 194 -47c141 0 230 69 230 189c0 119 -86 181 -210 181c-75 0 -130 -28 -172 -57l-26 15l23 348h385z" />
    <glyph glyph-name="six.tnum" 
d="M393 706c73 0 142 -20 186 -40l-11 -27c-48 20 -109 37 -171 37c-100 0 -160 -48 -196 -111c-37 -61 -53 -142 -54 -229c0 -23 1 -44 3 -63c28 86 110 155 234 155s226 -73 226 -215c0 -135 -92 -219 -237 -219c-126 0 -193 60 -227 141c-22 51 -37 120 -37 197
c0 92 20 186 65 256c44 68 112 118 219 118zM374 400c-126 0 -206 -94 -206 -193c0 -113 89 -184 205 -184c115 0 198 63 198 188s-88 189 -197 189z" />
    <glyph glyph-name="seven.tnum" 
d="M623 700v-30l-352 -670h-43l354 668h-467v32h508z" />
    <glyph glyph-name="eight.tnum" 
d="M348 706c128 0 214 -62 214 -173c0 -64 -38 -138 -143 -161c116 -18 178 -93 178 -187c0 -128 -107 -191 -249 -191c-143 0 -250 63 -250 191c0 94 61 169 178 187c-105 23 -143 97 -143 161c0 111 86 173 215 173zM348 353c-132 1 -212 -63 -212 -166
c0 -101 81 -165 212 -165c130 0 211 64 211 165c0 103 -79 166 -211 166zM348 677c-104 0 -179 -50 -179 -147c0 -80 63 -141 179 -141s178 61 178 141c0 97 -75 147 -178 147z" />
    <glyph glyph-name="nine.tnum" 
d="M333 706c126 0 195 -59 229 -140c24 -51 38 -120 38 -198c0 -92 -14 -188 -60 -258c-44 -68 -119 -116 -227 -116c-73 0 -142 20 -187 40l12 27c48 -20 109 -37 171 -37c102 0 168 46 205 109c36 61 48 144 48 231c0 23 -1 43 -4 62c-30 -94 -114 -154 -235 -154
c-126 0 -229 77 -229 213c0 138 94 221 239 221zM335 677c-117 0 -202 -63 -202 -192c0 -117 89 -185 200 -185c127 0 208 94 208 193c0 112 -87 184 -206 184z" />
    <glyph glyph-name="fraction" unicode="&#x2044;" horiz-adv-x="403" 
d="M379 703l-324 -703h-31l324 703h31z" />
    <glyph glyph-name="asterisk" unicode="*" horiz-adv-x="439" 
d="M234 751l-5 -135l115 73l15 -26l-120 -63l121 -63l-16 -28l-115 74l5 -136h-29l6 136l-116 -74l-16 28l121 63l-120 63l15 26l116 -73l-6 135h29z" />
    <glyph glyph-name="backslash" unicode="\" horiz-adv-x="471" 
d="M42 735h32l356 -769h-32z" />
    <glyph glyph-name="bullet" unicode="&#x2022;" horiz-adv-x="327" 
d="M164 405c32 0 57 -19 57 -55c0 -37 -25 -56 -57 -56c-33 0 -58 20 -58 56c0 35 25 55 58 55z" />
    <glyph glyph-name="colon" unicode=":" horiz-adv-x="216" 
d="M109 437c18 0 27 -13 27 -27c0 -15 -10 -26 -27 -26c-18 0 -28 10 -28 26c0 14 8 27 28 27zM109 50c18 0 27 -13 27 -27c0 -15 -10 -26 -27 -26c-18 0 -28 10 -28 26c0 14 8 27 28 27z" />
    <glyph glyph-name="comma" unicode="," horiz-adv-x="231" 
d="M112 48c21 0 43 -25 43 -66c0 -45 -33 -85 -74 -105l-7 13c28 16 58 48 58 89c0 11 -3 22 -8 31c-2 -8 -6 -13 -17 -13c-17 0 -23 13 -23 24c0 17 12 27 28 27z" />
    <glyph glyph-name="ellipsis" unicode="&#x2026;" horiz-adv-x="529" 
d="M433 50c18 0 27 -13 27 -27c0 -15 -10 -26 -27 -26c-18 0 -28 10 -28 26c0 14 8 27 28 27zM108 50c18 0 27 -13 27 -27c0 -15 -10 -26 -27 -26c-18 0 -28 10 -28 26c0 14 8 27 28 27zM271 50c18 0 27 -13 27 -27c0 -15 -10 -26 -27 -26c-18 0 -28 10 -28 26
c0 14 8 27 28 27z" />
    <glyph glyph-name="exclam" unicode="!" horiz-adv-x="251" 
d="M147 704l-5 -538h-31l-4 538h40zM126 46c18 0 27 -12 27 -27c0 -16 -9 -25 -27 -25c-19 0 -28 9 -28 25c0 15 9 27 28 27z" />
    <glyph glyph-name="exclamdown" unicode="&#xa1;" horiz-adv-x="251" 
d="M142 354l5 -539h-41l5 539h31zM126 526c18 0 27 -11 27 -26s-9 -26 -27 -26c-19 0 -28 11 -28 26s9 26 28 26z" />
    <glyph glyph-name="numbersign" unicode="#" horiz-adv-x="770" 
d="M660 205l-5 -31h-145l-30 -174h-33l30 174h-240l-30 -174h-34l31 174h-146l6 31h145l51 284h-147l6 31h146l33 183h32l-32 -183h240l33 183h32l-32 -183h142l-6 -31h-142l-49 -284h144zM292 489l-49 -284h240l50 284h-241z" />
    <glyph glyph-name="period" unicode="." horiz-adv-x="214" 
d="M107 50c17 0 27 -11 27 -27c0 -17 -10 -27 -27 -27s-27 10 -27 27c0 16 10 27 27 27z" />
    <glyph glyph-name="periodcentered" unicode="&#xb7;" horiz-adv-x="232" 
d="M116 334c21 0 36 -16 36 -36c0 -21 -15 -37 -36 -37s-36 16 -36 37c0 20 15 36 36 36z" />
    <glyph glyph-name="question" unicode="?" horiz-adv-x="470" 
d="M222 706c99 0 197 -46 197 -158c0 -161 -198 -157 -198 -303v-79h-32v79c0 156 194 158 194 301c0 92 -81 129 -163 129c-54 0 -110 -18 -152 -44l-12 27c42 28 101 48 166 48zM205 47c19 0 27 -12 27 -27c0 -16 -8 -26 -27 -26s-28 10 -28 26c0 15 9 27 28 27z" />
    <glyph glyph-name="questiondown" unicode="&#xbf;" horiz-adv-x="470" 
d="M280 354v-80c0 -156 -194 -158 -194 -301c0 -92 82 -129 164 -129c54 0 110 18 152 45l12 -27c-42 -29 -102 -49 -166 -49c-100 0 -197 46 -197 159c0 160 198 156 198 303v79h31zM265 526c19 0 27 -10 27 -27c0 -15 -8 -26 -27 -26s-28 11 -28 26c0 17 9 27 28 27z" />
    <glyph glyph-name="quotedbl" unicode="&#x22;" horiz-adv-x="348" 
d="M271 700l-37 -231h-23l22 231h38zM145 700l-37 -231h-23l22 231h38z" />
    <glyph glyph-name="quotesingle" unicode="'" horiz-adv-x="228" 
d="M145 700l-37 -231h-23l22 231h38z" />
    <glyph glyph-name="semicolon" unicode=";" horiz-adv-x="264" 
d="M131 48c22 0 43 -25 43 -66c0 -46 -29 -87 -72 -110l-8 14c28 16 57 53 57 95c0 11 -3 21 -7 29c-3 -7 -8 -13 -18 -13c-17 0 -23 13 -23 24c0 17 12 27 28 27zM128 437c18 0 27 -13 27 -28c0 -14 -10 -25 -27 -25c-18 0 -28 10 -28 25s8 28 28 28z" />
    <glyph glyph-name="slash" unicode="/" horiz-adv-x="467" 
d="M430 735l-419 -905h-31l418 905h32z" />
    <glyph glyph-name="underscore" unicode="_" horiz-adv-x="549" 
d="M468 -100v-28h-387v28h387z" />
    <glyph glyph-name="exclamdown.case" horiz-adv-x="251" 
d="M142 539l5 -539h-41l5 539h31zM126 711c18 0 27 -11 27 -26s-9 -27 -27 -27c-19 0 -28 12 -28 27s9 26 28 26z" />
    <glyph glyph-name="questiondown.case" horiz-adv-x="470" 
d="M280 538v-79c0 -156 -194 -158 -194 -301c0 -92 82 -129 164 -129c54 0 110 18 152 45l12 -28c-42 -28 -102 -48 -166 -48c-100 0 -197 46 -197 158c0 161 198 157 198 303v79h31zM265 710c19 0 27 -10 27 -26c0 -15 -8 -27 -27 -27s-28 12 -28 27c0 16 9 26 28 26z" />
    <glyph glyph-name="braceleft" unicode="{" horiz-adv-x="323" 
d="M274 706v-28h-20c-74 0 -103 -27 -103 -94v-229c0 -44 -15 -84 -68 -93c53 -9 68 -49 68 -93v-229c0 -67 29 -95 103 -95h20v-28h-22c-98 0 -132 42 -132 125v227c0 51 -25 77 -76 80v26c51 3 76 29 76 80v226c0 84 34 125 132 125h22z" />
    <glyph glyph-name="braceright" unicode="}" horiz-adv-x="323" 
d="M49 706h22c98 0 132 -41 132 -125v-226c0 -51 25 -77 76 -80v-26c-51 -3 -76 -29 -76 -80v-227c0 -83 -34 -125 -132 -125h-22v28h20c73 0 103 28 103 95v229c0 44 14 84 68 93c-54 9 -68 49 -68 93v229c0 67 -30 94 -103 94h-20v28z" />
    <glyph glyph-name="bracketleft" unicode="[" horiz-adv-x="285" 
d="M235 706v-28h-105v-833h105v-29h-136v890h136z" />
    <glyph glyph-name="bracketright" unicode="]" horiz-adv-x="285" 
d="M186 706v-890h-136v29h105v833h-105v28h136z" />
    <glyph glyph-name="parenleft" unicode="(" horiz-adv-x="315" 
d="M259 732h40c-93 -77 -202 -227 -202 -448s109 -370 202 -447h-40c-89 72 -200 235 -200 447s111 376 200 448z" />
    <glyph glyph-name="parenright" unicode=")" horiz-adv-x="315" 
d="M56 -163h-40c93 77 202 227 202 448s-109 370 -202 447h40c89 -72 200 -235 200 -447s-111 -376 -200 -448z" />
    <glyph glyph-name="braceleft.case" horiz-adv-x="323" 
d="M274 795v-28h-20c-74 0 -103 -27 -103 -95v-229c0 -43 -14 -83 -72 -93c58 -9 72 -49 72 -92v-229c0 -68 29 -95 103 -95h20v-28h-22c-98 0 -132 42 -132 125v227c0 51 -25 76 -76 79v26c51 4 76 29 76 80v226c0 84 34 126 132 126h22z" />
    <glyph glyph-name="braceright.case" horiz-adv-x="323" 
d="M49 795h22c98 0 132 -42 132 -126v-226c0 -51 25 -76 76 -80v-26c-51 -3 -76 -28 -76 -79v-227c0 -83 -34 -125 -132 -125h-22v28h20c73 0 103 27 103 95v229c0 43 14 83 72 92c-58 10 -72 50 -72 93v229c0 68 -30 95 -103 95h-20v28z" />
    <glyph glyph-name="bracketleft.case" horiz-adv-x="285" 
d="M235 766h-105v-832h105v-28h-136v889h136v-29z" />
    <glyph glyph-name="bracketright.case" horiz-adv-x="285" 
d="M50 795h136v-889h-136v28h105v832h-105v29z" />
    <glyph glyph-name="parenleft.case" horiz-adv-x="315" 
d="M261 802h38c-93 -77 -202 -225 -202 -447c0 -223 109 -371 202 -448h-38c-90 72 -202 236 -202 448s112 375 202 447z" />
    <glyph glyph-name="parenright.case" horiz-adv-x="315" 
d="M15 802h38c90 -72 202 -235 202 -447s-112 -376 -202 -448h-38c93 77 202 225 202 448c0 222 -109 370 -202 447z" />
    <glyph glyph-name="emdash" unicode="&#x2014;" horiz-adv-x="972" 
d="M891 286v-29h-810v29h810z" />
    <glyph glyph-name="endash" unicode="&#x2013;" horiz-adv-x="717" 
d="M635 286v-29h-554v29h554z" />
    <glyph glyph-name="hyphen" unicode="-" horiz-adv-x="514" 
d="M433 286v-29h-352v29h352z" />
    <glyph glyph-name="emdash.case" horiz-adv-x="972" 
d="M891 364v-28h-810v28h810z" />
    <glyph glyph-name="endash.case" horiz-adv-x="717" 
d="M635 364v-28h-554v28h554z" />
    <glyph glyph-name="hyphen.case" horiz-adv-x="514" 
d="M433 364v-28h-352v28h352z" />
    <glyph glyph-name="hyphen.tnum" 
d="M542 345v-27h-389v27h389z" />
    <glyph glyph-name="guillemotleft" unicode="&#xab;" horiz-adv-x="536" 
d="M449 486l21 -21l-172 -205l172 -205l-21 -21l-196 223v6zM254 486l21 -21l-172 -205l172 -205l-21 -21l-196 223v6z" />
    <glyph glyph-name="guillemotright" unicode="&#xbb;" horiz-adv-x="536" 
d="M281 486l197 -223v-6l-196 -223l-21 21l172 205l-172 205zM86 486l197 -223v-6l-196 -223l-21 21l172 205l-172 205z" />
    <glyph glyph-name="guilsinglleft" unicode="&#x2039;" horiz-adv-x="341" 
d="M275 465l-171 -205l171 -206l-21 -20l-196 222v7l197 223z" />
    <glyph glyph-name="guilsinglright" unicode="&#x203a;" horiz-adv-x="341" 
d="M87 486l197 -223v-7l-196 -222l-21 20l171 206l-171 205z" />
    <glyph glyph-name="quotedblbase" unicode="&#x201e;" horiz-adv-x="355" 
d="M238 51c21 0 43 -23 43 -65c0 -46 -28 -82 -71 -104l-8 14c28 16 55 45 55 88c0 11 -3 21 -7 29c-2 -7 -8 -13 -18 -13c-17 0 -23 12 -23 23c0 18 13 28 29 28zM110 51c21 0 43 -23 43 -65c0 -46 -28 -82 -71 -104l-8 14c28 16 55 45 55 88c0 11 -3 21 -7 29
c-2 -7 -8 -13 -18 -13c-17 0 -23 12 -23 23c0 18 13 28 29 28z" />
    <glyph glyph-name="quotedblleft" unicode="&#x201c;" horiz-adv-x="356" 
d="M274 690l8 -14c-28 -16 -55 -46 -55 -88c0 -11 2 -22 6 -31c2 7 8 14 19 14c17 0 23 -12 23 -23c0 -17 -13 -27 -29 -27c-22 0 -43 25 -43 66c0 46 28 80 71 103zM145 690l8 -14c-28 -16 -55 -46 -55 -88c0 -11 2 -22 6 -31c2 7 8 14 19 14c17 0 23 -12 23 -23
c0 -17 -13 -27 -29 -27c-22 0 -43 25 -43 66c0 46 28 80 71 103z" />
    <glyph glyph-name="quotedblright" unicode="&#x201d;" horiz-adv-x="356" 
d="M110 686c21 0 43 -25 43 -66c0 -46 -28 -80 -71 -103l-8 14c28 16 55 46 55 89c0 10 -3 21 -7 29c-2 -7 -8 -13 -18 -13c-17 0 -23 12 -23 23c0 17 13 27 29 27zM239 686c21 0 43 -25 43 -66c0 -46 -28 -80 -71 -103l-8 14c28 16 55 46 55 88c0 10 -3 21 -7 30
c-2 -7 -8 -13 -18 -13c-17 0 -23 12 -23 23c0 17 13 27 29 27z" />
    <glyph glyph-name="quoteleft" unicode="&#x2018;" horiz-adv-x="227" 
d="M117 520c-22 0 -43 25 -43 66c0 46 28 80 71 103l8 -14c-28 -16 -55 -46 -55 -88c0 -11 2 -22 6 -31c2 7 8 14 19 14c17 0 23 -12 23 -23c0 -17 -13 -27 -29 -27z" />
    <glyph glyph-name="quoteright" unicode="&#x2019;" horiz-adv-x="227" 
d="M110 685c21 0 43 -25 43 -65c0 -47 -28 -81 -71 -103l-8 13c28 16 55 46 55 89c0 10 -3 21 -7 29c-2 -7 -8 -13 -18 -13c-17 0 -23 12 -23 23c0 18 13 27 29 27z" />
    <glyph glyph-name="quotesinglbase" unicode="&#x201a;" horiz-adv-x="227" 
d="M110 51c21 0 43 -26 43 -66c0 -47 -28 -81 -71 -103l-8 14c28 16 55 45 55 88c0 11 -3 21 -7 29c-2 -7 -8 -13 -18 -13c-17 0 -23 12 -23 23c0 18 13 28 29 28z" />
    <glyph glyph-name="guillemotleft.case" horiz-adv-x="536" 
d="M449 571l21 -20l-172 -206l172 -205l-21 -21l-196 223v7zM254 571l21 -20l-172 -206l172 -205l-21 -21l-196 223v7z" />
    <glyph glyph-name="guillemotright.case" horiz-adv-x="536" 
d="M281 570l197 -222v-7l-196 -223l-21 21l172 205l-172 206zM86 570l197 -222v-7l-196 -223l-21 21l172 205l-172 206z" />
    <glyph glyph-name="guilsinglleft.case" horiz-adv-x="341" 
d="M254 571l21 -20l-172 -206l172 -205l-21 -21l-196 223v7z" />
    <glyph glyph-name="guilsinglright.case" horiz-adv-x="341" 
d="M87 572l197 -222v-7l-196 -223l-21 21l172 205l-172 205z" />
    <glyph glyph-name="space" unicode=" " horiz-adv-x="265" 
 />
    <glyph glyph-name="CR" unicode="&#xd;" horiz-adv-x="284" 
 />
    <glyph glyph-name="A" unicode="A" horiz-adv-x="666" 
d="M357 704l291 -704h-39l-81 197h-391l-80 -197h-39l292 704h47zM332 671l-182 -443h365l-182 443h-1z" />
    <glyph glyph-name=".null" horiz-adv-x="506" 
 />
    <glyph glyph-name=".null" horiz-adv-x="506" 
 />
    <glyph glyph-name="Euro" unicode="&#x20ac;" horiz-adv-x="762" 
d="M484 706c56 0 134 -14 191 -42l-8 -28c-32 15 -104 39 -176 39c-164 0 -275 -101 -300 -255h362l-8 -20h-357c-2 -17 -3 -34 -3 -51c0 -18 1 -35 3 -51h321l-8 -20h-311c26 -155 139 -253 301 -253c68 0 139 20 169 32l2 -30c-55 -23 -120 -33 -176 -33
c-178 0 -309 109 -337 284h-73l8 20h63c-2 16 -3 33 -3 51c0 17 1 34 3 51h-85l8 20h79c28 176 160 286 335 286z" />
    <glyph glyph-name="cent" unicode="&#xa2;" horiz-adv-x="577" 
d="M325 686v-80c47 0 102 -10 145 -27l-7 -26c-20 8 -72 24 -135 24c-147 0 -240 -90 -240 -237s93 -237 242 -237c63 0 106 18 134 29l6 -27c-50 -21 -96 -31 -144 -31h-1v-80h-24v80c-148 10 -249 107 -249 266c0 160 102 256 249 265v81h24z" />
    <glyph glyph-name="dollar" unicode="$" horiz-adv-x="579" 
d="M306 783v-76c84 -2 150 -28 187 -41l-11 -31c-6 3 -91 41 -186 41c-106 0 -185 -47 -185 -143c0 -108 98 -135 202 -167c107 -31 211 -67 211 -190c0 -117 -86 -178 -218 -183v-76h-24v77c-101 5 -177 35 -212 51l10 29c28 -14 117 -50 217 -50c120 0 188 54 188 148
c0 104 -98 132 -201 164c-105 31 -211 66 -211 193c0 106 76 174 209 178v76h24z" />
    <glyph glyph-name="sterling" unicode="&#xa3;" horiz-adv-x="600" 
d="M444 344v-20h-271c8 -33 15 -69 15 -127c0 -113 -58 -157 -74 -168h414v-29h-470v27s93 30 93 167c0 59 -8 96 -16 130h-71v20h66c-10 40 -19 82 -19 160c0 117 89 202 224 202c68 0 124 -21 160 -46l-14 -26c-22 14 -73 42 -144 42c-117 0 -189 -78 -189 -172
c0 -78 10 -120 20 -160h276z" />
    <glyph glyph-name="yen" unicode="&#xa5;" horiz-adv-x="609" 
d="M573 702l-249 -414v-38h141v-20h-141v-65h141v-20h-141v-145h-38v145h-140v20h140v65h-140v20h140v38l-249 414h41l227 -379l227 379h41z" />
    <glyph glyph-name="cent.tnum" 
d="M400 686v-80c47 0 102 -10 145 -27l-7 -26c-20 8 -72 24 -135 24c-147 0 -240 -90 -240 -237s93 -237 242 -237c63 0 106 18 134 29l6 -27c-50 -21 -96 -31 -144 -31h-1v-80h-24v80c-148 10 -249 107 -249 266c0 160 102 256 249 265v81h24z" />
    <glyph glyph-name="dollar.tnum" 
d="M359 783v-76c89 -2 161 -27 197 -41l-11 -28c-5 3 -97 38 -197 38c-111 0 -196 -47 -196 -143c0 -113 104 -140 215 -167c113 -27 223 -63 223 -190c0 -118 -92 -178 -231 -183v-76h-24v77c-106 5 -188 35 -224 51l10 29c31 -14 124 -50 229 -50c127 0 201 54 201 148
c0 108 -104 136 -213 163c-112 27 -224 64 -224 194c0 107 81 174 221 178v76h24z" />
    <glyph glyph-name="Euro.tnum" 
d="M450 706c56 0 134 -14 191 -42l-8 -28c-32 15 -104 39 -176 39c-164 0 -275 -101 -300 -255h362l-8 -20h-357c-2 -17 -3 -34 -3 -51c0 -18 1 -35 3 -51h321l-8 -20h-311c26 -155 139 -253 301 -253c68 0 139 20 169 32l2 -30c-55 -23 -120 -33 -176 -33
c-178 0 -309 109 -337 284h-73l8 20h63c-2 16 -3 33 -3 51c0 17 1 34 3 51h-85l8 20h79c28 176 160 286 335 286z" />
    <glyph glyph-name="sterling.tnum" 
d="M504 344v-20h-276c8 -33 15 -69 15 -127c0 -116 -60 -156 -77 -168h422v-29h-475v27s93 30 93 167c0 59 -8 96 -16 130h-71v20h66c-10 40 -19 82 -19 160c0 117 89 202 224 202c73 0 129 -21 165 -46l-14 -26c-22 14 -73 42 -149 42c-117 0 -189 -78 -189 -172
c0 -78 10 -120 20 -160h281z" />
    <glyph glyph-name="yen.tnum" 
d="M615 702l-249 -413v-38h147v-20h-147v-65h147v-20h-147v-146h-38v146h-146v20h146v65h-146v20h146v38l-249 413h42l226 -377l226 377h42z" />
    <glyph glyph-name="divide" unicode="&#xf7;" horiz-adv-x="587" 
d="M504 332v-27h-421v27h421zM294 181c18 0 26 -11 26 -25c0 -15 -9 -26 -26 -26s-26 11 -26 26c0 14 9 25 26 25zM294 513c18 0 26 -11 26 -25c0 -15 -9 -26 -26 -26s-26 11 -26 26c0 14 9 25 26 25z" />
    <glyph glyph-name="equal" unicode="=" horiz-adv-x="517" 
d="M432 416v-26h-347v26h347zM432 256v-27h-347v27h347z" />
    <glyph glyph-name="greater" unicode="&#x3e;" horiz-adv-x="572" 
d="M551 348v-28l-505 -176v32l463 158l-463 158v32z" />
    <glyph glyph-name="less" unicode="&#x3c;" horiz-adv-x="572" 
d="M22 348l505 176v-32l-463 -158l463 -158v-32l-505 176v28z" />
    <glyph glyph-name="multiply" unicode="&#xd7;" horiz-adv-x="476" 
d="M56 495l19 20l163 -164l163 164l19 -20l-163 -164l163 -163l-19 -20l-163 164l-163 -164l-19 20l162 163z" />
    <glyph glyph-name="percent" unicode="%" horiz-adv-x="791" 
d="M611 703l-404 -703h-33l405 703h32zM203 683c-73 0 -125 -62 -125 -144c0 -81 53 -142 125 -142c74 0 123 61 123 142c0 83 -49 144 -123 144zM203 709c93 0 153 -72 153 -170c0 -96 -59 -167 -153 -167c-91 0 -153 71 -153 167c0 98 62 170 153 170zM590 306
c-73 0 -125 -63 -125 -145c0 -81 53 -142 125 -142c73 0 123 61 123 142c0 82 -50 145 -123 145zM589 331c92 0 153 -72 153 -170c0 -96 -60 -167 -153 -167c-91 0 -154 71 -154 166c0 99 62 171 154 171z" />
    <glyph glyph-name="perthousand" unicode="&#x2030;" horiz-adv-x="1192" 
d="M612 703l-405 -703h-33l405 703h33zM589 331c92 0 153 -72 153 -170c0 -96 -60 -167 -153 -167c-91 0 -154 71 -154 166c0 99 62 171 154 171zM590 306c-73 0 -125 -63 -125 -145c0 -81 53 -142 125 -142c73 0 123 61 123 142c0 82 -50 145 -123 145zM993 331
c92 0 153 -72 153 -170c0 -96 -60 -167 -153 -167c-91 0 -154 71 -154 166c0 99 62 171 154 171zM993 306c-73 0 -125 -63 -125 -145c0 -81 53 -142 125 -142c73 0 123 61 123 142c0 82 -50 145 -123 145zM203 709c93 0 153 -72 153 -170c0 -96 -59 -167 -153 -167
c-91 0 -153 71 -153 167c0 98 62 170 153 170zM203 683c-73 0 -125 -62 -125 -144c0 -81 53 -142 125 -142c74 0 123 61 123 142c0 83 -49 144 -123 144z" />
    <glyph glyph-name="plus" unicode="+" horiz-adv-x="556" 
d="M292 537v-192h191v-27h-191v-190h-28v190h-190v27h190v192h28z" />
    <glyph glyph-name="plusminus" unicode="&#xb1;" horiz-adv-x="490" 
d="M449 127v-25h-409v25h409zM258 536v-161h191v-28h-191v-160h-28v160h-190v28h190v161h28z" />
    <glyph glyph-name="divide.tnum" 
d="M560 332v-27h-425v27h425zM348 512c18 0 26 -11 26 -25c0 -15 -9 -26 -26 -26s-26 11 -26 26c0 14 9 25 26 25zM348 181c18 0 26 -11 26 -25c0 -15 -9 -26 -26 -26s-26 11 -26 26c0 14 9 25 26 25z" />
    <glyph glyph-name="equal.tnum" 
d="M533 418v-27h-371v27h371zM533 256v-27h-371v27h371z" />
    <glyph glyph-name="multiply.tnum" 
d="M165 495l19 20l163 -164l163 164l19 -20l-163 -164l163 -163l-19 -20l-163 164l-163 -164l-19 20l162 163z" />
    <glyph glyph-name="percent.tnum" 
d="M553 701l-385 -701h-32l387 701h30zM162 684c-73 0 -120 -62 -120 -145c0 -81 49 -142 121 -142c74 0 118 61 118 142c0 83 -45 145 -119 145zM162 709c92 0 147 -71 147 -170c0 -96 -54 -167 -146 -167c-91 0 -148 70 -148 167c0 99 57 170 147 170zM532 305
c-73 0 -120 -62 -120 -145c0 -81 49 -142 121 -142c74 0 118 61 118 142c0 83 -45 145 -119 145zM532 330c92 0 147 -71 147 -170c0 -97 -54 -167 -146 -167c-91 0 -148 70 -148 167c0 98 57 170 147 170z" />
    <glyph glyph-name="plus.tnum" 
d="M361 537v-192h200v-27h-200v-190h-28v190h-198v27h198v192h28z" />
    <glyph glyph-name="ampersand" unicode="&#x26;" horiz-adv-x="649" 
d="M272 706c80 0 143 -50 143 -132c0 -91 -75 -137 -155 -185l216 -243c31 41 55 86 74 125l26 -14c-22 -46 -48 -93 -80 -134l110 -123h-39l-90 100c-55 -62 -126 -106 -218 -106c-109 0 -205 69 -205 176c0 111 81 172 162 223c-59 67 -94 113 -94 170
c0 89 69 143 150 143zM261 24c84 0 147 43 196 99l-223 250c-76 -46 -146 -99 -146 -198c0 -86 78 -151 173 -151zM154 563c0 -47 25 -84 88 -155c75 46 142 88 142 165c0 65 -49 105 -111 105c-63 0 -119 -47 -119 -115z" />
    <glyph glyph-name="apple" unicode="&#xf8ff;" horiz-adv-x="1413" 
d="M321 356v-108c0 -46 -21 -65 -70 -65c-28 0 -45 2 -62 12l6 32c14 -5 24 -7 36 -7c19 0 28 5 28 16v10c-10 -6 -19 -9 -32 -9c-31 0 -45 15 -45 49v70h63v-80c0 -8 4 -10 14 -6v86h62zM787 409v-168h-58l-3 11c-13 -11 -23 -15 -37 -15c-30 0 -49 19 -49 62
c0 37 15 61 51 61c10 0 21 -3 32 -10v59h64zM439 360c27 0 46 -20 46 -60c0 -37 -15 -63 -50 -63c-13 0 -25 4 -33 11v-60h-64v168h53l4 -13c10 9 28 17 44 17zM1047 360c27 0 46 -20 46 -60c0 -37 -15 -63 -50 -63c-13 0 -25 4 -33 11v-60h-64v168h53l4 -13
c10 9 28 17 44 17zM1172 360h1c47 0 68 -19 68 -61c0 -43 -21 -62 -67 -62h-2c-47 0 -67 19 -67 62c0 42 20 61 67 61zM567 360c45 0 61 -19 61 -46c0 -13 0 -17 -1 -26h-73c2 -13 10 -17 29 -17c10 0 27 1 40 5v-29c-15 -6 -32 -10 -53 -10c-50 0 -73 22 -73 61
s24 62 70 62zM870 361c45 0 61 -19 61 -46c0 -13 0 -17 -1 -26h-73c2 -13 10 -17 29 -17c10 0 26 1 40 5v-29c-16 -6 -32 -10 -53 -10c-50 0 -73 22 -73 61s24 62 70 62zM1332 400v-44h28v-37h-28v-19c0 -15 7 -21 30 -15l1 -37c-11 -5 -22 -8 -40 -8c-38 0 -54 13 -54 52
v27h-22v37h22l8 44h55zM135 400v-44h29v-37h-29v-19c0 -15 7 -21 31 -15l1 -37c-11 -5 -23 -8 -41 -8c-37 0 -53 13 -53 52v27h-23v37h23l8 44h54zM714 322c-11 0 -17 -6 -17 -25c0 -15 4 -26 12 -26s11 3 15 7v41c-4 2 -6 3 -10 3zM415 320c-7 0 -11 -4 -14 -7v-37
c4 -3 7 -5 12 -5c10 0 15 7 15 25c0 17 -5 24 -13 24zM1023 320c-7 0 -11 -4 -14 -7v-37c4 -3 7 -5 12 -5c10 0 15 7 15 25c0 17 -5 24 -13 24zM1173 326c-7 0 -10 -7 -10 -25s3 -27 10 -27c6 0 9 9 9 27s-3 25 -9 25zM870 328c-8 0 -14 -5 -14 -20h25c2 11 0 20 -11 20z
M567 327c-8 0 -14 -5 -14 -20h25c2 11 0 20 -11 20z" />
    <glyph glyph-name="at" unicode="@" horiz-adv-x="965" 
d="M519 691c203 0 389 -92 389 -335c0 -148 -70 -266 -204 -266c-72 0 -104 32 -104 88c-30 -53 -81 -87 -157 -87c-109 0 -175 74 -173 190c3 107 60 213 196 213c90 0 145 -50 159 -124l24 120h25l-49 -282c-11 -66 18 -96 81 -96c127 0 175 125 175 245
c0 230 -176 311 -362 311c-260 0 -435 -159 -435 -411c0 -241 161 -347 364 -347c95 0 187 23 251 51l5 -22c-79 -32 -169 -51 -258 -51c-221 0 -388 118 -388 368c0 264 185 435 461 435zM469 470c-126 0 -168 -102 -169 -189c-2 -103 54 -166 148 -166
c120 0 163 99 163 196c0 99 -46 159 -142 159z" />
    <glyph glyph-name="bar" unicode="|" horiz-adv-x="227" 
d="M129 802v-950h-31v950h31z" />
    <glyph glyph-name="copyright" unicode="&#xa9;" horiz-adv-x="835" 
d="M418 707c199 0 353 -151 353 -353s-155 -354 -353 -354c-197 0 -352 152 -352 354s154 353 352 353zM438 526c31 0 67 -6 94 -18l-5 -21c-17 7 -43 17 -86 17c-93 0 -150 -58 -150 -148c0 -91 57 -149 151 -149c40 0 68 12 86 19l5 -21c-33 -15 -63 -20 -94 -20
c-102 0 -176 63 -176 171c0 107 74 170 175 170zM418 687c-185 0 -329 -144 -329 -334s143 -333 329 -333s330 143 330 333s-145 334 -330 334z" />
    <glyph glyph-name="dagger" unicode="&#x2020;" horiz-adv-x="476" 
d="M255 703l-5 -703h-23l-5 703h33zM55 529l128 -6v-18l-128 -5v29zM422 529v-29l-128 5v18z" />
    <glyph glyph-name="daggerdbl" unicode="&#x2021;" horiz-adv-x="517" 
d="M275 703l-4 -703h-24l-5 703h33zM75 245l128 -5v-18l-128 -6v29zM442 245v-29l-128 6v18zM75 529l128 -6v-18l-128 -5v29zM442 529v-29l-128 5v18z" />
    <glyph glyph-name="degree" unicode="&#xb0;" horiz-adv-x="303" 
d="M152 711c74 0 131 -48 131 -127c0 -78 -57 -127 -131 -127s-132 49 -132 127c0 79 58 127 132 127zM151 687c-57 0 -101 -38 -101 -103c0 -64 44 -103 101 -103c56 0 102 41 102 103c0 64 -46 103 -102 103z" />
    <glyph glyph-name="paragraph" unicode="&#xb6;" horiz-adv-x="515" 
d="M376 -87v760h-96v-760h-30v403h-36c-111 4 -168 95 -168 197c0 111 76 189 177 189h183v-789h-30z" />
    <glyph glyph-name="registered" unicode="&#xae;" horiz-adv-x="614" 
d="M307 733c128 0 224 -96 224 -225c0 -126 -96 -224 -224 -224c-129 0 -225 98 -225 224c0 129 96 225 225 225zM307 716c-119 0 -207 -91 -207 -208c0 -116 87 -207 207 -207c119 0 206 91 206 207c0 117 -88 208 -206 208zM230 626h104c37 0 65 -29 65 -66
c0 -33 -19 -57 -46 -65l43 -98h-20l-40 96h-88v-96h-18v229zM333 611h-85v-102h85c28 0 49 22 49 51c0 31 -21 51 -49 51z" />
    <glyph glyph-name="section" unicode="&#xa7;" horiz-adv-x="600" 
d="M306 702c85 0 161 -26 205 -44l-11 -28c-36 15 -114 40 -194 40c-111 0 -191 -31 -191 -117c0 -87 120 -106 230 -139c96 -28 188 -65 188 -167c0 -72 -65 -137 -94 -160c49 -24 84 -56 84 -110c0 -101 -79 -148 -231 -148c-84 0 -160 25 -205 44l12 28
c35 -15 113 -41 193 -41c111 0 192 32 192 118c0 88 -125 106 -236 140c-94 28 -182 66 -182 166c0 71 63 136 93 159c-49 24 -83 56 -83 110c0 102 79 149 230 149zM500 242c0 128 -189 140 -315 190c-55 -44 -87 -97 -87 -144c0 -128 189 -139 315 -189
c55 43 87 96 87 143z" />
    <glyph glyph-name="trademark" unicode="&#x2122;" horiz-adv-x="775" 
d="M682 700v-302h-23v258l-108 -191h-16l-114 191v-258h-23v302h22l123 -207l115 207h24zM310 700v-22h-106v-280h-23v280h-107v22h236z" />
    <glyph glyph-name="acute" unicode="&#xb4;" horiz-adv-x="245" 
d="M172 711l-66 -148h-28l59 148h35z" />
    <glyph glyph-name="breve" unicode="&#x2d8;" horiz-adv-x="394" 
d="M286 681l29 -4c-14 -66 -55 -97 -118 -97c-64 0 -104 31 -118 97l29 4c12 -44 30 -76 89 -76s76 32 89 76z" />
    <glyph glyph-name="caron" unicode="&#x2c7;" horiz-adv-x="380" 
d="M313 712l-106 -149h-34l-105 149h36l86 -128l86 128h37z" />
    <glyph glyph-name="cedilla" unicode="&#xb8;" horiz-adv-x="310" 
d="M170 0l-21 -66c29 1 84 -4 84 -61c0 -50 -39 -64 -87 -64c-27 0 -54 7 -69 14l4 21c13 -6 40 -12 62 -12c25 0 60 6 60 40c0 45 -49 44 -75 39l-9 11l25 78h26z" />
    <glyph glyph-name="circumflex" unicode="&#x2c6;" horiz-adv-x="380" 
d="M313 563h-37l-86 128l-86 -128h-36l105 149h34z" />
    <glyph glyph-name="dieresis" unicode="&#xa8;" horiz-adv-x="390" 
d="M104 647c19 0 28 -9 28 -25s-9 -25 -28 -25c-17 0 -26 9 -26 25s9 25 26 25zM285 647c18 0 26 -9 26 -25s-8 -25 -26 -25s-27 9 -27 25s9 25 27 25z" />
    <glyph glyph-name="dotaccent" unicode="&#x2d9;" horiz-adv-x="201" 
d="M102 648c18 0 26 -9 26 -25s-8 -25 -26 -25s-27 9 -27 25s9 25 27 25z" />
    <glyph glyph-name="grave" unicode="`" horiz-adv-x="262" 
d="M102 710h35l46 -147h-28z" />
    <glyph glyph-name="hungarumlaut" unicode="&#x2dd;" horiz-adv-x="383" 
d="M182 712l-53 -149h-28l46 149h35zM297 712l-53 -149h-28l46 149h35z" />
    <glyph glyph-name="macron" unicode="&#xaf;" horiz-adv-x="456" 
d="M371 643v-24h-287v24h287z" />
    <glyph glyph-name="ogonek" unicode="&#x2db;" horiz-adv-x="277" 
d="M169 15l11 -15c-47 -28 -66 -60 -66 -96c0 -30 19 -48 48 -48c10 0 21 2 34 6l2 -23c-17 -7 -33 -8 -42 -8c-44 0 -72 22 -72 68c0 51 39 90 85 116z" />
    <glyph glyph-name="ring" unicode="&#x2da;" horiz-adv-x="323" 
d="M162 726c48 0 84 -28 84 -79c0 -50 -36 -79 -84 -79s-84 29 -84 79c0 51 36 79 84 79zM161 704c-32 0 -57 -20 -57 -57c0 -36 25 -57 57 -57c33 0 59 21 59 57c0 37 -26 57 -59 57z" />
    <glyph glyph-name="tilde" unicode="&#x2dc;" horiz-adv-x="420" 
d="M329 661l15 -6c-13 -38 -40 -56 -72 -56c-24 0 -46 11 -66 20s-40 21 -62 21c-24 0 -44 -15 -53 -34l-15 6c14 38 41 56 72 56c24 0 46 -10 67 -20c19 -9 40 -22 62 -22c24 0 43 16 52 35z" />
    <glyph glyph-name="acute.case" horiz-adv-x="245" 
d="M172 672l-66 -109h-28l59 109h35z" />
    <glyph glyph-name="breve.case" horiz-adv-x="394" 
d="M287 679l28 -4c-14 -66 -55 -95 -118 -95c-64 0 -104 29 -118 95l28 4c12 -44 31 -74 90 -74s77 30 90 74z" />
    <glyph glyph-name="caron.case" horiz-adv-x="380" 
d="M313 672l-106 -109h-34l-105 109h36l86 -88l86 88h37z" />
    <glyph glyph-name="circumflex.case" horiz-adv-x="380" 
d="M313 563h-37l-86 88l-86 -88h-36l105 109h34z" />
    <glyph glyph-name="dieresis.case" horiz-adv-x="390" 
d="M105 647c19 0 28 -9 28 -25s-9 -25 -28 -25c-17 0 -26 9 -26 25s9 25 26 25zM286 647c18 0 26 -9 26 -25s-8 -25 -26 -25s-27 9 -27 25s9 25 27 25z" />
    <glyph glyph-name="dotaccent.case" horiz-adv-x="201" 
d="M102 648c18 0 26 -9 26 -25s-8 -25 -26 -25s-27 9 -27 25s9 25 27 25z" />
    <glyph glyph-name="grave.case" horiz-adv-x="262" 
d="M137 670l46 -107h-28l-53 107h35z" />
    <glyph glyph-name="hungarumlaut.case" horiz-adv-x="383" 
d="M297 672l-53 -109h-28l46 109h35zM182 672l-53 -109h-28l46 109h35z" />
    <glyph glyph-name="commaaccent" unicode="&#xf6c3;" horiz-adv-x="0" 
d="M-134 -45h31c0 -53 -4 -57 -12 -115h-26c5 44 8 64 7 115z" />
    </font>
</defs>
</svg>
